{"glyphs":{"0":{"ha":788,"x_min":73,"x_max":715,"o":"m 340 -13 q 136 96 198 -13 q 95 412 73 205 l 114 593 q 222 913 136 803 q 449 1023 307 1023 q 652 913 590 1023 q 692 593 715 803 l 673 412 q 566 96 652 205 q 340 -13 481 -13 m 351 95 q 492 167 444 95 q 557 409 539 239 l 577 596 q 563 842 595 769 q 437 915 530 915 q 296 842 343 915 q 231 596 249 769 l 211 409 q 225 167 193 239 q 351 95 258 95 m 384 408 q 330 422 350 408 q 316 475 311 436 l 321 534 q 348 586 326 572 q 404 601 370 601 q 458 586 438 601 q 472 534 477 572 l 467 475 q 439 422 462 436 q 384 408 417 408 z "},"1":{"ha":788,"x_min":102,"x_max":669,"o":"m 102 0 l 114 105 l 342 105 l 422 867 l 393 867 q 295 771 357 803 q 160 750 234 740 l 163 867 q 316 900 242 862 q 441 1010 390 938 l 557 1010 l 462 105 l 669 105 l 658 0 l 102 0 z "},"2":{"ha":788,"x_min":52,"x_max":713,"o":"m 52 0 l 74 216 q 138 396 87 333 q 304 499 188 458 l 448 549 q 538 602 509 569 q 573 697 567 634 l 580 753 q 557 878 588 840 q 437 915 525 915 q 314 872 350 915 q 255 693 278 828 l 138 706 q 234 951 164 880 q 447 1023 304 1023 q 650 959 587 1023 q 699 766 713 895 l 691 681 q 631 532 681 586 q 468 438 581 479 l 326 388 q 234 331 266 367 q 193 218 201 294 l 182 105 l 641 105 l 630 0 l 52 0 z "},"3":{"ha":788,"x_min":63,"x_max":703,"o":"m 331 -13 q 116 59 168 -13 q 71 273 63 130 l 191 285 q 217 129 188 168 q 341 90 246 90 q 484 131 439 90 q 540 273 529 172 l 544 307 q 520 446 554 407 q 391 485 486 485 l 285 485 l 297 591 l 403 591 q 522 621 486 591 q 567 730 558 652 l 571 770 q 549 887 580 854 q 431 920 518 920 q 316 883 352 920 q 260 744 279 845 l 143 756 q 237 961 165 899 q 438 1023 308 1023 q 634 962 564 1023 q 689 768 703 902 l 684 726 q 628 607 677 650 q 503 558 580 563 l 499 521 q 629 451 588 513 q 663 309 670 389 l 659 274 q 569 64 645 140 q 331 -13 492 -13 z "},"4":{"ha":788,"x_min":69,"x_max":721,"o":"m 205 374 l 476 374 l 528 861 l 205 374 m 710 266 l 583 266 l 556 0 l 437 0 l 465 266 l 69 266 l 81 374 l 496 1010 l 662 1010 l 595 374 l 721 374 l 710 266 z "},"5":{"ha":788,"x_min":61,"x_max":694,"o":"m 333 -13 q 116 49 172 -13 q 71 275 61 110 l 191 288 q 215 131 186 167 q 345 95 245 95 q 486 138 442 95 q 539 269 530 182 l 547 332 q 527 463 556 419 q 423 508 499 508 l 126 508 l 179 1010 l 694 1010 l 683 903 l 287 903 l 258 621 l 444 621 q 624 554 567 621 q 665 340 681 486 l 658 259 q 562 61 644 134 q 333 -13 480 -13 z "},"6":{"ha":788,"x_min":71,"x_max":703,"o":"m 340 -13 q 132 81 193 -13 q 88 348 71 174 l 122 672 q 223 934 140 845 q 451 1023 307 1023 q 638 970 581 1023 q 703 794 696 917 l 572 765 q 539 884 566 852 q 434 915 513 915 q 299 859 343 915 q 241 672 255 803 l 226 533 l 245 533 q 324 606 278 582 q 438 630 370 630 q 624 546 569 630 q 665 331 678 462 l 662 303 q 564 68 645 148 q 340 -13 482 -13 m 350 95 q 483 144 437 95 q 540 299 529 193 l 542 316 q 517 471 553 422 q 394 520 481 520 q 261 471 307 520 q 203 316 215 422 l 202 299 q 227 144 191 193 q 350 95 263 95 z "},"7":{"ha":788,"x_min":145,"x_max":736,"o":"m 230 0 q 398 517 327 343 q 605 890 468 691 l 145 890 l 158 1010 l 736 1010 l 723 890 q 505 471 582 658 q 359 0 428 284 l 230 0 z "},"8":{"ha":788,"x_min":64,"x_max":705,"o":"m 340 -13 q 126 52 188 -13 q 80 260 64 117 l 82 288 q 143 444 92 383 q 274 514 193 505 l 278 551 q 179 608 216 557 q 152 741 143 659 l 155 782 q 239 965 169 908 q 448 1023 308 1023 q 646 965 588 1023 q 691 782 705 908 l 687 741 q 630 608 678 659 q 520 551 582 557 l 516 514 q 633 443 595 505 q 660 288 670 381 l 658 260 q 567 52 643 117 q 340 -13 491 -13 m 403 583 q 522 617 486 583 q 567 735 558 652 l 571 770 q 551 887 580 854 q 438 920 521 920 q 318 887 355 920 q 273 770 282 854 l 269 735 q 290 617 260 652 q 403 583 319 583 m 350 90 q 487 130 444 90 q 540 271 529 170 l 542 294 q 520 437 553 396 q 391 477 486 477 q 254 437 297 477 q 201 294 212 396 l 199 271 q 222 130 188 170 q 350 90 255 90 z "},"9":{"ha":788,"x_min":85,"x_max":717,"o":"m 394 490 q 527 539 481 490 q 585 694 573 588 l 586 711 q 561 866 597 817 q 438 915 525 915 q 305 866 351 915 q 247 711 259 817 l 246 694 q 271 539 235 588 q 394 490 307 490 m 337 -13 q 150 41 207 -13 q 85 216 92 95 l 216 245 q 251 126 222 157 q 354 95 279 95 q 489 151 444 95 q 547 338 533 207 l 562 477 l 543 477 q 465 405 514 431 q 348 380 415 380 q 165 458 221 380 q 124 679 109 537 l 126 707 q 225 943 143 862 q 448 1023 307 1023 q 656 929 595 1023 q 699 662 717 835 l 665 338 q 566 78 648 169 q 337 -13 484 -13 z "},"\u0000":{"ha":0,"x_min":0,"x_max":0,"o":""},"\r":{"ha":0,"x_min":0,"x_max":0,"o":""}," ":{"ha":788,"x_min":0,"x_max":0,"o":""}," ":{"ha":788,"x_min":0,"x_max":0,"o":""},"A":{"ha":788,"x_min":10,"x_max":673,"o":"m 496 403 l 433 872 l 269 403 l 496 403 m 551 0 l 510 297 l 231 297 l 128 0 l 10 0 l 383 1010 l 511 1010 l 673 0 l 551 0 z "},"À":{"ha":788,"x_min":10,"x_max":673,"o":"m 496 403 l 433 872 l 269 403 l 496 403 m 551 0 l 510 297 l 231 297 l 128 0 l 10 0 l 383 1010 l 511 1010 l 673 0 l 551 0 m 460 1136 l 277 1389 l 447 1389 l 561 1136 l 460 1136 z "},"Á":{"ha":788,"x_min":10,"x_max":676,"o":"m 496 403 l 433 872 l 269 403 l 496 403 m 551 0 l 510 297 l 231 297 l 128 0 l 10 0 l 383 1010 l 511 1010 l 673 0 l 551 0 m 338 1136 l 504 1389 l 676 1389 l 439 1136 l 338 1136 z "},"Â":{"ha":788,"x_min":10,"x_max":707,"o":"m 496 403 l 433 872 l 269 403 l 496 403 m 551 0 l 510 297 l 231 297 l 128 0 l 10 0 l 383 1010 l 511 1010 l 673 0 l 551 0 m 277 1153 l 232 1222 l 444 1409 l 530 1409 l 707 1222 l 648 1153 l 476 1292 l 277 1153 z "},"Ã":{"ha":788,"x_min":10,"x_max":713,"o":"m 496 403 l 433 872 l 269 403 l 496 403 m 551 0 l 510 297 l 231 297 l 128 0 l 10 0 l 383 1010 l 511 1010 l 673 0 l 551 0 m 547 1149 q 483 1172 506 1149 q 446 1223 460 1196 q 418 1274 431 1251 q 386 1297 405 1297 q 347 1268 362 1297 q 326 1176 331 1240 l 324 1162 l 236 1162 l 237 1181 q 291 1336 247 1274 q 404 1399 335 1399 q 472 1376 447 1399 q 509 1326 496 1352 q 534 1275 523 1298 q 563 1251 545 1251 q 602 1280 586 1251 q 625 1372 619 1308 l 626 1386 l 713 1386 l 712 1367 q 658 1211 702 1273 q 547 1149 615 1149 z "},"Ä":{"ha":788,"x_min":10,"x_max":673,"o":"m 496 403 l 433 872 l 269 403 l 496 403 m 551 0 l 510 297 l 231 297 l 128 0 l 10 0 l 383 1010 l 511 1010 l 673 0 l 551 0 m 338 1152 q 287 1166 307 1152 q 273 1221 268 1181 l 273 1229 q 300 1285 278 1270 q 354 1301 322 1301 q 405 1285 386 1301 q 419 1229 424 1270 l 419 1221 q 392 1166 414 1181 q 338 1152 370 1152 m 586 1152 q 534 1166 553 1152 q 520 1221 515 1181 l 520 1229 q 547 1285 525 1270 q 601 1301 568 1301 q 652 1285 633 1301 q 667 1229 672 1270 l 667 1221 q 640 1166 662 1181 q 586 1152 617 1152 z "},"Å":{"ha":788,"x_min":10,"x_max":673,"o":"m 496 403 l 433 872 l 269 403 l 496 403 m 551 0 l 510 297 l 231 297 l 128 0 l 10 0 l 383 1010 l 511 1010 l 673 0 l 551 0 m 458 1119 q 336 1164 380 1119 q 302 1301 293 1208 l 307 1341 q 369 1480 316 1434 q 501 1527 423 1527 q 624 1480 581 1527 q 658 1341 667 1434 l 653 1301 q 590 1164 644 1208 q 458 1119 537 1119 m 467 1206 q 533 1227 509 1206 q 562 1301 557 1249 l 567 1341 q 553 1415 572 1391 q 492 1439 534 1439 q 426 1415 449 1439 q 398 1341 403 1391 l 393 1301 q 406 1227 388 1249 q 467 1206 424 1206 z "},"Ā":{"ha":788,"x_min":10,"x_max":693,"o":"m 496 403 l 433 872 l 269 403 l 496 403 m 551 0 l 510 297 l 231 297 l 128 0 l 10 0 l 383 1010 l 511 1010 l 673 0 l 551 0 m 254 1210 l 264 1316 l 693 1316 l 683 1210 l 254 1210 z "},"Ă":{"ha":788,"x_min":10,"x_max":737,"o":"m 496 403 l 433 872 l 269 403 l 496 403 m 551 0 l 510 297 l 231 297 l 128 0 l 10 0 l 383 1010 l 511 1010 l 673 0 l 551 0 m 460 1128 q 284 1191 345 1128 q 237 1389 223 1254 l 351 1389 q 372 1260 342 1298 q 470 1222 402 1222 q 575 1260 538 1222 q 624 1389 612 1298 l 737 1389 q 648 1191 721 1254 q 460 1128 574 1128 z "},"Ą":{"ha":788,"x_min":10,"x_max":708,"o":"m 496 403 l 433 872 l 269 403 l 496 403 m 551 0 l 510 297 l 231 297 l 128 0 l 10 0 l 383 1010 l 511 1010 l 673 0 l 551 0 m 586 -270 q 474 -230 516 -270 q 439 -121 432 -191 q 492 -15 446 -63 q 592 56 539 33 l 616 29 q 562 -30 577 3 q 544 -87 547 -62 q 558 -141 540 -122 q 611 -160 576 -160 q 659 -157 631 -160 q 708 -148 687 -153 l 697 -258 q 641 -266 673 -263 q 586 -270 610 -270 z "},"Ǻ":{"ha":788,"x_min":10,"x_max":739,"o":"m 496 403 l 433 872 l 269 403 l 496 403 m 551 0 l 510 297 l 231 297 l 128 0 l 10 0 l 383 1010 l 511 1010 l 673 0 l 551 0 m 458 1119 q 336 1164 380 1119 q 302 1301 293 1208 l 307 1341 q 369 1480 316 1434 q 501 1527 423 1527 q 624 1480 581 1527 q 658 1341 667 1434 l 653 1301 q 590 1164 644 1208 q 458 1119 537 1119 m 467 1206 q 533 1227 509 1206 q 562 1301 557 1249 l 567 1341 q 553 1415 572 1391 q 492 1439 534 1439 q 426 1415 449 1439 q 398 1341 403 1391 l 393 1301 q 406 1227 388 1249 q 467 1206 424 1206 m 402 1515 l 567 1768 l 739 1768 l 503 1515 l 402 1515 z "},"B":{"ha":788,"x_min":71,"x_max":694,"o":"m 71 0 l 177 1010 l 447 1010 q 636 951 578 1010 q 682 773 694 893 l 676 715 q 631 609 669 653 q 534 553 593 566 l 530 516 q 638 453 601 509 q 665 313 674 398 l 659 256 q 569 64 646 128 q 347 0 491 0 l 71 0 m 250 578 l 407 578 q 516 613 480 578 q 559 725 552 648 l 563 758 q 542 869 571 835 q 441 903 514 903 l 284 903 l 250 578 m 201 107 l 375 107 q 494 145 455 107 q 542 270 533 183 l 547 308 q 524 434 556 395 q 413 472 492 472 l 239 472 l 201 107 z "},"":{"ha":788,"x_min":71,"x_max":694,"o":"m 71 0 l 177 1010 l 447 1010 q 636 951 578 1010 q 682 773 694 893 l 676 715 q 631 609 669 653 q 534 553 593 566 l 530 516 q 638 453 601 509 q 665 313 674 398 l 659 256 q 569 64 646 128 q 347 0 491 0 l 71 0 m 250 578 l 407 578 q 516 613 480 578 q 559 725 552 648 l 563 758 q 542 869 571 835 q 441 903 514 903 l 284 903 l 250 578 m 201 107 l 375 107 q 494 145 455 107 q 542 270 533 183 l 547 308 q 524 434 556 395 q 413 472 492 472 l 239 472 l 201 107 z "},"C":{"ha":788,"x_min":68,"x_max":732,"o":"m 352 -13 q 135 74 202 -13 q 87 335 68 162 l 122 670 q 225 934 140 846 q 461 1023 311 1023 q 670 941 607 1023 q 723 683 732 859 l 605 670 q 575 864 609 809 q 449 918 542 918 q 302 862 350 918 q 241 674 255 807 l 206 331 q 230 150 192 207 q 364 92 268 92 q 500 144 456 92 q 569 335 544 196 l 686 322 q 578 68 658 149 q 352 -13 499 -13 z "},"Ç":{"ha":788,"x_min":68,"x_max":732,"o":"m 352 -13 q 135 74 202 -13 q 87 335 68 162 l 122 670 q 225 934 140 846 q 461 1023 311 1023 q 670 941 607 1023 q 723 683 732 859 l 605 670 q 575 864 609 809 q 449 918 542 918 q 302 862 350 918 q 241 674 255 807 l 206 331 q 230 150 192 207 q 364 92 268 92 q 500 144 456 92 q 569 335 544 196 l 686 322 q 578 68 658 149 q 352 -13 499 -13 m 321 0 l 346 53 q 443 0 408 40 q 470 -115 479 -40 q 407 -234 462 -196 q 289 -271 352 -271 q 174 -242 217 -271 q 133 -141 130 -212 l 237 -129 q 250 -162 236 -153 q 295 -172 264 -172 q 344 -156 327 -172 q 366 -97 361 -140 q 360 -31 371 -52 q 321 0 350 -10 z "},"Ć":{"ha":788,"x_min":68,"x_max":732,"o":"m 352 -13 q 135 74 202 -13 q 87 335 68 162 l 122 670 q 225 934 140 846 q 461 1023 311 1023 q 670 941 607 1023 q 723 683 732 859 l 605 670 q 575 864 609 809 q 449 918 542 918 q 302 862 350 918 q 241 674 255 807 l 206 331 q 230 150 192 207 q 364 92 268 92 q 500 144 456 92 q 569 335 544 196 l 686 322 q 578 68 658 149 q 352 -13 499 -13 m 388 1136 l 553 1389 l 725 1389 l 489 1136 l 388 1136 z "},"Ĉ":{"ha":788,"x_min":68,"x_max":732,"o":"m 352 -13 q 135 74 202 -13 q 87 335 68 162 l 122 670 q 225 934 140 846 q 461 1023 311 1023 q 670 941 607 1023 q 723 683 732 859 l 605 670 q 575 864 609 809 q 449 918 542 918 q 302 862 350 918 q 241 674 255 807 l 206 331 q 230 150 192 207 q 364 92 268 92 q 500 144 456 92 q 569 335 544 196 l 686 322 q 578 68 658 149 q 352 -13 499 -13 m 287 1153 l 242 1222 l 455 1409 l 540 1409 l 717 1222 l 658 1153 l 486 1292 l 287 1153 z "},"Ċ":{"ha":788,"x_min":68,"x_max":732,"o":"m 352 -13 q 135 74 202 -13 q 87 335 68 162 l 122 670 q 225 934 140 846 q 461 1023 311 1023 q 670 941 607 1023 q 723 683 732 859 l 605 670 q 575 864 609 809 q 449 918 542 918 q 302 862 350 918 q 241 674 255 807 l 206 331 q 230 150 192 207 q 364 92 268 92 q 500 144 456 92 q 569 335 544 196 l 686 322 q 578 68 658 149 q 352 -13 499 -13 m 472 1152 q 404 1166 429 1152 q 384 1221 379 1181 l 384 1229 q 417 1285 389 1270 q 487 1301 444 1301 q 556 1285 530 1301 q 576 1229 581 1270 l 576 1221 q 542 1166 571 1181 q 472 1152 514 1152 z "},"Č":{"ha":788,"x_min":68,"x_max":732,"o":"m 352 -13 q 135 74 202 -13 q 87 335 68 162 l 122 670 q 225 934 140 846 q 461 1023 311 1023 q 670 941 607 1023 q 723 683 732 859 l 605 670 q 575 864 609 809 q 449 918 542 918 q 302 862 350 918 q 241 674 255 807 l 206 331 q 230 150 192 207 q 364 92 268 92 q 500 144 456 92 q 569 335 544 196 l 686 322 q 578 68 658 149 q 352 -13 499 -13 m 429 1141 l 254 1328 l 312 1398 l 485 1259 l 683 1398 l 729 1328 l 515 1141 l 429 1141 z "},"D":{"ha":788,"x_min":71,"x_max":716,"o":"m 71 0 l 177 1010 l 420 1010 q 641 915 567 1010 q 699 659 716 819 l 667 346 q 555 94 650 188 q 313 0 460 0 l 71 0 m 201 105 l 322 105 q 478 168 420 105 q 548 343 535 231 l 581 662 q 549 840 593 775 q 405 905 504 905 l 284 905 l 201 105 z "},"Ď":{"ha":788,"x_min":71,"x_max":717,"o":"m 71 0 l 177 1010 l 420 1010 q 641 915 567 1010 q 699 659 716 819 l 667 346 q 555 94 650 188 q 313 0 460 0 l 71 0 m 201 105 l 322 105 q 478 168 420 105 q 548 343 535 231 l 581 662 q 549 840 593 775 q 405 905 504 905 l 284 905 l 201 105 m 418 1141 l 242 1328 l 301 1398 l 473 1259 l 672 1398 l 717 1328 l 504 1141 l 418 1141 z "},"E":{"ha":788,"x_min":71,"x_max":736,"o":"m 71 0 l 177 1010 l 736 1010 l 725 905 l 284 905 l 253 604 l 640 604 l 629 497 l 241 497 l 201 105 l 641 105 l 630 0 l 71 0 z "},"":{"ha":788,"x_min":71,"x_max":736,"o":"m 71 0 l 177 1010 l 736 1010 l 725 905 l 284 905 l 253 604 l 640 604 l 629 497 l 241 497 l 201 105 l 641 105 l 630 0 l 71 0 z "},"È":{"ha":788,"x_min":71,"x_max":736,"o":"m 71 0 l 177 1010 l 736 1010 l 725 905 l 284 905 l 253 604 l 640 604 l 629 497 l 241 497 l 201 105 l 641 105 l 630 0 l 71 0 m 471 1136 l 288 1389 l 458 1389 l 572 1136 l 471 1136 z "},"É":{"ha":788,"x_min":71,"x_max":736,"o":"m 71 0 l 177 1010 l 736 1010 l 725 905 l 284 905 l 253 604 l 640 604 l 629 497 l 241 497 l 201 105 l 641 105 l 630 0 l 71 0 m 369 1136 l 534 1389 l 706 1389 l 470 1136 l 369 1136 z "},"Ê":{"ha":788,"x_min":71,"x_max":736,"o":"m 71 0 l 177 1010 l 736 1010 l 725 905 l 284 905 l 253 604 l 640 604 l 629 497 l 241 497 l 201 105 l 641 105 l 630 0 l 71 0 m 295 1153 l 251 1222 l 463 1409 l 549 1409 l 726 1222 l 667 1153 l 495 1292 l 295 1153 z "},"Ë":{"ha":788,"x_min":71,"x_max":736,"o":"m 71 0 l 177 1010 l 736 1010 l 725 905 l 284 905 l 253 604 l 640 604 l 629 497 l 241 497 l 201 105 l 641 105 l 630 0 l 71 0 m 357 1152 q 306 1166 326 1152 q 292 1221 287 1181 l 292 1229 q 319 1285 297 1270 q 372 1301 341 1301 q 424 1285 405 1301 q 438 1229 443 1270 l 438 1221 q 411 1166 433 1181 q 357 1152 389 1152 m 605 1152 q 553 1166 572 1152 q 539 1221 534 1181 l 539 1229 q 566 1285 544 1270 q 620 1301 587 1301 q 671 1285 652 1301 q 686 1229 691 1270 l 686 1221 q 658 1166 681 1181 q 605 1152 636 1152 z "},"Ē":{"ha":788,"x_min":71,"x_max":736,"o":"m 71 0 l 177 1010 l 736 1010 l 725 905 l 284 905 l 253 604 l 640 604 l 629 497 l 241 497 l 201 105 l 641 105 l 630 0 l 71 0 m 273 1210 l 283 1316 l 712 1316 l 702 1210 l 273 1210 z "},"Ĕ":{"ha":788,"x_min":71,"x_max":756,"o":"m 71 0 l 177 1010 l 736 1010 l 725 905 l 284 905 l 253 604 l 640 604 l 629 497 l 241 497 l 201 105 l 641 105 l 630 0 l 71 0 m 479 1128 q 303 1191 364 1128 q 256 1389 242 1254 l 370 1389 q 391 1260 361 1298 q 489 1222 420 1222 q 594 1260 557 1222 q 643 1389 631 1298 l 756 1389 q 667 1191 740 1254 q 479 1128 593 1128 z "},"Ė":{"ha":788,"x_min":71,"x_max":736,"o":"m 71 0 l 177 1010 l 736 1010 l 725 905 l 284 905 l 253 604 l 640 604 l 629 497 l 241 497 l 201 105 l 641 105 l 630 0 l 71 0 m 481 1152 q 413 1166 438 1152 q 393 1221 388 1181 l 393 1229 q 426 1285 398 1270 q 496 1301 453 1301 q 564 1285 539 1301 q 585 1229 590 1270 l 585 1221 q 551 1166 580 1181 q 481 1152 523 1152 z "},"Ę":{"ha":788,"x_min":71,"x_max":736,"o":"m 494 -270 q 382 -230 424 -270 q 347 -121 340 -191 q 400 -15 354 -63 q 500 56 447 33 l 524 29 q 470 -30 485 3 q 452 -87 455 -62 q 466 -141 448 -122 q 519 -160 484 -160 q 567 -157 539 -160 q 616 -148 595 -153 l 605 -258 q 549 -266 581 -263 q 494 -270 518 -270 m 71 0 l 177 1010 l 736 1010 l 725 905 l 284 905 l 253 604 l 640 604 l 629 497 l 241 497 l 201 105 l 641 105 l 630 0 l 71 0 z "},"Ě":{"ha":788,"x_min":71,"x_max":746,"o":"m 71 0 l 177 1010 l 736 1010 l 725 905 l 284 905 l 253 604 l 640 604 l 629 497 l 241 497 l 201 105 l 641 105 l 630 0 l 71 0 m 447 1141 l 271 1328 l 330 1398 l 503 1259 l 701 1398 l 746 1328 l 533 1141 l 447 1141 z "},"F":{"ha":788,"x_min":77,"x_max":739,"o":"m 77 0 l 183 1010 l 739 1010 l 727 905 l 290 905 l 249 499 l 611 499 l 600 393 l 237 393 l 196 0 l 77 0 z "},"G":{"ha":788,"x_min":71,"x_max":712,"o":"m 355 -13 q 138 81 205 -13 q 87 335 71 174 l 122 670 q 226 932 140 842 q 458 1023 312 1023 q 653 946 593 1023 q 705 706 712 869 l 585 693 q 557 867 588 816 q 444 918 525 918 q 301 862 347 918 q 241 674 255 806 l 206 331 q 230 147 192 202 q 369 92 268 92 q 506 157 461 92 q 568 371 552 221 l 380 371 l 391 477 l 699 477 l 686 348 q 582 80 667 173 q 355 -13 497 -13 z "},"Ĝ":{"ha":788,"x_min":71,"x_max":723,"o":"m 355 -13 q 138 81 205 -13 q 87 335 71 174 l 122 670 q 226 932 140 842 q 458 1023 312 1023 q 653 946 593 1023 q 705 706 712 869 l 585 693 q 557 867 588 816 q 444 918 525 918 q 301 862 347 918 q 241 674 255 806 l 206 331 q 230 147 192 202 q 369 92 268 92 q 506 157 461 92 q 568 371 552 221 l 380 371 l 391 477 l 699 477 l 686 348 q 582 80 667 173 q 355 -13 497 -13 m 293 1153 l 249 1222 l 461 1409 l 547 1409 l 723 1222 l 664 1153 l 492 1292 l 293 1153 z "},"Ğ":{"ha":788,"x_min":71,"x_max":754,"o":"m 355 -13 q 138 81 205 -13 q 87 335 71 174 l 122 670 q 226 932 140 842 q 458 1023 312 1023 q 653 946 593 1023 q 705 706 712 869 l 585 693 q 557 867 588 816 q 444 918 525 918 q 301 862 347 918 q 241 674 255 806 l 206 331 q 230 147 192 202 q 369 92 268 92 q 506 157 461 92 q 568 371 552 221 l 380 371 l 391 477 l 699 477 l 686 348 q 582 80 667 173 q 355 -13 497 -13 m 476 1128 q 301 1191 361 1128 q 254 1389 240 1254 l 367 1389 q 388 1260 359 1298 q 486 1222 418 1222 q 592 1260 554 1222 q 640 1389 629 1298 l 754 1389 q 664 1191 737 1254 q 476 1128 591 1128 z "},"Ġ":{"ha":788,"x_min":71,"x_max":712,"o":"m 355 -13 q 138 81 205 -13 q 87 335 71 174 l 122 670 q 226 932 140 842 q 458 1023 312 1023 q 653 946 593 1023 q 705 706 712 869 l 585 693 q 557 867 588 816 q 444 918 525 918 q 301 862 347 918 q 241 674 255 806 l 206 331 q 230 147 192 202 q 369 92 268 92 q 506 157 461 92 q 568 371 552 221 l 380 371 l 391 477 l 699 477 l 686 348 q 582 80 667 173 q 355 -13 497 -13 m 471 1152 q 403 1166 428 1152 q 383 1221 378 1181 l 383 1229 q 415 1285 388 1270 q 486 1301 443 1301 q 554 1285 529 1301 q 574 1229 580 1270 l 574 1221 q 541 1166 569 1181 q 471 1152 513 1152 z "},"Ģ":{"ha":788,"x_min":71,"x_max":712,"o":"m 164 -379 l 288 -126 l 460 -126 l 265 -379 l 164 -379 m 355 -13 q 138 81 205 -13 q 87 335 71 174 l 122 670 q 226 932 140 842 q 458 1023 312 1023 q 653 946 593 1023 q 705 706 712 869 l 585 693 q 557 867 588 816 q 444 918 525 918 q 301 862 347 918 q 241 674 255 806 l 206 331 q 230 147 192 202 q 369 92 268 92 q 506 157 461 92 q 568 371 552 221 l 380 371 l 391 477 l 699 477 l 686 348 q 582 80 667 173 q 355 -13 497 -13 z "},"H":{"ha":788,"x_min":71,"x_max":717,"o":"m 71 0 l 177 1010 l 295 1010 l 253 601 l 556 601 l 598 1010 l 717 1010 l 611 0 l 492 0 l 544 495 l 241 495 l 189 0 l 71 0 z "},"Ĥ":{"ha":788,"x_min":71,"x_max":717,"o":"m 71 0 l 177 1010 l 295 1010 l 253 601 l 556 601 l 598 1010 l 717 1010 l 611 0 l 492 0 l 544 495 l 241 495 l 189 0 l 71 0 m 275 1153 l 231 1222 l 443 1409 l 529 1409 l 706 1222 l 646 1153 l 475 1292 l 275 1153 z "},"I":{"ha":788,"x_min":71,"x_max":717,"o":"m 71 0 l 82 105 l 293 105 l 376 905 l 165 905 l 177 1010 l 717 1010 l 706 905 l 495 905 l 412 105 l 622 105 l 611 0 l 71 0 z "},"Ì":{"ha":788,"x_min":71,"x_max":717,"o":"m 71 0 l 82 105 l 293 105 l 376 905 l 165 905 l 177 1010 l 717 1010 l 706 905 l 495 905 l 412 105 l 622 105 l 611 0 l 71 0 m 458 1136 l 275 1389 l 446 1389 l 559 1136 l 458 1136 z "},"Í":{"ha":788,"x_min":71,"x_max":717,"o":"m 71 0 l 82 105 l 293 105 l 376 905 l 165 905 l 177 1010 l 717 1010 l 706 905 l 495 905 l 412 105 l 622 105 l 611 0 l 71 0 m 337 1136 l 503 1389 l 674 1389 l 438 1136 l 337 1136 z "},"Î":{"ha":788,"x_min":71,"x_max":717,"o":"m 71 0 l 82 105 l 293 105 l 376 905 l 165 905 l 177 1010 l 717 1010 l 706 905 l 495 905 l 412 105 l 622 105 l 611 0 l 71 0 m 275 1153 l 231 1222 l 443 1409 l 529 1409 l 706 1222 l 646 1153 l 475 1292 l 275 1153 z "},"Ï":{"ha":788,"x_min":71,"x_max":717,"o":"m 71 0 l 82 105 l 293 105 l 376 905 l 165 905 l 177 1010 l 717 1010 l 706 905 l 495 905 l 412 105 l 622 105 l 611 0 l 71 0 m 337 1152 q 286 1166 306 1152 q 271 1221 266 1181 l 271 1229 q 299 1285 277 1270 q 352 1301 321 1301 q 404 1285 385 1301 q 418 1229 423 1270 l 418 1221 q 391 1166 413 1181 q 337 1152 369 1152 m 585 1152 q 533 1166 552 1152 q 519 1221 514 1181 l 519 1229 q 545 1285 524 1270 q 600 1301 567 1301 q 651 1285 631 1301 q 665 1229 670 1270 l 665 1221 q 638 1166 660 1181 q 585 1152 616 1152 z "},"Ĩ":{"ha":788,"x_min":71,"x_max":717,"o":"m 71 0 l 82 105 l 293 105 l 376 905 l 165 905 l 177 1010 l 717 1010 l 706 905 l 495 905 l 412 105 l 622 105 l 611 0 l 71 0 m 545 1149 q 482 1172 505 1149 q 444 1223 458 1196 q 417 1274 429 1251 q 385 1297 404 1297 q 345 1268 361 1297 q 324 1176 330 1240 l 323 1162 l 235 1162 l 236 1181 q 290 1336 246 1274 q 403 1399 333 1399 q 470 1376 446 1399 q 508 1326 495 1352 q 533 1275 521 1298 q 562 1251 544 1251 q 601 1280 585 1251 q 624 1372 617 1308 l 625 1386 l 712 1386 l 711 1367 q 657 1211 701 1273 q 545 1149 614 1149 z "},"Ī":{"ha":788,"x_min":71,"x_max":717,"o":"m 71 0 l 82 105 l 293 105 l 376 905 l 165 905 l 177 1010 l 717 1010 l 706 905 l 495 905 l 412 105 l 622 105 l 611 0 l 71 0 m 253 1210 l 263 1316 l 692 1316 l 682 1210 l 253 1210 z "},"Ĭ":{"ha":788,"x_min":71,"x_max":736,"o":"m 71 0 l 82 105 l 293 105 l 376 905 l 165 905 l 177 1010 l 717 1010 l 706 905 l 495 905 l 412 105 l 622 105 l 611 0 l 71 0 m 458 1128 q 283 1191 343 1128 q 236 1389 222 1254 l 350 1389 q 371 1260 341 1298 q 468 1222 400 1222 q 574 1260 537 1222 q 622 1389 611 1298 l 736 1389 q 646 1191 720 1254 q 458 1128 573 1128 z "},"Į":{"ha":788,"x_min":71,"x_max":717,"o":"m 71 0 l 82 105 l 293 105 l 376 905 l 165 905 l 177 1010 l 717 1010 l 706 905 l 495 905 l 412 105 l 622 105 l 611 0 l 71 0 m 390 -270 q 278 -230 321 -270 q 244 -121 236 -191 q 297 -15 250 -63 q 396 56 343 33 l 420 29 q 366 -30 381 3 q 348 -87 351 -62 q 362 -141 345 -122 q 415 -160 380 -160 q 463 -157 436 -160 q 513 -148 491 -153 l 501 -258 q 446 -266 477 -263 q 390 -270 414 -270 z "},"İ":{"ha":788,"x_min":71,"x_max":717,"o":"m 71 0 l 82 105 l 293 105 l 376 905 l 165 905 l 177 1010 l 717 1010 l 706 905 l 495 905 l 412 105 l 622 105 l 611 0 l 71 0 m 461 1152 q 393 1166 418 1152 q 372 1221 367 1181 l 372 1229 q 405 1285 378 1270 q 476 1301 433 1301 q 544 1285 519 1301 q 564 1229 569 1270 l 564 1221 q 531 1166 559 1181 q 461 1152 503 1152 z "},"J":{"ha":788,"x_min":53,"x_max":715,"o":"m 321 -13 q 114 66 174 -13 q 66 321 53 144 l 186 335 q 208 142 178 192 q 332 92 237 92 q 464 146 417 92 q 523 308 511 199 l 585 905 l 370 905 l 381 1010 l 715 1010 l 641 312 q 542 71 625 154 q 321 -13 460 -13 z "},"Ĵ":{"ha":788,"x_min":53,"x_max":797,"o":"m 321 -13 q 114 66 174 -13 q 66 321 53 144 l 186 335 q 208 142 178 192 q 332 92 237 92 q 464 146 417 92 q 523 308 511 199 l 585 905 l 370 905 l 381 1010 l 715 1010 l 641 312 q 542 71 625 154 q 321 -13 460 -13 m 366 1153 l 322 1222 l 534 1409 l 620 1409 l 797 1222 l 737 1153 l 566 1292 l 366 1153 z "},"K":{"ha":788,"x_min":71,"x_max":777,"o":"m 240 486 l 189 0 l 71 0 l 177 1010 l 295 1010 l 251 592 l 288 592 l 641 1010 l 777 1010 l 372 545 l 667 0 l 529 0 l 280 486 l 240 486 z "},"Ķ":{"ha":788,"x_min":71,"x_max":777,"o":"m 240 486 l 189 0 l 71 0 l 177 1010 l 295 1010 l 251 592 l 288 592 l 641 1010 l 777 1010 l 372 545 l 667 0 l 529 0 l 280 486 l 240 486 m 158 -379 l 282 -126 l 453 -126 l 259 -379 l 158 -379 z "},"L":{"ha":788,"x_min":124,"x_max":622,"o":"m 124 0 l 230 1010 l 348 1010 l 254 105 l 622 105 l 611 0 l 124 0 z "},"Ĺ":{"ha":788,"x_min":124,"x_max":622,"o":"m 124 0 l 230 1010 l 348 1010 l 254 105 l 622 105 l 611 0 l 124 0 m 277 1136 l 442 1389 l 614 1389 l 378 1136 l 277 1136 z "},"Ļ":{"ha":788,"x_min":124,"x_max":622,"o":"m 124 0 l 230 1010 l 348 1010 l 254 105 l 622 105 l 611 0 l 124 0 m 174 -379 l 298 -126 l 470 -126 l 275 -379 l 174 -379 z "},"Ľ":{"ha":788,"x_min":124,"x_max":761,"o":"m 124 0 l 230 1010 l 348 1010 l 254 105 l 622 105 l 611 0 l 124 0 m 473 638 l 593 1010 l 761 1010 l 554 638 l 473 638 z "},"M":{"ha":788,"x_min":37,"x_max":751,"o":"m 313 246 l 227 824 l 143 0 l 37 0 l 143 1010 l 292 1010 l 386 399 l 607 1010 l 751 1010 l 645 0 l 539 0 l 628 819 l 419 246 l 313 246 z "},"N":{"ha":788,"x_min":71,"x_max":717,"o":"m 448 0 l 266 866 l 176 0 l 71 0 l 177 1010 l 332 1010 l 520 138 l 612 1010 l 717 1010 l 611 0 l 448 0 z "},"Ñ":{"ha":788,"x_min":71,"x_max":730,"o":"m 448 0 l 266 866 l 176 0 l 71 0 l 177 1010 l 332 1010 l 520 138 l 612 1010 l 717 1010 l 611 0 l 448 0 m 563 1149 q 499 1172 523 1149 q 462 1223 476 1196 q 434 1274 447 1251 q 403 1297 422 1297 q 363 1268 379 1297 q 342 1176 347 1240 l 341 1162 l 253 1162 l 254 1181 q 307 1336 264 1274 q 420 1399 351 1399 q 488 1376 463 1399 q 525 1326 513 1352 q 551 1275 539 1298 q 580 1251 562 1251 q 619 1280 602 1251 q 641 1372 635 1308 l 643 1386 l 730 1386 l 729 1367 q 675 1211 718 1273 q 563 1149 631 1149 z "},"Ń":{"ha":788,"x_min":71,"x_max":717,"o":"m 448 0 l 266 866 l 176 0 l 71 0 l 177 1010 l 332 1010 l 520 138 l 612 1010 l 717 1010 l 611 0 l 448 0 m 360 1136 l 525 1389 l 697 1389 l 461 1136 l 360 1136 z "},"Ņ":{"ha":788,"x_min":71,"x_max":717,"o":"m 138 -379 l 261 -126 l 433 -126 l 239 -379 l 138 -379 m 448 0 l 266 866 l 176 0 l 71 0 l 177 1010 l 332 1010 l 520 138 l 612 1010 l 717 1010 l 611 0 l 448 0 z "},"Ň":{"ha":788,"x_min":71,"x_max":735,"o":"m 448 0 l 266 866 l 176 0 l 71 0 l 177 1010 l 332 1010 l 520 138 l 612 1010 l 717 1010 l 611 0 l 448 0 m 436 1141 l 260 1328 l 318 1398 l 491 1259 l 689 1398 l 735 1328 l 521 1141 l 436 1141 z "},"O":{"ha":788,"x_min":69,"x_max":718,"o":"m 340 -13 q 134 77 199 -13 q 87 337 69 167 l 122 668 q 224 932 140 841 q 449 1023 308 1023 q 654 932 590 1023 q 701 668 718 841 l 665 337 q 564 77 648 167 q 340 -13 481 -13 m 351 92 q 488 148 443 92 q 547 335 533 203 l 582 670 q 563 862 596 806 q 437 918 529 918 q 300 862 345 918 q 241 670 255 806 l 206 335 q 225 148 192 203 q 351 92 259 92 z "},"Ò":{"ha":788,"x_min":69,"x_max":718,"o":"m 340 -13 q 134 77 199 -13 q 87 337 69 167 l 122 668 q 224 932 140 841 q 449 1023 308 1023 q 654 932 590 1023 q 701 668 718 841 l 665 337 q 564 77 648 167 q 340 -13 481 -13 m 351 92 q 488 148 443 92 q 547 335 533 203 l 582 670 q 563 862 596 806 q 437 918 529 918 q 300 862 345 918 q 241 670 255 806 l 206 335 q 225 148 192 203 q 351 92 259 92 m 458 1136 l 275 1389 l 446 1389 l 559 1136 l 458 1136 z "},"Ó":{"ha":788,"x_min":69,"x_max":718,"o":"m 340 -13 q 134 77 199 -13 q 87 337 69 167 l 122 668 q 224 932 140 841 q 449 1023 308 1023 q 654 932 590 1023 q 701 668 718 841 l 665 337 q 564 77 648 167 q 340 -13 481 -13 m 351 92 q 488 148 443 92 q 547 335 533 203 l 582 670 q 563 862 596 806 q 437 918 529 918 q 300 862 345 918 q 241 670 255 806 l 206 335 q 225 148 192 203 q 351 92 259 92 m 378 1136 l 543 1389 l 715 1389 l 479 1136 l 378 1136 z "},"Ô":{"ha":788,"x_min":69,"x_max":718,"o":"m 340 -13 q 134 77 199 -13 q 87 337 69 167 l 122 668 q 224 932 140 841 q 449 1023 308 1023 q 654 932 590 1023 q 701 668 718 841 l 665 337 q 564 77 648 167 q 340 -13 481 -13 m 351 92 q 488 148 443 92 q 547 335 533 203 l 582 670 q 563 862 596 806 q 437 918 529 918 q 300 862 345 918 q 241 670 255 806 l 206 335 q 225 148 192 203 q 351 92 259 92 m 275 1153 l 231 1222 l 443 1409 l 529 1409 l 706 1222 l 646 1153 l 475 1292 l 275 1153 z "},"Õ":{"ha":788,"x_min":69,"x_max":718,"o":"m 340 -13 q 134 77 199 -13 q 87 337 69 167 l 122 668 q 224 932 140 841 q 449 1023 308 1023 q 654 932 590 1023 q 701 668 718 841 l 665 337 q 564 77 648 167 q 340 -13 481 -13 m 351 92 q 488 148 443 92 q 547 335 533 203 l 582 670 q 563 862 596 806 q 437 918 529 918 q 300 862 345 918 q 241 670 255 806 l 206 335 q 225 148 192 203 q 351 92 259 92 m 545 1149 q 482 1172 505 1149 q 444 1223 458 1196 q 417 1274 429 1251 q 385 1297 404 1297 q 345 1268 361 1297 q 324 1176 330 1240 l 323 1162 l 235 1162 l 236 1181 q 290 1336 246 1274 q 403 1399 333 1399 q 470 1376 446 1399 q 508 1326 495 1352 q 533 1275 521 1298 q 562 1251 544 1251 q 601 1280 585 1251 q 624 1372 617 1308 l 625 1386 l 712 1386 l 711 1367 q 657 1211 701 1273 q 545 1149 614 1149 z "},"Ö":{"ha":788,"x_min":69,"x_max":718,"o":"m 340 -13 q 134 77 199 -13 q 87 337 69 167 l 122 668 q 224 932 140 841 q 449 1023 308 1023 q 654 932 590 1023 q 701 668 718 841 l 665 337 q 564 77 648 167 q 340 -13 481 -13 m 351 92 q 488 148 443 92 q 547 335 533 203 l 582 670 q 563 862 596 806 q 437 918 529 918 q 300 862 345 918 q 241 670 255 806 l 206 335 q 225 148 192 203 q 351 92 259 92 m 337 1152 q 286 1166 306 1152 q 271 1221 266 1181 l 271 1229 q 299 1285 277 1270 q 352 1301 321 1301 q 404 1285 385 1301 q 418 1229 423 1270 l 418 1221 q 391 1166 413 1181 q 337 1152 369 1152 m 585 1152 q 533 1166 552 1152 q 519 1221 514 1181 l 519 1229 q 545 1285 524 1270 q 600 1301 567 1301 q 651 1285 631 1301 q 665 1229 670 1270 l 665 1221 q 638 1166 660 1181 q 585 1152 616 1152 z "},"Ō":{"ha":788,"x_min":69,"x_max":718,"o":"m 340 -13 q 134 77 199 -13 q 87 337 69 167 l 122 668 q 224 932 140 841 q 449 1023 308 1023 q 654 932 590 1023 q 701 668 718 841 l 665 337 q 564 77 648 167 q 340 -13 481 -13 m 351 92 q 488 148 443 92 q 547 335 533 203 l 582 670 q 563 862 596 806 q 437 918 529 918 q 300 862 345 918 q 241 670 255 806 l 206 335 q 225 148 192 203 q 351 92 259 92 m 253 1210 l 263 1316 l 692 1316 l 682 1210 l 253 1210 z "},"Ŏ":{"ha":788,"x_min":69,"x_max":736,"o":"m 340 -13 q 134 77 199 -13 q 87 337 69 167 l 122 668 q 224 932 140 841 q 449 1023 308 1023 q 654 932 590 1023 q 701 668 718 841 l 665 337 q 564 77 648 167 q 340 -13 481 -13 m 351 92 q 488 148 443 92 q 547 335 533 203 l 582 670 q 563 862 596 806 q 437 918 529 918 q 300 862 345 918 q 241 670 255 806 l 206 335 q 225 148 192 203 q 351 92 259 92 m 458 1128 q 283 1191 343 1128 q 236 1389 222 1254 l 350 1389 q 371 1260 341 1298 q 468 1222 400 1222 q 574 1260 537 1222 q 622 1389 611 1298 l 736 1389 q 646 1191 720 1254 q 458 1128 573 1128 z "},"Ő":{"ha":788,"x_min":69,"x_max":758,"o":"m 340 -13 q 134 77 199 -13 q 87 337 69 167 l 122 668 q 224 932 140 841 q 449 1023 308 1023 q 654 932 590 1023 q 701 668 718 841 l 665 337 q 564 77 648 167 q 340 -13 481 -13 m 351 92 q 488 148 443 92 q 547 335 533 203 l 582 670 q 563 862 596 806 q 437 918 529 918 q 300 862 345 918 q 241 670 255 806 l 206 335 q 225 148 192 203 q 351 92 259 92 m 519 1136 l 604 1389 l 758 1389 l 598 1136 l 519 1136 m 277 1136 l 361 1389 l 515 1389 l 356 1136 l 277 1136 z "},"P":{"ha":788,"x_min":71,"x_max":731,"o":"m 71 0 l 177 1010 l 477 1010 q 674 946 616 1010 q 717 744 731 881 l 705 626 q 619 423 691 487 q 408 359 547 359 l 227 359 l 189 0 l 71 0 m 237 461 l 414 461 q 537 499 497 461 q 586 626 577 538 l 598 741 q 576 867 607 828 q 461 905 544 905 l 284 905 l 237 461 z "},"Q":{"ha":788,"x_min":69,"x_max":718,"o":"m 626 -239 q 392 -227 481 -273 q 317 -16 303 -182 q 129 81 188 -9 q 87 333 69 172 l 122 668 q 225 931 140 840 q 449 1023 309 1023 q 653 931 588 1023 q 701 668 718 840 l 665 333 q 590 106 650 193 q 429 -6 530 19 q 480 -131 423 -110 q 621 -134 538 -152 l 626 -239 m 351 95 q 488 148 443 95 q 545 324 533 201 l 582 676 q 563 858 596 803 q 437 913 529 913 q 300 858 345 913 q 241 676 255 803 l 205 324 q 225 148 192 201 q 351 95 259 95 z "},"R":{"ha":788,"x_min":71,"x_max":749,"o":"m 242 499 l 439 499 q 560 539 520 499 q 610 668 600 578 l 617 746 q 594 867 626 830 q 481 905 562 905 l 284 905 l 242 499 m 189 0 l 71 0 l 177 1010 l 499 1010 q 689 944 630 1010 q 735 745 749 878 l 727 668 q 657 482 715 549 q 497 400 600 415 l 668 0 l 535 0 l 367 395 l 231 395 l 189 0 z "},"Ŕ":{"ha":788,"x_min":71,"x_max":749,"o":"m 242 499 l 439 499 q 560 539 520 499 q 610 668 600 578 l 617 746 q 594 867 626 830 q 481 905 562 905 l 284 905 l 242 499 m 189 0 l 71 0 l 177 1010 l 499 1010 q 689 944 630 1010 q 735 745 749 878 l 727 668 q 657 482 715 549 q 497 400 600 415 l 668 0 l 535 0 l 367 395 l 231 395 l 189 0 m 410 1136 l 576 1389 l 747 1389 l 511 1136 l 410 1136 z "},"Ŗ":{"ha":788,"x_min":71,"x_max":749,"o":"m 242 499 l 439 499 q 560 539 520 499 q 610 668 600 578 l 617 746 q 594 867 626 830 q 481 905 562 905 l 284 905 l 242 499 m 189 0 l 71 0 l 177 1010 l 499 1010 q 689 944 630 1010 q 735 745 749 878 l 727 668 q 657 482 715 549 q 497 400 600 415 l 668 0 l 535 0 l 367 395 l 231 395 l 189 0 m 139 -379 l 263 -126 l 434 -126 l 240 -379 l 139 -379 z "},"Ř":{"ha":788,"x_min":71,"x_max":749,"o":"m 242 499 l 439 499 q 560 539 520 499 q 610 668 600 578 l 617 746 q 594 867 626 830 q 481 905 562 905 l 284 905 l 242 499 m 189 0 l 71 0 l 177 1010 l 499 1010 q 689 944 630 1010 q 735 745 749 878 l 727 668 q 657 482 715 549 q 497 400 600 415 l 668 0 l 535 0 l 367 395 l 231 395 l 189 0 m 420 1141 l 245 1328 l 303 1398 l 476 1259 l 674 1398 l 720 1328 l 506 1141 l 420 1141 z "},"S":{"ha":788,"x_min":45,"x_max":716,"o":"m 348 -10 q 179 23 259 -10 q 45 119 100 56 l 109 212 q 223 124 158 154 q 369 95 289 95 q 503 140 451 95 q 563 264 554 186 q 533 372 571 333 q 370 463 495 412 q 171 585 222 521 q 131 754 120 648 q 226 946 144 879 q 432 1014 308 1014 q 592 980 515 1014 q 716 885 668 947 l 657 790 q 546 879 609 848 q 419 909 484 909 q 302 872 348 909 q 249 763 256 835 q 283 660 242 698 q 455 569 324 621 q 646 453 596 515 q 684 285 696 391 q 574 68 669 146 q 348 -10 480 -10 z "},"":{"ha":788,"x_min":45,"x_max":716,"o":"m 348 -10 q 179 23 259 -10 q 45 119 100 56 l 109 212 q 223 124 158 154 q 369 95 289 95 q 503 140 451 95 q 563 264 554 186 q 533 372 571 333 q 370 463 495 412 q 171 585 222 521 q 131 754 120 648 q 226 946 144 879 q 432 1014 308 1014 q 592 980 515 1014 q 716 885 668 947 l 657 790 q 546 879 609 848 q 419 909 484 909 q 302 872 348 909 q 249 763 256 835 q 283 660 242 698 q 455 569 324 621 q 646 453 596 515 q 684 285 696 391 q 574 68 669 146 q 348 -10 480 -10 z "},"Ś":{"ha":788,"x_min":45,"x_max":716,"o":"m 348 -10 q 179 23 259 -10 q 45 119 100 56 l 109 212 q 223 124 158 154 q 369 95 289 95 q 503 140 451 95 q 563 264 554 186 q 533 372 571 333 q 370 463 495 412 q 171 585 222 521 q 131 754 120 648 q 226 946 144 879 q 432 1014 308 1014 q 592 980 515 1014 q 716 885 668 947 l 657 790 q 546 879 609 848 q 419 909 484 909 q 302 872 348 909 q 249 763 256 835 q 283 660 242 698 q 455 569 324 621 q 646 453 596 515 q 684 285 696 391 q 574 68 669 146 q 348 -10 480 -10 m 338 1136 l 504 1389 l 676 1389 l 439 1136 l 338 1136 z "},"Ŝ":{"ha":788,"x_min":45,"x_max":716,"o":"m 348 -10 q 179 23 259 -10 q 45 119 100 56 l 109 212 q 223 124 158 154 q 369 95 289 95 q 503 140 451 95 q 563 264 554 186 q 533 372 571 333 q 370 463 495 412 q 171 585 222 521 q 131 754 120 648 q 226 946 144 879 q 432 1014 308 1014 q 592 980 515 1014 q 716 885 668 947 l 657 790 q 546 879 609 848 q 419 909 484 909 q 302 872 348 909 q 249 763 256 835 q 283 660 242 698 q 455 569 324 621 q 646 453 596 515 q 684 285 696 391 q 574 68 669 146 q 348 -10 480 -10 m 277 1153 l 232 1222 l 444 1409 l 530 1409 l 707 1222 l 648 1153 l 476 1292 l 277 1153 z "},"Ş":{"ha":788,"x_min":45,"x_max":716,"o":"m 348 -10 q 179 23 259 -10 q 45 119 100 56 l 109 212 q 223 124 158 154 q 369 95 289 95 q 503 140 451 95 q 563 264 554 186 q 533 372 571 333 q 370 463 495 412 q 171 585 222 521 q 131 754 120 648 q 226 946 144 879 q 432 1014 308 1014 q 592 980 515 1014 q 716 885 668 947 l 657 790 q 546 879 609 848 q 419 909 484 909 q 302 872 348 909 q 249 763 256 835 q 283 660 242 698 q 455 569 324 621 q 646 453 596 515 q 684 285 696 391 q 574 68 669 146 q 348 -10 480 -10 m 311 0 l 336 53 q 433 0 398 40 q 460 -115 468 -40 q 397 -234 452 -196 q 279 -271 342 -271 q 164 -242 207 -271 q 122 -141 120 -212 l 227 -129 q 240 -162 226 -153 q 285 -172 254 -172 q 334 -156 317 -172 q 356 -97 351 -140 q 350 -31 361 -52 q 311 0 340 -10 z "},"Š":{"ha":788,"x_min":45,"x_max":718,"o":"m 348 -10 q 179 23 259 -10 q 45 119 100 56 l 109 212 q 223 124 158 154 q 369 95 289 95 q 503 140 451 95 q 563 264 554 186 q 533 372 571 333 q 370 463 495 412 q 171 585 222 521 q 131 754 120 648 q 226 946 144 879 q 432 1014 308 1014 q 592 980 515 1014 q 716 885 668 947 l 657 790 q 546 879 609 848 q 419 909 484 909 q 302 872 348 909 q 249 763 256 835 q 283 660 242 698 q 455 569 324 621 q 646 453 596 515 q 684 285 696 391 q 574 68 669 146 q 348 -10 480 -10 m 419 1141 l 244 1328 l 302 1398 l 475 1259 l 673 1398 l 718 1328 l 505 1141 l 419 1141 z "},"Ș":{"ha":788,"x_min":45,"x_max":716,"o":"m 348 -10 q 179 23 259 -10 q 45 119 100 56 l 109 212 q 223 124 158 154 q 369 95 289 95 q 503 140 451 95 q 563 264 554 186 q 533 372 571 333 q 370 463 495 412 q 171 585 222 521 q 131 754 120 648 q 226 946 144 879 q 432 1014 308 1014 q 592 980 515 1014 q 716 885 668 947 l 657 790 q 546 879 609 848 q 419 909 484 909 q 302 872 348 909 q 249 763 256 835 q 283 660 242 698 q 455 569 324 621 q 646 453 596 515 q 684 285 696 391 q 574 68 669 146 q 348 -10 480 -10 m 135 -379 l 259 -126 l 431 -126 l 236 -379 l 135 -379 z "},"T":{"ha":788,"x_min":120,"x_max":764,"o":"m 282 0 l 376 905 l 120 905 l 131 1010 l 764 1010 l 753 905 l 495 905 l 400 0 l 282 0 z "},"Ţ":{"ha":788,"x_min":105,"x_max":764,"o":"m 282 0 l 376 905 l 120 905 l 131 1010 l 764 1010 l 753 905 l 495 905 l 400 0 l 282 0 m 295 0 l 321 53 q 418 0 383 40 q 444 -115 453 -40 q 382 -234 437 -196 q 264 -271 327 -271 q 148 -242 192 -271 q 107 -141 105 -212 l 212 -129 q 225 -162 211 -153 q 270 -172 239 -172 q 319 -156 302 -172 q 341 -97 336 -140 q 335 -31 346 -52 q 295 0 324 -10 z "},"Ť":{"ha":788,"x_min":120,"x_max":764,"o":"m 282 0 l 376 905 l 120 905 l 131 1010 l 764 1010 l 753 905 l 495 905 l 400 0 l 282 0 m 418 1141 l 242 1328 l 301 1398 l 473 1259 l 672 1398 l 717 1328 l 504 1141 l 418 1141 z "},"Ț":{"ha":788,"x_min":120,"x_max":764,"o":"m 282 0 l 376 905 l 120 905 l 131 1010 l 764 1010 l 753 905 l 495 905 l 400 0 l 282 0 m 134 -379 l 258 -126 l 429 -126 l 235 -379 l 134 -379 z "},"U":{"ha":788,"x_min":87,"x_max":717,"o":"m 340 -13 q 145 73 203 -13 q 106 333 87 158 l 177 1010 l 295 1010 l 223 328 q 239 145 210 197 q 351 92 268 92 q 473 145 434 92 q 527 328 513 197 l 598 1010 l 717 1010 l 646 333 q 552 73 628 158 q 340 -13 476 -13 z "},"Ù":{"ha":788,"x_min":87,"x_max":717,"o":"m 340 -13 q 145 73 203 -13 q 106 333 87 158 l 177 1010 l 295 1010 l 223 328 q 239 145 210 197 q 351 92 268 92 q 473 145 434 92 q 527 328 513 197 l 598 1010 l 717 1010 l 646 333 q 552 73 628 158 q 340 -13 476 -13 m 458 1136 l 275 1389 l 446 1389 l 559 1136 l 458 1136 z "},"Ú":{"ha":788,"x_min":87,"x_max":717,"o":"m 340 -13 q 145 73 203 -13 q 106 333 87 158 l 177 1010 l 295 1010 l 223 328 q 239 145 210 197 q 351 92 268 92 q 473 145 434 92 q 527 328 513 197 l 598 1010 l 717 1010 l 646 333 q 552 73 628 158 q 340 -13 476 -13 m 337 1136 l 503 1389 l 674 1389 l 438 1136 l 337 1136 z "},"Û":{"ha":788,"x_min":87,"x_max":717,"o":"m 340 -13 q 145 73 203 -13 q 106 333 87 158 l 177 1010 l 295 1010 l 223 328 q 239 145 210 197 q 351 92 268 92 q 473 145 434 92 q 527 328 513 197 l 598 1010 l 717 1010 l 646 333 q 552 73 628 158 q 340 -13 476 -13 m 275 1153 l 231 1222 l 443 1409 l 529 1409 l 706 1222 l 646 1153 l 475 1292 l 275 1153 z "},"Ü":{"ha":788,"x_min":87,"x_max":717,"o":"m 340 -13 q 145 73 203 -13 q 106 333 87 158 l 177 1010 l 295 1010 l 223 328 q 239 145 210 197 q 351 92 268 92 q 473 145 434 92 q 527 328 513 197 l 598 1010 l 717 1010 l 646 333 q 552 73 628 158 q 340 -13 476 -13 m 337 1152 q 286 1166 306 1152 q 271 1221 266 1181 l 271 1229 q 299 1285 277 1270 q 352 1301 321 1301 q 404 1285 385 1301 q 418 1229 423 1270 l 418 1221 q 391 1166 413 1181 q 337 1152 369 1152 m 585 1152 q 533 1166 552 1152 q 519 1221 514 1181 l 519 1229 q 545 1285 524 1270 q 600 1301 567 1301 q 651 1285 631 1301 q 665 1229 670 1270 l 665 1221 q 638 1166 660 1181 q 585 1152 616 1152 z "},"Ũ":{"ha":788,"x_min":87,"x_max":717,"o":"m 340 -13 q 145 73 203 -13 q 106 333 87 158 l 177 1010 l 295 1010 l 223 328 q 239 145 210 197 q 351 92 268 92 q 473 145 434 92 q 527 328 513 197 l 598 1010 l 717 1010 l 646 333 q 552 73 628 158 q 340 -13 476 -13 m 545 1149 q 482 1172 505 1149 q 444 1223 458 1196 q 417 1274 429 1251 q 385 1297 404 1297 q 345 1268 361 1297 q 324 1176 330 1240 l 323 1162 l 235 1162 l 236 1181 q 290 1336 246 1274 q 403 1399 333 1399 q 470 1376 446 1399 q 508 1326 495 1352 q 533 1275 521 1298 q 562 1251 544 1251 q 601 1280 585 1251 q 624 1372 617 1308 l 625 1386 l 712 1386 l 711 1367 q 657 1211 701 1273 q 545 1149 614 1149 z "},"Ū":{"ha":788,"x_min":87,"x_max":717,"o":"m 340 -13 q 145 73 203 -13 q 106 333 87 158 l 177 1010 l 295 1010 l 223 328 q 239 145 210 197 q 351 92 268 92 q 473 145 434 92 q 527 328 513 197 l 598 1010 l 717 1010 l 646 333 q 552 73 628 158 q 340 -13 476 -13 m 253 1210 l 263 1316 l 692 1316 l 682 1210 l 253 1210 z "},"Ŭ":{"ha":788,"x_min":87,"x_max":736,"o":"m 340 -13 q 145 73 203 -13 q 106 333 87 158 l 177 1010 l 295 1010 l 223 328 q 239 145 210 197 q 351 92 268 92 q 473 145 434 92 q 527 328 513 197 l 598 1010 l 717 1010 l 646 333 q 552 73 628 158 q 340 -13 476 -13 m 458 1128 q 283 1191 343 1128 q 236 1389 222 1254 l 350 1389 q 371 1260 341 1298 q 468 1222 400 1222 q 574 1260 537 1222 q 622 1389 611 1298 l 736 1389 q 646 1191 720 1254 q 458 1128 573 1128 z "},"Ů":{"ha":788,"x_min":87,"x_max":717,"o":"m 340 -13 q 145 73 203 -13 q 106 333 87 158 l 177 1010 l 295 1010 l 223 328 q 239 145 210 197 q 351 92 268 92 q 473 145 434 92 q 527 328 513 197 l 598 1010 l 717 1010 l 646 333 q 552 73 628 158 q 340 -13 476 -13 m 457 1119 q 335 1164 379 1119 q 301 1301 292 1208 l 306 1341 q 368 1480 314 1434 q 500 1527 422 1527 q 622 1480 580 1527 q 657 1341 665 1434 l 652 1301 q 589 1164 643 1208 q 457 1119 535 1119 m 466 1206 q 532 1227 508 1206 q 561 1301 556 1249 l 566 1341 q 552 1415 571 1391 q 491 1439 533 1439 q 425 1415 448 1439 q 396 1341 402 1391 l 391 1301 q 405 1227 386 1249 q 466 1206 423 1206 z "},"Ű":{"ha":788,"x_min":87,"x_max":768,"o":"m 340 -13 q 145 73 203 -13 q 106 333 87 158 l 177 1010 l 295 1010 l 223 328 q 239 145 210 197 q 351 92 268 92 q 473 145 434 92 q 527 328 513 197 l 598 1010 l 717 1010 l 646 333 q 552 73 628 158 q 340 -13 476 -13 m 529 1136 l 614 1389 l 768 1389 l 609 1136 l 529 1136 m 287 1136 l 371 1389 l 525 1389 l 366 1136 l 287 1136 z "},"Ų":{"ha":788,"x_min":87,"x_max":717,"o":"m 385 -270 q 273 -230 316 -270 q 239 -121 231 -191 q 292 -15 245 -63 q 391 56 338 33 l 415 29 q 361 -30 376 3 q 343 -87 346 -62 q 357 -141 340 -122 q 410 -160 375 -160 q 458 -157 431 -160 q 508 -148 486 -153 l 496 -258 q 441 -266 472 -263 q 385 -270 409 -270 m 340 -13 q 145 73 203 -13 q 106 333 87 158 l 177 1010 l 295 1010 l 223 328 q 239 145 210 197 q 351 92 268 92 q 473 145 434 92 q 527 328 513 197 l 598 1010 l 717 1010 l 646 333 q 552 73 628 158 q 340 -13 476 -13 z "},"V":{"ha":788,"x_min":116,"x_max":779,"o":"m 408 0 l 275 0 l 116 1010 l 241 1010 l 360 164 l 657 1010 l 779 1010 l 408 0 z "},"W":{"ha":788,"x_min":102,"x_max":793,"o":"m 458 0 l 404 606 l 223 0 l 109 0 l 102 1010 l 215 1010 l 201 187 l 365 758 l 480 758 l 525 186 l 684 1010 l 793 1010 l 573 0 l 458 0 z "},"Ŵ":{"ha":788,"x_min":102,"x_max":793,"o":"m 458 0 l 404 606 l 223 0 l 109 0 l 102 1010 l 215 1010 l 201 187 l 365 758 l 480 758 l 525 186 l 684 1010 l 793 1010 l 573 0 l 458 0 m 275 1153 l 231 1222 l 443 1409 l 529 1409 l 706 1222 l 646 1153 l 475 1292 l 275 1153 z "},"Ẁ":{"ha":788,"x_min":102,"x_max":793,"o":"m 458 0 l 404 606 l 223 0 l 109 0 l 102 1010 l 215 1010 l 201 187 l 365 758 l 480 758 l 525 186 l 684 1010 l 793 1010 l 573 0 l 458 0 m 467 1136 l 284 1389 l 455 1389 l 568 1136 l 467 1136 z "},"Ẃ":{"ha":788,"x_min":102,"x_max":793,"o":"m 458 0 l 404 606 l 223 0 l 109 0 l 102 1010 l 215 1010 l 201 187 l 365 758 l 480 758 l 525 186 l 684 1010 l 793 1010 l 573 0 l 458 0 m 346 1136 l 511 1389 l 683 1389 l 447 1136 l 346 1136 z "},"Ẅ":{"ha":788,"x_min":102,"x_max":793,"o":"m 458 0 l 404 606 l 223 0 l 109 0 l 102 1010 l 215 1010 l 201 187 l 365 758 l 480 758 l 525 186 l 684 1010 l 793 1010 l 573 0 l 458 0 m 338 1152 q 287 1166 307 1152 q 273 1221 268 1181 l 273 1229 q 300 1285 278 1270 q 354 1301 322 1301 q 405 1285 386 1301 q 419 1229 424 1270 l 419 1221 q 392 1166 414 1181 q 338 1152 370 1152 m 586 1152 q 534 1166 553 1152 q 520 1221 515 1181 l 520 1229 q 547 1285 525 1270 q 601 1301 568 1301 q 652 1285 633 1301 q 667 1229 672 1270 l 667 1221 q 640 1166 662 1181 q 586 1152 617 1152 z "},"X":{"ha":788,"x_min":-6,"x_max":797,"o":"m 556 0 l 384 403 l 126 0 l -6 0 l 336 516 l 126 1010 l 259 1010 l 420 630 l 664 1010 l 797 1010 l 468 516 l 687 0 l 556 0 z "},"Y":{"ha":788,"x_min":93,"x_max":801,"o":"m 400 0 l 282 0 l 322 379 l 93 1010 l 222 1010 l 399 497 l 673 1010 l 801 1010 l 441 379 l 400 0 z "},"Ý":{"ha":788,"x_min":93,"x_max":801,"o":"m 400 0 l 282 0 l 322 379 l 93 1010 l 222 1010 l 399 497 l 673 1010 l 801 1010 l 441 379 l 400 0 m 337 1136 l 503 1389 l 674 1389 l 438 1136 l 337 1136 z "},"Ŷ":{"ha":788,"x_min":93,"x_max":801,"o":"m 400 0 l 282 0 l 322 379 l 93 1010 l 222 1010 l 399 497 l 673 1010 l 801 1010 l 441 379 l 400 0 m 275 1153 l 231 1222 l 443 1409 l 529 1409 l 706 1222 l 646 1153 l 475 1292 l 275 1153 z "},"Ÿ":{"ha":788,"x_min":93,"x_max":801,"o":"m 400 0 l 282 0 l 322 379 l 93 1010 l 222 1010 l 399 497 l 673 1010 l 801 1010 l 441 379 l 400 0 m 337 1152 q 286 1166 306 1152 q 271 1221 266 1181 l 271 1229 q 299 1285 277 1270 q 352 1301 321 1301 q 404 1285 385 1301 q 418 1229 423 1270 l 418 1221 q 391 1166 413 1181 q 337 1152 369 1152 m 585 1152 q 533 1166 552 1152 q 519 1221 514 1181 l 519 1229 q 545 1285 524 1270 q 600 1301 567 1301 q 651 1285 631 1301 q 665 1229 670 1270 l 665 1221 q 638 1166 660 1181 q 585 1152 616 1152 z "},"Ỳ":{"ha":788,"x_min":93,"x_max":801,"o":"m 400 0 l 282 0 l 322 379 l 93 1010 l 222 1010 l 399 497 l 673 1010 l 801 1010 l 441 379 l 400 0 m 458 1136 l 275 1389 l 446 1389 l 559 1136 l 458 1136 z "},"Z":{"ha":788,"x_min":52,"x_max":736,"o":"m 630 0 l 52 0 l 63 105 l 592 905 l 146 905 l 158 1010 l 736 1010 l 725 905 l 199 105 l 641 105 l 630 0 z "},"Ź":{"ha":788,"x_min":52,"x_max":736,"o":"m 630 0 l 52 0 l 63 105 l 592 905 l 146 905 l 158 1010 l 736 1010 l 725 905 l 199 105 l 641 105 l 630 0 m 369 1136 l 534 1389 l 706 1389 l 470 1136 l 369 1136 z "},"Ż":{"ha":788,"x_min":52,"x_max":736,"o":"m 630 0 l 52 0 l 63 105 l 592 905 l 146 905 l 158 1010 l 736 1010 l 725 905 l 199 105 l 641 105 l 630 0 m 461 1152 q 393 1166 418 1152 q 372 1221 367 1181 l 372 1229 q 405 1285 378 1270 q 476 1301 433 1301 q 544 1285 519 1301 q 564 1229 569 1270 l 564 1221 q 531 1166 559 1181 q 461 1152 503 1152 z "},"Ž":{"ha":788,"x_min":52,"x_max":736,"o":"m 630 0 l 52 0 l 63 105 l 592 905 l 146 905 l 158 1010 l 736 1010 l 725 905 l 199 105 l 641 105 l 630 0 m 418 1141 l 242 1328 l 301 1398 l 473 1259 l 672 1398 l 717 1328 l 504 1141 l 418 1141 z "},"Æ":{"ha":788,"x_min":-27,"x_max":804,"o":"m 381 918 l 203 390 l 388 390 l 443 918 l 381 918 m 379 297 l 173 297 l 72 0 l -27 0 l 331 1010 l 804 1010 l 794 918 l 549 918 l 515 590 l 749 590 l 739 496 l 505 496 l 463 92 l 708 92 l 698 0 l 347 0 l 379 297 z "},"Ǽ":{"ha":788,"x_min":-27,"x_max":809,"o":"m 381 918 l 203 390 l 388 390 l 443 918 l 381 918 m 379 297 l 173 297 l 72 0 l -27 0 l 331 1010 l 804 1010 l 794 918 l 549 918 l 515 590 l 749 590 l 739 496 l 505 496 l 463 92 l 708 92 l 698 0 l 347 0 l 379 297 m 472 1136 l 638 1389 l 809 1389 l 573 1136 l 472 1136 z "},"Ð":{"ha":788,"x_min":25,"x_max":716,"o":"m 71 0 l 124 500 l 25 500 l 37 611 l 135 611 l 177 1010 l 420 1010 q 641 915 567 1010 q 699 659 716 819 l 667 346 q 555 94 650 188 q 313 0 460 0 l 71 0 m 201 105 l 322 105 q 478 168 420 105 q 548 343 535 231 l 581 662 q 549 840 593 775 q 405 905 504 905 l 284 905 l 254 611 l 405 611 l 394 500 l 242 500 l 201 105 z "},"Ø":{"ha":788,"x_min":52,"x_max":717,"o":"m 207 189 l 514 905 q 480 915 499 912 q 437 918 461 918 q 298 862 343 918 q 239 674 253 807 l 203 331 q 199 251 198 287 q 207 189 201 216 m 351 92 q 491 146 446 92 q 549 331 535 201 l 585 674 q 588 771 591 730 q 574 841 586 813 l 260 111 q 301 97 278 102 q 351 92 323 92 m 340 -13 q 278 -8 307 -13 q 225 8 249 -3 l 162 -126 l 52 -126 l 141 68 q 92 179 106 111 q 87 335 78 247 l 122 670 q 225 932 140 841 q 449 1023 309 1023 q 503 1019 477 1023 q 549 1008 528 1015 l 607 1136 l 717 1136 l 635 953 q 694 838 678 910 q 701 670 711 766 l 665 335 q 563 77 648 167 q 340 -13 479 -13 z "},"Ǿ":{"ha":788,"x_min":52,"x_max":717,"o":"m 207 189 l 514 905 q 480 915 499 912 q 437 918 461 918 q 298 862 343 918 q 239 674 253 807 l 203 331 q 199 251 198 287 q 207 189 201 216 m 351 92 q 491 146 446 92 q 549 331 535 201 l 585 674 q 588 771 591 730 q 574 841 586 813 l 260 111 q 301 97 278 102 q 351 92 323 92 m 340 -13 q 278 -8 307 -13 q 225 8 249 -3 l 162 -126 l 52 -126 l 141 68 q 92 179 106 111 q 87 335 78 247 l 122 670 q 225 932 140 841 q 449 1023 309 1023 q 503 1019 477 1023 q 549 1008 528 1015 l 607 1136 l 717 1136 l 635 953 q 694 838 678 910 q 701 670 711 766 l 665 335 q 563 77 648 167 q 340 -13 479 -13 m 378 1136 l 543 1389 l 715 1389 l 479 1136 l 378 1136 z "},"Þ":{"ha":788,"x_min":71,"x_max":713,"o":"m 71 0 l 177 1010 l 295 1010 l 278 845 l 460 845 q 652 777 591 845 q 699 578 713 708 l 688 470 q 598 264 674 335 q 390 193 521 193 l 210 193 l 189 0 l 71 0 m 221 297 l 398 297 q 520 335 481 297 q 569 466 559 374 l 581 581 q 558 703 590 667 q 443 739 527 739 l 266 739 l 221 297 z "},"Đ":{"ha":788,"x_min":25,"x_max":716,"o":"m 71 0 l 124 500 l 25 500 l 37 611 l 135 611 l 177 1010 l 420 1010 q 641 915 567 1010 q 699 659 716 819 l 667 346 q 555 94 650 188 q 313 0 460 0 l 71 0 m 201 105 l 322 105 q 478 168 420 105 q 548 343 535 231 l 581 662 q 549 840 593 775 q 405 905 504 905 l 284 905 l 254 611 l 405 611 l 394 500 l 242 500 l 201 105 z "},"Ħ":{"ha":788,"x_min":40,"x_max":803,"o":"m 246 544 l 549 544 l 567 708 l 264 708 l 246 544 m 235 438 l 189 0 l 71 0 l 145 708 l 40 708 l 52 818 l 157 818 l 177 1010 l 295 1010 l 275 818 l 578 818 l 598 1010 l 717 1010 l 697 818 l 803 818 l 792 708 l 686 708 l 611 0 l 492 0 l 538 438 l 235 438 z "},"Ĳ":{"ha":788,"x_min":33,"x_max":756,"o":"m 145 0 l 33 0 l 139 1010 l 251 1010 l 145 0 m 438 -13 q 294 63 337 -13 q 263 323 251 139 l 376 337 q 382 145 367 194 q 449 95 396 95 q 532 150 504 95 q 569 304 559 206 l 633 905 l 441 905 l 452 1010 l 756 1010 l 683 307 q 607 73 667 158 q 438 -13 547 -13 z "},"Ŀ":{"ha":788,"x_min":124,"x_max":798,"o":"m 124 0 l 230 1010 l 348 1010 l 254 105 l 622 105 l 611 0 l 124 0 m 689 521 q 621 536 646 521 q 601 591 596 551 l 601 598 q 634 655 606 640 q 705 670 662 670 q 773 655 747 670 q 793 598 798 640 l 793 591 q 759 536 788 551 q 689 521 731 521 z "},"Ł":{"ha":788,"x_min":66,"x_max":622,"o":"m 124 0 l 172 457 l 66 420 l 76 516 l 182 553 l 230 1010 l 348 1010 l 306 596 l 576 691 l 567 595 l 295 500 l 254 105 l 622 105 l 611 0 l 124 0 z "},"Ŋ":{"ha":788,"x_min":71,"x_max":705,"o":"m 336 -263 q 259 -251 298 -263 q 178 -221 221 -240 l 211 -104 q 281 -134 250 -124 q 342 -145 312 -145 q 445 -100 404 -145 q 497 53 486 -54 l 572 753 q 552 871 580 832 q 470 910 525 910 q 370 875 417 910 q 271 775 323 840 l 189 0 l 71 0 l 177 1010 l 295 1010 l 283 885 l 314 885 q 402 985 345 948 q 524 1023 458 1023 q 659 956 614 1023 q 693 778 705 890 l 615 37 q 524 -186 600 -109 q 336 -263 448 -263 z "},"Œ":{"ha":788,"x_min":4,"x_max":813,"o":"m 258 0 q 67 92 130 0 q 20 337 4 183 l 54 667 q 153 917 72 823 q 362 1010 235 1010 l 813 1010 l 803 918 l 549 918 l 516 604 l 764 604 l 754 510 l 506 510 l 463 92 l 717 92 l 707 0 l 258 0 m 270 92 l 357 92 l 443 918 l 356 918 q 223 852 273 918 q 162 670 173 787 l 126 335 q 150 156 114 220 q 270 92 187 92 z "},"Ŧ":{"ha":788,"x_min":117,"x_max":764,"o":"m 282 0 l 323 394 l 117 394 l 129 504 l 335 504 l 376 905 l 120 905 l 131 1010 l 764 1010 l 753 905 l 495 905 l 453 504 l 659 504 l 648 394 l 442 394 l 400 0 l 282 0 z "},"Α":{"ha":788,"x_min":10,"x_max":673,"o":"m 496 403 l 433 872 l 269 403 l 496 403 m 551 0 l 510 297 l 231 297 l 128 0 l 10 0 l 383 1010 l 511 1010 l 673 0 l 551 0 z "},"Ά":{"ha":788,"x_min":10,"x_max":673,"o":"m 496 403 l 433 872 l 269 403 l 496 403 m 551 0 l 510 297 l 231 297 l 128 0 l 10 0 l 383 1010 l 511 1010 l 673 0 l 551 0 m 86 884 l 188 1136 l 350 1136 l 177 884 l 86 884 z "},"Β":{"ha":788,"x_min":71,"x_max":694,"o":"m 71 0 l 177 1010 l 447 1010 q 636 951 578 1010 q 682 773 694 893 l 676 715 q 631 609 669 653 q 534 553 593 566 l 530 516 q 638 453 601 509 q 665 313 674 398 l 659 256 q 569 64 646 128 q 347 0 491 0 l 71 0 m 250 578 l 407 578 q 516 613 480 578 q 559 725 552 648 l 563 758 q 542 869 571 835 q 441 903 514 903 l 284 903 l 250 578 m 201 107 l 375 107 q 494 145 455 107 q 542 270 533 183 l 547 308 q 524 434 556 395 q 413 472 492 472 l 239 472 l 201 107 z "},"Γ":{"ha":788,"x_min":77,"x_max":739,"o":"m 77 0 l 183 1010 l 739 1010 l 727 905 l 290 905 l 196 0 l 77 0 z "},"Δ":{"ha":788,"x_min":13,"x_max":681,"o":"m 13 0 l 24 105 l 376 1010 l 510 1010 l 681 105 l 669 0 l 13 0 m 567 105 l 432 880 l 134 105 l 567 105 z "},"Ε":{"ha":788,"x_min":71,"x_max":736,"o":"m 71 0 l 177 1010 l 736 1010 l 725 905 l 284 905 l 253 604 l 640 604 l 629 497 l 241 497 l 201 105 l 641 105 l 630 0 l 71 0 z "},"Έ":{"ha":788,"x_min":-63,"x_max":736,"o":"m 71 0 l 177 1010 l 736 1010 l 725 905 l 284 905 l 253 604 l 640 604 l 629 497 l 241 497 l 201 105 l 641 105 l 630 0 l 71 0 m -63 884 l 39 1136 l 201 1136 l 28 884 l -63 884 z "},"Ζ":{"ha":788,"x_min":52,"x_max":736,"o":"m 630 0 l 52 0 l 63 105 l 592 905 l 146 905 l 158 1010 l 736 1010 l 725 905 l 199 105 l 641 105 l 630 0 z "},"Η":{"ha":788,"x_min":71,"x_max":717,"o":"m 71 0 l 177 1010 l 295 1010 l 253 601 l 556 601 l 598 1010 l 717 1010 l 611 0 l 492 0 l 544 495 l 241 495 l 189 0 l 71 0 z "},"Ή":{"ha":788,"x_min":-74,"x_max":717,"o":"m 71 0 l 177 1010 l 295 1010 l 253 601 l 556 601 l 598 1010 l 717 1010 l 611 0 l 492 0 l 544 495 l 241 495 l 189 0 l 71 0 m -74 884 l 28 1136 l 189 1136 l 16 884 l -74 884 z "},"Θ":{"ha":788,"x_min":57,"x_max":731,"o":"m 340 -13 q 125 76 193 -13 q 74 335 57 165 l 110 670 q 215 932 128 842 q 449 1023 302 1023 q 664 932 596 1023 q 713 670 731 842 l 678 335 q 573 76 660 165 q 340 -13 486 -13 m 351 92 q 501 147 452 92 q 563 331 549 202 l 598 674 q 575 862 612 806 q 437 918 538 918 q 287 862 335 918 q 225 674 239 806 l 189 331 q 212 147 176 202 q 351 92 249 92 m 292 457 l 303 566 l 503 566 l 491 457 l 292 457 z "},"Ι":{"ha":788,"x_min":71,"x_max":717,"o":"m 71 0 l 82 105 l 293 105 l 376 905 l 165 905 l 177 1010 l 717 1010 l 706 905 l 495 905 l 412 105 l 622 105 l 611 0 l 71 0 z "},"Ί":{"ha":788,"x_min":-74,"x_max":717,"o":"m 71 0 l 82 105 l 293 105 l 376 905 l 165 905 l 177 1010 l 717 1010 l 706 905 l 495 905 l 412 105 l 622 105 l 611 0 l 71 0 m -74 884 l 28 1136 l 189 1136 l 16 884 l -74 884 z "},"Ϊ":{"ha":788,"x_min":71,"x_max":717,"o":"m 71 0 l 82 105 l 293 105 l 376 905 l 165 905 l 177 1010 l 717 1010 l 706 905 l 495 905 l 412 105 l 622 105 l 611 0 l 71 0 m 337 1152 q 286 1166 306 1152 q 271 1221 266 1181 l 271 1229 q 299 1285 277 1270 q 352 1301 321 1301 q 404 1285 385 1301 q 418 1229 423 1270 l 418 1221 q 391 1166 413 1181 q 337 1152 369 1152 m 585 1152 q 533 1166 552 1152 q 519 1221 514 1181 l 519 1229 q 545 1285 524 1270 q 600 1301 567 1301 q 651 1285 631 1301 q 665 1229 670 1270 l 665 1221 q 638 1166 660 1181 q 585 1152 616 1152 z "},"Κ":{"ha":788,"x_min":71,"x_max":777,"o":"m 240 486 l 189 0 l 71 0 l 177 1010 l 295 1010 l 251 592 l 288 592 l 641 1010 l 777 1010 l 372 545 l 667 0 l 529 0 l 280 486 l 240 486 z "},"Λ":{"ha":788,"x_min":10,"x_max":673,"o":"m 551 0 l 433 872 l 128 0 l 10 0 l 383 1010 l 511 1010 l 673 0 l 551 0 z "},"Μ":{"ha":788,"x_min":37,"x_max":751,"o":"m 313 246 l 227 824 l 143 0 l 37 0 l 143 1010 l 292 1010 l 386 399 l 607 1010 l 751 1010 l 645 0 l 539 0 l 628 819 l 419 246 l 313 246 z "},"Ν":{"ha":788,"x_min":71,"x_max":717,"o":"m 448 0 l 266 866 l 176 0 l 71 0 l 177 1010 l 332 1010 l 520 138 l 612 1010 l 717 1010 l 611 0 l 448 0 z "},"Ξ":{"ha":788,"x_min":52,"x_max":736,"o":"m 146 905 l 158 1010 l 736 1010 l 725 905 l 146 905 m 130 497 l 141 604 l 667 604 l 655 497 l 130 497 m 52 0 l 63 105 l 641 105 l 630 0 l 52 0 z "},"Ο":{"ha":788,"x_min":69,"x_max":718,"o":"m 340 -13 q 134 77 199 -13 q 87 337 69 167 l 122 668 q 224 932 140 841 q 449 1023 308 1023 q 654 932 590 1023 q 701 668 718 841 l 665 337 q 564 77 648 167 q 340 -13 481 -13 m 351 92 q 488 148 443 92 q 547 335 533 203 l 582 670 q 563 862 596 806 q 437 918 529 918 q 300 862 345 918 q 241 670 255 806 l 206 335 q 225 148 192 203 q 351 92 259 92 z "},"Ό":{"ha":788,"x_min":19,"x_max":723,"o":"m 345 -13 q 140 77 205 -13 q 92 337 74 167 l 128 668 q 229 932 145 841 q 455 1023 313 1023 q 659 932 595 1023 q 706 668 723 841 l 670 337 q 569 77 653 167 q 345 -13 486 -13 m 356 92 q 493 148 448 92 q 552 335 538 203 l 587 670 q 568 862 601 806 q 442 918 534 918 q 305 862 350 918 q 246 670 260 806 l 211 335 q 230 148 197 203 q 356 92 264 92 m 19 884 l 121 1136 l 283 1136 l 110 884 l 19 884 z "},"Π":{"ha":788,"x_min":71,"x_max":717,"o":"m 71 0 l 177 1010 l 717 1010 l 611 0 l 492 0 l 587 905 l 284 905 l 189 0 l 71 0 z "},"Ρ":{"ha":788,"x_min":71,"x_max":731,"o":"m 71 0 l 177 1010 l 477 1010 q 674 946 616 1010 q 717 744 731 881 l 705 626 q 619 423 691 487 q 408 359 547 359 l 227 359 l 189 0 l 71 0 m 237 461 l 414 461 q 537 499 497 461 q 586 626 577 538 l 598 741 q 576 867 607 828 q 461 905 544 905 l 284 905 l 237 461 z "},"Σ":{"ha":788,"x_min":47,"x_max":732,"o":"m 626 0 l 47 0 l 58 105 l 466 520 l 141 905 l 153 1010 l 732 1010 l 721 905 l 289 905 l 559 572 l 549 479 l 193 105 l 638 105 l 626 0 z "},"Τ":{"ha":788,"x_min":120,"x_max":764,"o":"m 282 0 l 376 905 l 120 905 l 131 1010 l 764 1010 l 753 905 l 495 905 l 400 0 l 282 0 z "},"Υ":{"ha":788,"x_min":93,"x_max":801,"o":"m 400 0 l 282 0 l 322 379 l 93 1010 l 222 1010 l 399 497 l 673 1010 l 801 1010 l 441 379 l 400 0 z "},"Ύ":{"ha":788,"x_min":-102,"x_max":801,"o":"m 400 0 l 282 0 l 322 379 l 93 1010 l 222 1010 l 399 497 l 673 1010 l 801 1010 l 441 379 l 400 0 m -102 884 l 0 1136 l 162 1136 l -11 884 l -102 884 z "},"Ϋ":{"ha":788,"x_min":93,"x_max":801,"o":"m 400 0 l 282 0 l 322 379 l 93 1010 l 222 1010 l 399 497 l 673 1010 l 801 1010 l 441 379 l 400 0 m 337 1152 q 286 1166 306 1152 q 271 1221 266 1181 l 271 1229 q 299 1285 277 1270 q 352 1301 321 1301 q 404 1285 385 1301 q 418 1229 423 1270 l 418 1221 q 391 1166 413 1181 q 337 1152 369 1152 m 585 1152 q 533 1166 552 1152 q 519 1221 514 1181 l 519 1229 q 545 1285 524 1270 q 600 1301 567 1301 q 651 1285 631 1301 q 665 1229 670 1270 l 665 1221 q 638 1166 660 1181 q 585 1152 616 1152 z "},"Φ":{"ha":788,"x_min":52,"x_max":735,"o":"m 438 114 l 409 114 l 396 -13 l 283 -13 l 295 114 l 268 114 q 101 198 150 114 q 68 434 52 282 l 83 571 q 166 811 98 726 q 351 896 234 896 l 379 896 l 391 1023 l 505 1023 l 492 896 l 521 896 q 687 811 639 896 q 720 571 735 726 l 705 434 q 622 198 688 282 q 438 114 556 114 m 510 789 l 476 789 l 415 221 l 449 221 q 546 271 513 221 q 591 434 580 322 l 606 571 q 595 737 617 686 q 510 789 573 789 m 279 221 l 312 221 l 372 789 l 340 789 q 242 737 277 789 q 197 571 208 686 l 182 434 q 193 271 170 322 q 279 221 216 221 z "},"Χ":{"ha":788,"x_min":-6,"x_max":797,"o":"m 556 0 l 384 403 l 126 0 l -6 0 l 336 516 l 126 1010 l 259 1010 l 420 630 l 664 1010 l 797 1010 l 468 516 l 687 0 l 556 0 z "},"Ψ":{"ha":788,"x_min":95,"x_max":737,"o":"m 398 0 l 284 0 l 309 245 q 145 343 194 261 q 110 561 95 426 l 157 1010 l 265 1010 l 217 557 q 231 410 207 460 q 321 351 255 361 l 390 1010 l 504 1010 l 434 351 q 537 410 503 361 q 581 557 571 460 l 629 1010 l 737 1010 l 691 561 q 609 343 676 426 q 423 245 543 261 l 398 0 z "},"Ω":{"ha":788,"x_min":42,"x_max":729,"o":"m 290 0 l 42 0 l 53 110 l 188 110 l 201 231 q 109 331 134 261 q 95 503 83 400 l 112 670 q 216 933 130 843 q 448 1023 302 1023 q 662 933 595 1023 q 711 670 729 843 l 693 503 q 643 331 682 400 q 530 231 604 261 l 518 110 l 652 110 l 640 0 l 391 0 l 422 290 q 531 357 497 307 q 574 503 564 408 l 592 670 q 571 862 606 806 q 437 918 535 918 q 292 862 338 918 q 231 670 245 806 l 213 503 q 227 357 203 408 q 321 290 250 307 l 290 0 z "},"Ώ":{"ha":788,"x_min":-9,"x_max":729,"o":"m 290 0 l 42 0 l 53 110 l 188 110 l 201 231 q 109 331 134 261 q 95 503 83 400 l 112 670 q 216 933 130 843 q 448 1023 302 1023 q 662 933 595 1023 q 711 670 729 843 l 693 503 q 643 331 682 400 q 530 231 604 261 l 518 110 l 652 110 l 640 0 l 391 0 l 422 290 q 531 357 497 307 q 574 503 564 408 l 592 670 q 571 862 606 806 q 437 918 535 918 q 292 862 338 918 q 231 670 245 806 l 213 503 q 227 357 203 408 q 321 290 250 307 l 290 0 m -9 884 l 93 1136 l 255 1136 l 82 884 l -9 884 z "},"Ω":{"ha":788,"x_min":42,"x_max":729,"o":"m 290 0 l 42 0 l 53 110 l 188 110 l 201 231 q 109 331 134 261 q 95 503 83 400 l 112 670 q 216 933 130 843 q 448 1023 302 1023 q 662 933 595 1023 q 711 670 729 843 l 693 503 q 643 331 682 400 q 530 231 604 261 l 518 110 l 652 110 l 640 0 l 391 0 l 422 290 q 531 357 497 307 q 574 503 564 408 l 592 670 q 571 862 606 806 q 437 918 535 918 q 292 862 338 918 q 231 670 245 806 l 213 503 q 227 357 203 408 q 321 290 250 307 l 290 0 z "},"Ђ":{"ha":788,"x_min":96,"x_max":705,"o":"m 154 0 l 249 905 l 96 905 l 107 1010 l 629 1010 l 617 905 l 367 905 l 342 657 l 471 657 q 649 590 593 657 q 691 394 705 524 l 677 263 q 593 66 663 133 q 402 0 524 0 l 413 102 q 514 140 477 102 q 559 265 551 177 l 573 391 q 553 517 582 480 q 460 554 524 554 l 331 554 l 273 0 l 154 0 z "},"Є":{"ha":788,"x_min":69,"x_max":734,"o":"m 686 322 q 577 71 660 154 q 352 -13 494 -13 q 136 75 203 -13 q 87 335 69 163 l 122 670 q 226 933 140 843 q 461 1023 312 1023 q 668 938 602 1023 q 723 683 734 854 l 605 670 q 574 862 610 806 q 449 918 539 918 q 302 863 350 918 q 241 674 255 808 l 234 604 l 463 604 l 452 497 l 222 497 l 206 331 q 228 146 192 199 q 364 92 264 92 q 500 147 453 92 q 569 335 547 202 l 686 322 z "},"Ѕ":{"ha":788,"x_min":45,"x_max":716,"o":"m 348 -10 q 179 23 259 -10 q 45 119 100 56 l 109 212 q 223 124 158 154 q 369 95 289 95 q 503 140 451 95 q 563 264 554 186 q 533 372 571 333 q 370 463 495 412 q 171 585 222 521 q 131 754 120 648 q 226 946 144 879 q 432 1014 308 1014 q 592 980 515 1014 q 716 885 668 947 l 657 790 q 546 879 609 848 q 419 909 484 909 q 302 872 348 909 q 249 763 256 835 q 283 660 242 698 q 455 569 324 621 q 646 453 596 515 q 684 285 696 391 q 574 68 669 146 q 348 -10 480 -10 z "},"І":{"ha":788,"x_min":71,"x_max":717,"o":"m 71 0 l 82 105 l 293 105 l 376 905 l 165 905 l 177 1010 l 717 1010 l 706 905 l 495 905 l 412 105 l 622 105 l 611 0 l 71 0 z "},"Ї":{"ha":788,"x_min":71,"x_max":717,"o":"m 71 0 l 82 105 l 293 105 l 376 905 l 165 905 l 177 1010 l 717 1010 l 706 905 l 495 905 l 412 105 l 622 105 l 611 0 l 71 0 m 337 1152 q 286 1166 306 1152 q 271 1221 266 1181 l 271 1229 q 299 1285 277 1270 q 352 1301 321 1301 q 404 1285 385 1301 q 418 1229 423 1270 l 418 1221 q 391 1166 413 1181 q 337 1152 369 1152 m 585 1152 q 533 1166 552 1152 q 519 1221 514 1181 l 519 1229 q 545 1285 524 1270 q 600 1301 567 1301 q 651 1285 631 1301 q 665 1229 670 1270 l 665 1221 q 638 1166 660 1181 q 585 1152 616 1152 z "},"Ј":{"ha":788,"x_min":53,"x_max":715,"o":"m 321 -13 q 114 66 174 -13 q 66 321 53 144 l 186 335 q 208 142 178 192 q 332 92 237 92 q 464 146 417 92 q 523 308 511 199 l 585 905 l 370 905 l 381 1010 l 715 1010 l 641 312 q 542 71 625 154 q 321 -13 460 -13 z "},"Љ":{"ha":788,"x_min":-48,"x_max":705,"o":"m 184 211 q 126 45 170 100 q 19 -9 82 -9 q -14 -5 3 -9 q -48 5 -30 -1 l -15 114 q 3 107 -6 110 q 21 102 13 104 q 57 126 42 101 q 81 215 73 150 l 176 1010 l 501 1010 l 463 652 l 520 652 q 662 584 619 652 q 691 380 705 516 l 678 269 q 607 67 664 134 q 452 0 551 0 l 290 0 l 385 902 l 266 902 l 184 211 m 407 109 l 458 109 q 535 146 506 109 q 573 273 563 184 l 585 381 q 573 507 593 468 q 504 545 552 545 l 452 545 l 407 109 z "},"Њ":{"ha":788,"x_min":33,"x_max":705,"o":"m 407 109 l 460 109 q 535 146 508 109 q 573 273 563 184 l 585 381 q 573 507 593 468 q 505 545 553 545 l 452 545 l 407 109 m 189 495 l 138 0 l 33 0 l 139 1010 l 244 1010 l 201 601 l 354 601 l 396 1010 l 501 1010 l 463 652 l 521 652 q 662 584 620 652 q 691 380 705 516 l 678 269 q 608 67 664 134 q 453 0 552 0 l 290 0 l 342 495 l 189 495 z "},"Ћ":{"ha":788,"x_min":86,"x_max":699,"o":"m 263 0 l 145 0 l 240 905 l 86 905 l 97 1010 l 621 1010 l 610 905 l 357 905 l 327 617 l 466 617 q 645 551 591 617 q 686 354 699 485 l 649 0 l 530 0 l 567 351 q 550 475 576 437 q 456 514 524 514 l 317 514 l 263 0 z "},"Џ":{"ha":788,"x_min":71,"x_max":717,"o":"m 261 -189 l 282 0 l 71 0 l 177 1010 l 295 1010 l 201 105 l 504 105 l 598 1010 l 717 1010 l 611 0 l 400 0 l 380 -189 l 261 -189 z "},"А":{"ha":788,"x_min":10,"x_max":673,"o":"m 496 403 l 433 872 l 269 403 l 496 403 m 551 0 l 510 297 l 231 297 l 128 0 l 10 0 l 383 1010 l 511 1010 l 673 0 l 551 0 z "},"Б":{"ha":788,"x_min":71,"x_max":689,"o":"m 71 0 l 177 1010 l 689 1010 l 678 905 l 284 905 l 251 591 l 438 591 q 616 527 558 591 q 662 346 674 463 l 653 263 q 568 68 639 136 q 378 0 496 0 l 71 0 m 201 105 l 367 105 q 487 143 448 105 q 535 269 527 182 l 542 327 q 520 451 551 414 q 408 489 489 489 l 241 489 l 201 105 z "},"В":{"ha":788,"x_min":71,"x_max":694,"o":"m 71 0 l 177 1010 l 447 1010 q 636 951 578 1010 q 682 773 694 893 l 676 715 q 631 609 669 653 q 534 553 593 566 l 530 516 q 638 453 601 509 q 665 313 674 398 l 659 256 q 569 64 646 128 q 347 0 491 0 l 71 0 m 250 578 l 407 578 q 516 613 480 578 q 559 725 552 648 l 563 758 q 542 869 571 835 q 441 903 514 903 l 284 903 l 250 578 m 201 107 l 375 107 q 494 145 455 107 q 542 270 533 183 l 547 308 q 524 434 556 395 q 413 472 492 472 l 239 472 l 201 107 z "},"Г":{"ha":788,"x_min":77,"x_max":739,"o":"m 77 0 l 183 1010 l 739 1010 l 727 905 l 290 905 l 196 0 l 77 0 z "},"Ѓ":{"ha":788,"x_min":77,"x_max":739,"o":"m 77 0 l 183 1010 l 739 1010 l 727 905 l 290 905 l 196 0 l 77 0 m 384 1136 l 549 1389 l 721 1389 l 485 1136 l 384 1136 z "},"Д":{"ha":788,"x_min":-39,"x_max":701,"o":"m 188 138 l 186 105 l 482 105 l 566 905 l 327 905 l 269 383 q 242 236 258 294 q 188 138 227 178 m 97 0 l 77 -189 l -39 -189 l -8 105 l 57 105 q 121 208 96 139 q 158 390 145 277 l 226 1010 l 692 1010 l 597 105 l 701 105 l 669 -189 l 553 -189 l 573 0 l 97 0 z "},"Е":{"ha":788,"x_min":71,"x_max":736,"o":"m 71 0 l 177 1010 l 736 1010 l 725 905 l 284 905 l 253 604 l 640 604 l 629 497 l 241 497 l 201 105 l 641 105 l 630 0 l 71 0 z "},"Ѐ":{"ha":788,"x_min":71,"x_max":736,"o":"m 71 0 l 177 1010 l 736 1010 l 725 905 l 284 905 l 253 604 l 640 604 l 629 497 l 241 497 l 201 105 l 641 105 l 630 0 l 71 0 m 484 1136 l 301 1389 l 471 1389 l 585 1136 l 484 1136 z "},"Ё":{"ha":788,"x_min":71,"x_max":736,"o":"m 71 0 l 177 1010 l 736 1010 l 725 905 l 284 905 l 253 604 l 640 604 l 629 497 l 241 497 l 201 105 l 641 105 l 630 0 l 71 0 m 366 1152 q 315 1166 335 1152 q 301 1221 295 1181 l 301 1229 q 328 1285 306 1270 q 381 1301 350 1301 q 433 1285 414 1301 q 447 1229 452 1270 l 447 1221 q 420 1166 442 1181 q 366 1152 398 1152 m 614 1152 q 562 1166 581 1152 q 548 1221 543 1181 l 548 1229 q 574 1285 553 1270 q 629 1301 596 1301 q 680 1285 660 1301 q 694 1229 699 1270 l 694 1221 q 667 1166 689 1181 q 614 1152 645 1152 z "},"Ж":{"ha":788,"x_min":-23,"x_max":809,"o":"m 299 491 l 90 0 l -23 0 l 223 544 l 86 1010 l 194 1010 l 309 586 l 352 586 l 396 1010 l 499 1010 l 455 586 l 497 586 l 702 1010 l 809 1010 l 576 545 l 705 0 l 592 0 l 489 491 l 444 491 l 393 0 l 290 0 l 342 491 l 299 491 z "},"З":{"ha":788,"x_min":63,"x_max":702,"o":"m 331 -13 q 126 57 188 -13 q 71 273 63 126 l 191 285 q 221 133 188 176 q 341 90 254 90 q 484 132 438 90 q 540 273 530 174 l 544 307 q 521 447 554 409 q 391 485 489 485 l 285 485 l 297 591 l 403 591 q 523 621 487 591 q 567 730 558 650 l 571 770 q 547 886 580 851 q 428 920 514 920 q 316 882 352 920 q 260 744 279 843 l 143 756 q 237 959 165 895 q 446 1023 309 1023 q 638 958 573 1023 q 689 768 702 894 l 684 726 q 628 607 677 650 q 503 558 580 563 l 499 521 q 630 455 588 513 q 663 309 672 396 l 659 274 q 564 61 644 134 q 331 -13 485 -13 z "},"И":{"ha":788,"x_min":71,"x_max":717,"o":"m 505 0 l 596 866 l 234 0 l 71 0 l 177 1010 l 283 1010 l 191 138 l 563 1010 l 717 1010 l 611 0 l 505 0 z "},"Ѝ":{"ha":788,"x_min":71,"x_max":717,"o":"m 505 0 l 596 866 l 234 0 l 71 0 l 177 1010 l 283 1010 l 191 138 l 563 1010 l 717 1010 l 611 0 l 505 0 m 446 1136 l 263 1389 l 433 1389 l 547 1136 l 446 1136 z "},"Й":{"ha":788,"x_min":71,"x_max":723,"o":"m 505 0 l 596 866 l 234 0 l 71 0 l 177 1010 l 283 1010 l 191 138 l 563 1010 l 717 1010 l 611 0 l 505 0 m 467 1128 q 311 1183 372 1128 q 264 1376 250 1239 l 379 1389 q 391 1260 370 1298 q 477 1222 413 1222 q 571 1260 542 1222 q 611 1389 600 1298 l 723 1376 q 634 1183 707 1239 q 467 1128 562 1128 z "},"К":{"ha":788,"x_min":71,"x_max":777,"o":"m 240 486 l 189 0 l 71 0 l 177 1010 l 295 1010 l 251 592 l 288 592 l 641 1010 l 777 1010 l 372 545 l 667 0 l 529 0 l 280 486 l 240 486 z "},"Ќ":{"ha":788,"x_min":71,"x_max":777,"o":"m 240 486 l 189 0 l 71 0 l 177 1010 l 295 1010 l 251 592 l 288 592 l 641 1010 l 777 1010 l 372 545 l 667 0 l 529 0 l 280 486 l 240 486 m 409 1136 l 574 1389 l 746 1389 l 510 1136 l 409 1136 z "},"Л":{"ha":788,"x_min":-32,"x_max":717,"o":"m 492 0 l 587 905 l 348 905 l 283 297 q 207 65 265 141 q 58 -11 149 -11 q 11 -8 34 -11 q -32 3 -11 -4 l -1 105 q 28 95 14 98 q 57 92 43 92 q 129 145 104 92 q 168 313 155 197 l 245 1010 l 717 1010 l 611 0 l 492 0 z "},"М":{"ha":788,"x_min":37,"x_max":751,"o":"m 313 246 l 227 824 l 143 0 l 37 0 l 143 1010 l 292 1010 l 386 399 l 607 1010 l 751 1010 l 645 0 l 539 0 l 628 819 l 419 246 l 313 246 z "},"Н":{"ha":788,"x_min":71,"x_max":717,"o":"m 71 0 l 177 1010 l 295 1010 l 253 601 l 556 601 l 598 1010 l 717 1010 l 611 0 l 492 0 l 544 495 l 241 495 l 189 0 l 71 0 z "},"О":{"ha":788,"x_min":69,"x_max":718,"o":"m 340 -13 q 134 77 199 -13 q 87 337 69 167 l 122 668 q 224 932 140 841 q 449 1023 308 1023 q 654 932 590 1023 q 701 668 718 841 l 665 337 q 564 77 648 167 q 340 -13 481 -13 m 351 92 q 488 148 443 92 q 547 335 533 203 l 582 670 q 563 862 596 806 q 437 918 529 918 q 300 862 345 918 q 241 670 255 806 l 206 335 q 225 148 192 203 q 351 92 259 92 z "},"П":{"ha":788,"x_min":71,"x_max":717,"o":"m 71 0 l 177 1010 l 717 1010 l 611 0 l 492 0 l 587 905 l 284 905 l 189 0 l 71 0 z "},"Р":{"ha":788,"x_min":71,"x_max":731,"o":"m 71 0 l 177 1010 l 477 1010 q 674 946 616 1010 q 717 744 731 881 l 705 626 q 619 423 691 487 q 408 359 547 359 l 227 359 l 189 0 l 71 0 m 237 461 l 414 461 q 537 499 497 461 q 586 626 577 538 l 598 741 q 576 867 607 828 q 461 905 544 905 l 284 905 l 237 461 z "},"С":{"ha":788,"x_min":68,"x_max":732,"o":"m 352 -13 q 135 74 202 -13 q 87 335 68 162 l 122 670 q 225 934 140 846 q 461 1023 311 1023 q 670 941 607 1023 q 723 683 732 859 l 605 670 q 575 864 609 809 q 449 918 542 918 q 302 862 350 918 q 241 674 255 807 l 206 331 q 230 150 192 207 q 364 92 268 92 q 500 144 456 92 q 569 335 544 196 l 686 322 q 578 68 658 149 q 352 -13 499 -13 z "},"Т":{"ha":788,"x_min":120,"x_max":764,"o":"m 282 0 l 376 905 l 120 905 l 131 1010 l 764 1010 l 753 905 l 495 905 l 400 0 l 282 0 z "},"У":{"ha":788,"x_min":76,"x_max":771,"o":"m 169 0 q 123 3 146 0 q 76 11 100 6 l 106 116 q 149 107 129 111 q 186 104 169 104 q 270 136 239 104 q 330 237 301 169 l 332 246 l 290 246 l 122 1010 l 240 1010 l 378 354 l 657 1010 l 771 1010 l 417 196 q 304 42 367 83 q 169 0 241 0 z "},"Ў":{"ha":788,"x_min":76,"x_max":771,"o":"m 169 0 q 123 3 146 0 q 76 11 100 6 l 106 116 q 149 107 129 111 q 186 104 169 104 q 270 136 239 104 q 330 237 301 169 l 332 246 l 290 246 l 122 1010 l 240 1010 l 378 354 l 657 1010 l 771 1010 l 417 196 q 304 42 367 83 q 169 0 241 0 m 458 1128 q 302 1183 364 1128 q 255 1376 241 1239 l 370 1389 q 383 1260 361 1298 q 468 1222 404 1222 q 562 1260 533 1222 q 602 1389 591 1298 l 715 1376 q 626 1183 698 1239 q 458 1128 553 1128 z "},"Ф":{"ha":788,"x_min":52,"x_max":735,"o":"m 438 114 l 409 114 l 396 -13 l 283 -13 l 295 114 l 268 114 q 101 198 150 114 q 68 434 52 282 l 83 571 q 166 811 98 726 q 351 896 234 896 l 379 896 l 391 1023 l 505 1023 l 492 896 l 521 896 q 687 811 639 896 q 720 571 735 726 l 705 434 q 622 198 688 282 q 438 114 556 114 m 510 789 l 476 789 l 415 221 l 449 221 q 546 271 513 221 q 591 434 580 322 l 606 571 q 595 737 617 686 q 510 789 573 789 m 279 221 l 312 221 l 372 789 l 340 789 q 242 737 277 789 q 197 571 208 686 l 182 434 q 193 271 170 322 q 279 221 216 221 z "},"Х":{"ha":788,"x_min":-6,"x_max":797,"o":"m 556 0 l 384 403 l 126 0 l -6 0 l 336 516 l 126 1010 l 259 1010 l 420 630 l 664 1010 l 797 1010 l 468 516 l 687 0 l 556 0 z "},"Ц":{"ha":788,"x_min":71,"x_max":676,"o":"m 525 -189 l 545 0 l 71 0 l 177 1010 l 295 1010 l 201 105 l 455 105 l 549 1010 l 668 1010 l 573 105 l 676 105 l 644 -189 l 525 -189 z "},"Ч":{"ha":788,"x_min":120,"x_max":716,"o":"m 716 1010 l 610 0 l 491 0 l 529 357 l 379 357 q 178 420 236 357 q 134 617 120 482 l 176 1010 l 294 1010 l 254 620 q 277 499 245 537 q 389 461 309 461 l 539 461 l 597 1010 l 716 1010 z "},"Ш":{"ha":788,"x_min":32,"x_max":756,"o":"m 32 0 l 138 1010 l 245 1010 l 149 101 l 298 101 l 394 1010 l 500 1010 l 404 101 l 553 101 l 649 1010 l 756 1010 l 650 0 l 32 0 z "},"Щ":{"ha":788,"x_min":32,"x_max":756,"o":"m 678 -183 l 567 -183 l 586 0 l 32 0 l 138 1010 l 245 1010 l 149 101 l 298 101 l 394 1010 l 500 1010 l 404 101 l 553 101 l 649 1010 l 756 1010 l 660 101 l 707 101 l 678 -183 z "},"Ъ":{"ha":788,"x_min":76,"x_max":713,"o":"m 414 0 l 174 0 l 269 905 l 76 905 l 87 1010 l 398 1010 l 360 652 l 481 652 q 660 586 607 652 q 699 384 713 521 l 687 265 q 606 64 673 129 q 414 0 539 0 m 303 105 l 420 105 q 524 144 489 105 q 568 268 559 183 l 581 385 q 563 509 590 470 q 467 549 535 549 l 350 549 l 303 105 z "},"Ы":{"ha":788,"x_min":51,"x_max":737,"o":"m 51 0 l 157 1010 l 263 1010 l 225 652 l 282 652 q 436 586 391 652 q 467 384 481 521 l 455 266 q 382 65 441 130 q 215 0 323 0 l 51 0 m 525 0 l 631 1010 l 737 1010 l 631 0 l 525 0 m 167 101 l 222 101 q 308 140 277 101 q 348 269 340 179 l 361 384 q 348 514 371 475 q 270 553 324 553 l 215 553 l 167 101 z "},"Ь":{"ha":788,"x_min":71,"x_max":697,"o":"m 71 0 l 177 1010 l 295 1010 l 258 652 l 442 652 q 638 586 580 652 q 683 384 697 521 l 670 266 q 584 65 657 130 q 375 0 511 0 l 71 0 m 201 105 l 381 105 q 500 143 457 105 q 552 269 543 182 l 564 384 q 539 510 573 471 q 428 549 504 549 l 247 549 l 201 105 z "},"Э":{"ha":788,"x_min":77,"x_max":740,"o":"m 350 -13 q 143 70 210 -13 q 86 322 77 153 l 206 335 q 234 148 201 203 q 361 92 266 92 q 508 154 461 92 q 568 331 556 216 l 585 497 l 318 497 l 330 604 l 596 604 l 604 674 q 581 862 617 807 q 447 918 545 918 q 309 862 355 918 q 241 670 264 806 l 124 683 q 234 939 150 856 q 457 1023 318 1023 q 677 930 615 1023 q 722 670 740 837 l 687 335 q 588 78 669 169 q 350 -13 508 -13 z "},"Ю":{"ha":788,"x_min":32,"x_max":740,"o":"m 443 -13 q 296 66 338 -13 q 269 292 254 145 l 292 504 l 191 504 l 138 0 l 32 0 l 138 1010 l 244 1010 l 201 597 l 302 597 l 313 705 q 388 941 328 859 q 553 1023 448 1023 q 698 941 657 1023 q 725 705 740 859 l 681 292 q 607 66 665 145 q 443 -13 548 -13 m 453 87 q 533 136 505 87 q 573 292 562 184 l 617 705 q 611 870 629 818 q 542 922 593 922 q 458 870 487 922 q 418 705 429 818 l 374 292 q 381 136 362 184 q 453 87 399 87 z "},"Я":{"ha":788,"x_min":14,"x_max":717,"o":"m 348 499 l 545 499 l 587 905 l 390 905 q 270 867 311 905 q 221 746 230 828 l 213 668 q 236 540 203 581 q 348 499 269 499 m 534 395 l 394 395 l 152 0 l 14 0 l 268 400 q 127 482 169 415 q 97 668 85 548 l 105 745 q 191 944 119 879 q 395 1010 263 1010 l 717 1010 l 611 0 l 492 0 l 534 395 z "},"Ґ":{"ha":788,"x_min":77,"x_max":759,"o":"m 77 0 l 183 1010 l 620 1010 l 640 1199 l 759 1199 l 727 905 l 290 905 l 196 0 l 77 0 z "},"a":{"ha":788,"x_min":52,"x_max":691,"o":"m 275 92 q 379 116 333 92 q 461 194 426 140 l 475 324 l 303 324 q 218 299 250 324 q 181 211 187 274 q 196 123 174 154 q 275 92 217 92 m 245 -13 q 104 42 155 -13 q 63 202 52 97 q 137 359 73 302 q 290 415 201 415 l 485 415 l 497 535 q 473 628 503 593 q 379 663 444 663 q 275 635 311 663 q 213 525 240 607 l 114 556 q 214 717 145 663 q 389 770 283 770 q 562 716 497 770 q 615 552 626 662 l 577 189 q 599 109 571 128 q 691 106 628 91 l 679 -5 q 550 9 598 -18 q 503 117 501 35 l 481 117 q 382 24 446 61 q 245 -13 318 -13 z "},"à":{"ha":788,"x_min":52,"x_max":691,"o":"m 275 92 q 379 116 333 92 q 461 194 426 140 l 475 324 l 303 324 q 218 299 250 324 q 181 211 187 274 q 196 123 174 154 q 275 92 217 92 m 245 -13 q 104 42 155 -13 q 63 202 52 97 q 137 359 73 302 q 290 415 201 415 l 485 415 l 497 535 q 473 628 503 593 q 379 663 444 663 q 275 635 311 663 q 213 525 240 607 l 114 556 q 214 717 145 663 q 389 770 283 770 q 562 716 497 770 q 615 552 626 662 l 577 189 q 599 109 571 128 q 691 106 628 91 l 679 -5 q 550 9 598 -18 q 503 117 501 35 l 481 117 q 382 24 446 61 q 245 -13 318 -13 m 413 884 l 230 1136 l 400 1136 l 514 884 l 413 884 z "},"á":{"ha":788,"x_min":52,"x_max":691,"o":"m 275 92 q 379 116 333 92 q 461 194 426 140 l 475 324 l 303 324 q 218 299 250 324 q 181 211 187 274 q 196 123 174 154 q 275 92 217 92 m 245 -13 q 104 42 155 -13 q 63 202 52 97 q 137 359 73 302 q 290 415 201 415 l 485 415 l 497 535 q 473 628 503 593 q 379 663 444 663 q 275 635 311 663 q 213 525 240 607 l 114 556 q 214 717 145 663 q 389 770 283 770 q 562 716 497 770 q 615 552 626 662 l 577 189 q 599 109 571 128 q 691 106 628 91 l 679 -5 q 550 9 598 -18 q 503 117 501 35 l 481 117 q 382 24 446 61 q 245 -13 318 -13 m 292 884 l 457 1136 l 629 1136 l 393 884 l 292 884 z "},"â":{"ha":788,"x_min":52,"x_max":691,"o":"m 275 92 q 379 116 333 92 q 461 194 426 140 l 475 324 l 303 324 q 218 299 250 324 q 181 211 187 274 q 196 123 174 154 q 275 92 217 92 m 245 -13 q 104 42 155 -13 q 63 202 52 97 q 137 359 73 302 q 290 415 201 415 l 485 415 l 497 535 q 473 628 503 593 q 379 663 444 663 q 275 635 311 663 q 213 525 240 607 l 114 556 q 214 717 145 663 q 389 770 283 770 q 562 716 497 770 q 615 552 626 662 l 577 189 q 599 109 571 128 q 691 106 628 91 l 679 -5 q 550 9 598 -18 q 503 117 501 35 l 481 117 q 382 24 446 61 q 245 -13 318 -13 m 240 900 l 196 970 l 408 1157 l 494 1157 l 670 970 l 611 900 l 439 1039 l 240 900 z "},"ã":{"ha":788,"x_min":52,"x_max":691,"o":"m 275 92 q 379 116 333 92 q 461 194 426 140 l 475 324 l 303 324 q 218 299 250 324 q 181 211 187 274 q 196 123 174 154 q 275 92 217 92 m 245 -13 q 104 42 155 -13 q 63 202 52 97 q 137 359 73 302 q 290 415 201 415 l 485 415 l 497 535 q 473 628 503 593 q 379 663 444 663 q 275 635 311 663 q 213 525 240 607 l 114 556 q 214 717 145 663 q 389 770 283 770 q 562 716 497 770 q 615 552 626 662 l 577 189 q 599 109 571 128 q 691 106 628 91 l 679 -5 q 550 9 598 -18 q 503 117 501 35 l 481 117 q 382 24 446 61 q 245 -13 318 -13 m 500 896 q 436 920 460 896 q 399 971 413 943 q 371 1021 384 999 q 340 1044 359 1044 q 300 1016 316 1044 q 279 923 284 987 l 278 909 l 189 909 l 191 928 q 244 1084 201 1021 q 357 1146 288 1146 q 425 1123 400 1146 q 462 1073 449 1100 q 487 1022 476 1045 q 516 999 499 999 q 556 1027 539 999 q 578 1120 572 1056 l 580 1134 l 667 1134 l 665 1115 q 612 958 655 1020 q 500 896 568 896 z "},"ä":{"ha":788,"x_min":52,"x_max":691,"o":"m 275 92 q 379 116 333 92 q 461 194 426 140 l 475 324 l 303 324 q 218 299 250 324 q 181 211 187 274 q 196 123 174 154 q 275 92 217 92 m 245 -13 q 104 42 155 -13 q 63 202 52 97 q 137 359 73 302 q 290 415 201 415 l 485 415 l 497 535 q 473 628 503 593 q 379 663 444 663 q 275 635 311 663 q 213 525 240 607 l 114 556 q 214 717 145 663 q 389 770 283 770 q 562 716 497 770 q 615 552 626 662 l 577 189 q 599 109 571 128 q 691 106 628 91 l 679 -5 q 550 9 598 -18 q 503 117 501 35 l 481 117 q 382 24 446 61 q 245 -13 318 -13 m 292 899 q 241 914 260 899 q 226 968 221 928 l 226 976 q 253 1033 231 1018 q 307 1048 275 1048 q 359 1033 340 1048 q 372 976 378 1018 l 372 968 q 345 914 367 928 q 292 899 323 899 m 539 899 q 487 914 506 899 q 473 968 468 928 l 473 976 q 500 1033 479 1018 q 554 1048 521 1048 q 605 1033 586 1048 q 620 976 625 1018 l 620 968 q 593 914 615 928 q 539 899 571 899 z "},"å":{"ha":788,"x_min":52,"x_max":691,"o":"m 275 92 q 379 116 333 92 q 461 194 426 140 l 475 324 l 303 324 q 218 299 250 324 q 181 211 187 274 q 196 123 174 154 q 275 92 217 92 m 245 -13 q 104 42 155 -13 q 63 202 52 97 q 137 359 73 302 q 290 415 201 415 l 485 415 l 497 535 q 473 628 503 593 q 379 663 444 663 q 275 635 311 663 q 213 525 240 607 l 114 556 q 214 717 145 663 q 389 770 283 770 q 562 716 497 770 q 615 552 626 662 l 577 189 q 599 109 571 128 q 691 106 628 91 l 679 -5 q 550 9 598 -18 q 503 117 501 35 l 481 117 q 382 24 446 61 q 245 -13 318 -13 m 412 866 q 290 911 333 866 q 255 1048 246 956 l 260 1088 q 323 1228 269 1182 q 455 1274 376 1274 q 577 1228 534 1274 q 611 1088 620 1182 l 606 1048 q 544 911 597 956 q 412 866 490 866 m 420 953 q 486 975 462 953 q 515 1048 510 996 l 520 1088 q 506 1163 525 1139 q 446 1187 487 1187 q 379 1163 403 1187 q 351 1088 356 1139 l 346 1048 q 359 975 341 996 q 420 953 378 953 z "},"ā":{"ha":788,"x_min":52,"x_max":691,"o":"m 275 92 q 379 116 333 92 q 461 194 426 140 l 475 324 l 303 324 q 218 299 250 324 q 181 211 187 274 q 196 123 174 154 q 275 92 217 92 m 245 -13 q 104 42 155 -13 q 63 202 52 97 q 137 359 73 302 q 290 415 201 415 l 485 415 l 497 535 q 473 628 503 593 q 379 663 444 663 q 275 635 311 663 q 213 525 240 607 l 114 556 q 214 717 145 663 q 389 770 283 770 q 562 716 497 770 q 615 552 626 662 l 577 189 q 599 109 571 128 q 691 106 628 91 l 679 -5 q 550 9 598 -18 q 503 117 501 35 l 481 117 q 382 24 446 61 q 245 -13 318 -13 m 207 957 l 217 1063 l 646 1063 l 636 957 l 207 957 z "},"ă":{"ha":788,"x_min":52,"x_max":691,"o":"m 275 92 q 379 116 333 92 q 461 194 426 140 l 475 324 l 303 324 q 218 299 250 324 q 181 211 187 274 q 196 123 174 154 q 275 92 217 92 m 245 -13 q 104 42 155 -13 q 63 202 52 97 q 137 359 73 302 q 290 415 201 415 l 485 415 l 497 535 q 473 628 503 593 q 379 663 444 663 q 275 635 311 663 q 213 525 240 607 l 114 556 q 214 717 145 663 q 389 770 283 770 q 562 716 497 770 q 615 552 626 662 l 577 189 q 599 109 571 128 q 691 106 628 91 l 679 -5 q 550 9 598 -18 q 503 117 501 35 l 481 117 q 382 24 446 61 q 245 -13 318 -13 m 413 875 q 237 938 298 875 q 191 1136 177 1001 l 304 1136 q 325 1008 295 1045 q 423 970 355 970 q 528 1008 491 970 q 577 1136 566 1045 l 691 1136 q 601 938 674 1001 q 413 875 528 875 z "},"ą":{"ha":788,"x_min":52,"x_max":696,"o":"m 275 92 q 379 116 333 92 q 461 194 426 140 l 475 324 l 303 324 q 218 299 250 324 q 181 211 187 274 q 196 123 174 154 q 275 92 217 92 m 245 -13 q 104 42 155 -13 q 63 202 52 97 q 137 359 73 302 q 290 415 201 415 l 485 415 l 497 535 q 473 628 503 593 q 379 663 444 663 q 275 635 311 663 q 213 525 240 607 l 114 556 q 214 717 145 663 q 389 770 283 770 q 562 716 497 770 q 615 552 626 662 l 577 189 q 599 109 571 128 q 691 106 628 91 l 679 -5 q 550 9 598 -18 q 503 117 501 35 l 481 117 q 382 24 446 61 q 245 -13 318 -13 m 573 -270 q 461 -230 504 -270 q 427 -121 419 -191 q 480 -15 433 -63 q 580 56 527 33 l 604 29 q 549 -30 564 3 q 532 -87 534 -62 q 545 -141 528 -122 q 598 -160 563 -160 q 646 -157 619 -160 q 696 -148 674 -153 l 684 -258 q 629 -266 660 -263 q 573 -270 597 -270 z "},"ǻ":{"ha":788,"x_min":52,"x_max":691,"o":"m 275 92 q 379 116 333 92 q 461 194 426 140 l 475 324 l 303 324 q 218 299 250 324 q 181 211 187 274 q 196 123 174 154 q 275 92 217 92 m 245 -13 q 104 42 155 -13 q 63 202 52 97 q 137 359 73 302 q 290 415 201 415 l 485 415 l 497 535 q 473 628 503 593 q 379 663 444 663 q 275 635 311 663 q 213 525 240 607 l 114 556 q 214 717 145 663 q 389 770 283 770 q 562 716 497 770 q 615 552 626 662 l 577 189 q 599 109 571 128 q 691 106 628 91 l 679 -5 q 550 9 598 -18 q 503 117 501 35 l 481 117 q 382 24 446 61 q 245 -13 318 -13 m 412 866 q 290 911 333 866 q 255 1048 246 956 l 260 1088 q 323 1228 269 1182 q 455 1274 376 1274 q 577 1228 534 1274 q 611 1088 620 1182 l 606 1048 q 544 911 597 956 q 412 866 490 866 m 420 953 q 486 975 462 953 q 515 1048 510 996 l 520 1088 q 506 1163 525 1139 q 446 1187 487 1187 q 379 1163 403 1187 q 351 1088 356 1139 l 346 1048 q 359 975 341 996 q 420 953 378 953 m 352 1263 l 518 1515 l 689 1515 l 453 1263 l 352 1263 z "},"b":{"ha":788,"x_min":80,"x_max":676,"o":"m 332 -14 q 194 8 260 -14 q 80 69 128 29 l 178 1010 l 297 1010 l 259 650 l 290 650 q 372 739 321 708 q 489 770 424 770 q 631 699 586 770 q 662 496 676 628 l 638 260 q 544 57 624 129 q 332 -14 463 -14 m 343 91 q 468 132 427 91 q 519 263 509 173 l 544 500 q 527 620 552 582 q 441 658 503 658 q 340 628 386 658 q 246 534 293 598 l 205 133 q 267 101 234 111 q 343 91 301 91 z "},"":{"ha":788,"x_min":80,"x_max":676,"o":"m 332 -14 q 194 8 260 -14 q 80 69 128 29 l 178 1010 l 297 1010 l 259 650 l 290 650 q 372 739 321 708 q 489 770 424 770 q 631 699 586 770 q 662 496 676 628 l 638 260 q 544 57 624 129 q 332 -14 463 -14 m 343 91 q 468 132 427 91 q 519 263 509 173 l 544 500 q 527 620 552 582 q 441 658 503 658 q 340 628 386 658 q 246 534 293 598 l 205 133 q 267 101 234 111 q 343 91 301 91 z "},"c":{"ha":788,"x_min":86,"x_max":679,"o":"m 354 -13 q 149 57 212 -13 q 98 255 86 128 l 124 495 q 217 699 138 629 q 434 770 295 770 q 620 707 561 770 q 674 513 679 644 l 558 506 q 530 629 563 596 q 422 663 497 663 q 297 624 342 663 q 242 497 253 586 l 217 255 q 246 133 208 172 q 364 95 283 95 q 478 122 439 95 q 529 226 516 150 l 643 220 q 552 44 622 100 q 354 -13 481 -13 z "},"ç":{"ha":788,"x_min":86,"x_max":679,"o":"m 354 -13 q 149 57 212 -13 q 98 255 86 128 l 124 495 q 217 699 138 629 q 434 770 295 770 q 620 707 561 770 q 674 513 679 644 l 558 506 q 530 629 563 596 q 422 663 497 663 q 297 624 342 663 q 242 497 253 586 l 217 255 q 246 133 208 172 q 364 95 283 95 q 478 122 439 95 q 529 226 516 150 l 643 220 q 552 44 622 100 q 354 -13 481 -13 m 312 0 l 337 53 q 434 0 399 40 q 461 -115 470 -40 q 398 -234 453 -196 q 280 -271 343 -271 q 165 -242 208 -271 q 124 -141 121 -212 l 229 -129 q 241 -162 227 -153 q 287 -172 255 -172 q 335 -156 318 -172 q 357 -97 352 -140 q 352 -31 362 -52 q 312 0 341 -10 z "},"ć":{"ha":788,"x_min":86,"x_max":679,"o":"m 354 -13 q 149 57 212 -13 q 98 255 86 128 l 124 495 q 217 699 138 629 q 434 770 295 770 q 620 707 561 770 q 674 513 679 644 l 558 506 q 530 629 563 596 q 422 663 497 663 q 297 624 342 663 q 242 497 253 586 l 217 255 q 246 133 208 172 q 364 95 283 95 q 478 122 439 95 q 529 226 516 150 l 643 220 q 552 44 622 100 q 354 -13 481 -13 m 323 884 l 489 1136 l 660 1136 l 424 884 l 323 884 z "},"ĉ":{"ha":788,"x_min":86,"x_max":696,"o":"m 354 -13 q 149 57 212 -13 q 98 255 86 128 l 124 495 q 217 699 138 629 q 434 770 295 770 q 620 707 561 770 q 674 513 679 644 l 558 506 q 530 629 563 596 q 422 663 497 663 q 297 624 342 663 q 242 497 253 586 l 217 255 q 246 133 208 172 q 364 95 283 95 q 478 122 439 95 q 529 226 516 150 l 643 220 q 552 44 622 100 q 354 -13 481 -13 m 265 900 l 221 970 l 433 1157 l 519 1157 l 696 970 l 636 900 l 465 1039 l 265 900 z "},"ċ":{"ha":788,"x_min":86,"x_max":679,"o":"m 354 -13 q 149 57 212 -13 q 98 255 86 128 l 124 495 q 217 699 138 629 q 434 770 295 770 q 620 707 561 770 q 674 513 679 644 l 558 506 q 530 629 563 596 q 422 663 497 663 q 297 624 342 663 q 242 497 253 586 l 217 255 q 246 133 208 172 q 364 95 283 95 q 478 122 439 95 q 529 226 516 150 l 643 220 q 552 44 622 100 q 354 -13 481 -13 m 442 899 q 374 914 399 899 q 354 968 348 928 l 354 976 q 386 1033 359 1018 q 457 1048 414 1048 q 525 1033 500 1048 q 545 976 551 1018 l 545 968 q 512 914 540 928 q 442 899 484 899 z "},"č":{"ha":788,"x_min":86,"x_max":698,"o":"m 354 -13 q 149 57 212 -13 q 98 255 86 128 l 124 495 q 217 699 138 629 q 434 770 295 770 q 620 707 561 770 q 674 513 679 644 l 558 506 q 530 629 563 596 q 422 663 497 663 q 297 624 342 663 q 242 497 253 586 l 217 255 q 246 133 208 172 q 364 95 283 95 q 478 122 439 95 q 529 226 516 150 l 643 220 q 552 44 622 100 q 354 -13 481 -13 m 399 889 l 223 1076 l 282 1145 l 455 1006 l 653 1145 l 698 1076 l 485 889 l 399 889 z "},"d":{"ha":788,"x_min":86,"x_max":716,"o":"m 321 100 q 422 130 375 100 q 515 223 468 160 l 556 617 q 493 655 527 643 q 418 667 460 667 q 294 624 337 667 q 242 495 251 582 l 217 256 q 234 138 210 177 q 321 100 259 100 m 471 107 q 389 19 441 51 q 273 -13 337 -13 q 132 61 178 -13 q 100 261 86 134 l 124 497 q 217 698 138 625 q 424 771 297 771 q 498 761 460 771 q 568 734 537 751 l 597 1010 l 716 1010 l 610 0 l 491 0 l 503 107 l 471 107 z "},"ď":{"ha":788,"x_min":86,"x_max":1061,"o":"m 321 100 q 422 130 375 100 q 515 223 468 160 l 556 617 q 493 655 527 643 q 418 667 460 667 q 294 624 337 667 q 242 495 251 582 l 217 256 q 234 138 210 177 q 321 100 259 100 m 471 107 q 389 19 441 51 q 273 -13 337 -13 q 132 61 178 -13 q 100 261 86 134 l 124 497 q 217 698 138 625 q 424 771 297 771 q 498 761 460 771 q 568 734 537 751 l 597 1010 l 716 1010 l 610 0 l 491 0 l 503 107 l 471 107 m 773 890 l 893 1263 l 1061 1263 l 854 890 l 773 890 z "},"e":{"ha":788,"x_min":85,"x_max":676,"o":"m 631 165 q 526 30 590 72 q 341 -13 462 -13 q 150 56 215 -13 q 100 259 85 124 l 124 495 q 221 702 139 634 q 423 770 303 770 q 610 700 544 770 q 660 486 676 630 l 648 356 l 229 356 l 218 259 q 242 129 208 168 q 351 90 275 90 q 461 116 423 90 q 524 198 499 141 l 631 165 m 242 492 l 237 447 l 538 447 l 542 481 q 520 623 552 578 q 412 668 487 668 q 294 624 336 668 q 242 492 251 581 z "},"è":{"ha":788,"x_min":85,"x_max":676,"o":"m 631 165 q 526 30 590 72 q 341 -13 462 -13 q 150 56 215 -13 q 100 259 85 124 l 124 495 q 221 702 139 634 q 423 770 303 770 q 610 700 544 770 q 660 486 676 630 l 648 356 l 229 356 l 218 259 q 242 129 208 168 q 351 90 275 90 q 461 116 423 90 q 524 198 499 141 l 631 165 m 242 492 l 237 447 l 538 447 l 542 481 q 520 623 552 578 q 412 668 487 668 q 294 624 336 668 q 242 492 251 581 m 434 884 l 251 1136 l 422 1136 l 535 884 l 434 884 z "},"é":{"ha":788,"x_min":85,"x_max":676,"o":"m 631 165 q 526 30 590 72 q 341 -13 462 -13 q 150 56 215 -13 q 100 259 85 124 l 124 495 q 221 702 139 634 q 423 770 303 770 q 610 700 544 770 q 660 486 676 630 l 648 356 l 229 356 l 218 259 q 242 129 208 168 q 351 90 275 90 q 461 116 423 90 q 524 198 499 141 l 631 165 m 242 492 l 237 447 l 538 447 l 542 481 q 520 623 552 578 q 412 668 487 668 q 294 624 336 668 q 242 492 251 581 m 316 884 l 481 1136 l 653 1136 l 417 884 l 316 884 z "},"ê":{"ha":788,"x_min":85,"x_max":682,"o":"m 631 165 q 526 30 590 72 q 341 -13 462 -13 q 150 56 215 -13 q 100 259 85 124 l 124 495 q 221 702 139 634 q 423 770 303 770 q 610 700 544 770 q 660 486 676 630 l 648 356 l 229 356 l 218 259 q 242 129 208 168 q 351 90 275 90 q 461 116 423 90 q 524 198 499 141 l 631 165 m 242 492 l 237 447 l 538 447 l 542 481 q 520 623 552 578 q 412 668 487 668 q 294 624 336 668 q 242 492 251 581 m 251 900 l 207 970 l 419 1157 l 505 1157 l 682 970 l 622 900 l 451 1039 l 251 900 z "},"ë":{"ha":788,"x_min":85,"x_max":676,"o":"m 631 165 q 526 30 590 72 q 341 -13 462 -13 q 150 56 215 -13 q 100 259 85 124 l 124 495 q 221 702 139 634 q 423 770 303 770 q 610 700 544 770 q 660 486 676 630 l 648 356 l 229 356 l 218 259 q 242 129 208 168 q 351 90 275 90 q 461 116 423 90 q 524 198 499 141 l 631 165 m 242 492 l 237 447 l 538 447 l 542 481 q 520 623 552 578 q 412 668 487 668 q 294 624 336 668 q 242 492 251 581 m 313 899 q 262 914 282 899 q 247 968 242 928 l 247 976 q 275 1033 253 1018 q 328 1048 297 1048 q 380 1033 361 1048 q 394 976 399 1018 l 394 968 q 367 914 389 928 q 313 899 345 899 m 561 899 q 509 914 528 899 q 495 968 490 928 l 495 976 q 521 1033 500 1018 q 576 1048 543 1048 q 627 1033 607 1048 q 641 976 646 1018 l 641 968 q 614 914 636 928 q 561 899 592 899 z "},"ē":{"ha":788,"x_min":85,"x_max":676,"o":"m 631 165 q 526 30 590 72 q 341 -13 462 -13 q 150 56 215 -13 q 100 259 85 124 l 124 495 q 221 702 139 634 q 423 770 303 770 q 610 700 544 770 q 660 486 676 630 l 648 356 l 229 356 l 218 259 q 242 129 208 168 q 351 90 275 90 q 461 116 423 90 q 524 198 499 141 l 631 165 m 242 492 l 237 447 l 538 447 l 542 481 q 520 623 552 578 q 412 668 487 668 q 294 624 336 668 q 242 492 251 581 m 229 957 l 239 1063 l 668 1063 l 658 957 l 229 957 z "},"ĕ":{"ha":788,"x_min":85,"x_max":711,"o":"m 631 165 q 526 30 590 72 q 341 -13 462 -13 q 150 56 215 -13 q 100 259 85 124 l 124 495 q 221 702 139 634 q 423 770 303 770 q 610 700 544 770 q 660 486 676 630 l 648 356 l 229 356 l 218 259 q 242 129 208 168 q 351 90 275 90 q 461 116 423 90 q 524 198 499 141 l 631 165 m 242 492 l 237 447 l 538 447 l 542 481 q 520 623 552 578 q 412 668 487 668 q 294 624 336 668 q 242 492 251 581 m 433 875 q 258 938 318 875 q 211 1136 197 1001 l 324 1136 q 345 1008 316 1045 q 443 970 375 970 q 549 1008 511 970 q 597 1136 586 1045 l 711 1136 q 621 938 694 1001 q 433 875 548 875 z "},"ė":{"ha":788,"x_min":85,"x_max":676,"o":"m 631 165 q 526 30 590 72 q 341 -13 462 -13 q 150 56 215 -13 q 100 259 85 124 l 124 495 q 221 702 139 634 q 423 770 303 770 q 610 700 544 770 q 660 486 676 630 l 648 356 l 229 356 l 218 259 q 242 129 208 168 q 351 90 275 90 q 461 116 423 90 q 524 198 499 141 l 631 165 m 242 492 l 237 447 l 538 447 l 542 481 q 520 623 552 578 q 412 668 487 668 q 294 624 336 668 q 242 492 251 581 m 437 899 q 369 914 394 899 q 348 968 343 928 l 348 976 q 381 1033 354 1018 q 452 1048 409 1048 q 520 1033 495 1048 q 540 976 545 1018 l 540 968 q 507 914 535 928 q 437 899 479 899 z "},"ę":{"ha":788,"x_min":85,"x_max":676,"o":"m 460 -270 q 348 -230 390 -270 q 313 -121 306 -191 q 366 -15 319 -63 q 466 56 413 33 l 490 29 q 436 -30 451 3 q 418 -87 420 -62 q 432 -141 414 -122 q 485 -160 449 -160 q 533 -157 505 -160 q 582 -148 561 -153 l 571 -258 q 515 -266 547 -263 q 460 -270 484 -270 m 631 165 q 526 30 590 72 q 341 -13 462 -13 q 150 56 215 -13 q 100 259 85 124 l 124 495 q 221 702 139 634 q 423 770 303 770 q 610 700 544 770 q 660 486 676 630 l 648 356 l 229 356 l 218 259 q 242 129 208 168 q 351 90 275 90 q 461 116 423 90 q 524 198 499 141 l 631 165 m 242 492 l 237 447 l 538 447 l 542 481 q 520 623 552 578 q 412 668 487 668 q 294 624 336 668 q 242 492 251 581 z "},"ě":{"ha":788,"x_min":85,"x_max":693,"o":"m 631 165 q 526 30 590 72 q 341 -13 462 -13 q 150 56 215 -13 q 100 259 85 124 l 124 495 q 221 702 139 634 q 423 770 303 770 q 610 700 544 770 q 660 486 676 630 l 648 356 l 229 356 l 218 259 q 242 129 208 168 q 351 90 275 90 q 461 116 423 90 q 524 198 499 141 l 631 165 m 242 492 l 237 447 l 538 447 l 542 481 q 520 623 552 578 q 412 668 487 668 q 294 624 336 668 q 242 492 251 581 m 394 889 l 218 1076 l 277 1145 l 449 1006 l 648 1145 l 693 1076 l 480 889 l 394 889 z "},"f":{"ha":788,"x_min":122,"x_max":732,"o":"m 206 -253 l 301 650 l 122 650 l 134 758 l 312 758 l 317 809 q 400 963 328 908 q 567 1019 472 1019 q 659 1006 611 1019 q 732 980 707 994 l 699 880 q 631 903 668 895 q 559 910 595 910 q 475 887 508 910 q 437 813 442 864 l 431 758 l 689 758 l 678 650 l 419 650 l 324 -253 l 206 -253 z "},"g":{"ha":788,"x_min":3,"x_max":716,"o":"m 654 -64 q 574 -216 643 -167 q 413 -265 505 -265 l 216 -265 q 60 -221 117 -265 q 13 -78 3 -177 q 51 17 19 -19 q 135 58 83 53 l 138 85 q 80 120 101 91 q 66 210 59 149 q 106 306 72 263 q 208 356 140 350 l 211 379 q 145 441 160 399 q 134 519 130 484 l 138 557 q 217 701 148 644 q 398 758 285 758 l 716 758 l 705 646 l 543 678 l 540 654 q 599 601 581 640 q 614 523 617 562 l 609 486 q 536 346 600 400 q 350 292 472 292 l 227 292 q 180 275 197 292 q 159 216 163 258 q 174 155 155 176 q 231 135 192 135 l 465 135 q 610 88 556 135 q 654 -64 664 42 m 361 386 q 458 414 423 386 q 499 504 492 442 l 503 543 q 480 633 509 605 q 390 660 452 660 q 293 633 328 660 q 251 543 258 605 l 247 504 q 270 414 241 442 q 361 386 299 386 m 225 -168 l 434 -168 q 511 -146 480 -168 q 548 -69 543 -124 q 530 6 554 -16 q 463 28 505 28 l 141 28 l 133 -61 q 150 -141 126 -115 q 225 -168 174 -168 z "},"ĝ":{"ha":788,"x_min":3,"x_max":716,"o":"m 654 -64 q 574 -216 643 -167 q 413 -265 505 -265 l 216 -265 q 60 -221 117 -265 q 13 -78 3 -177 q 51 17 19 -19 q 135 58 83 53 l 138 85 q 80 120 101 91 q 66 210 59 149 q 106 306 72 263 q 208 356 140 350 l 211 379 q 145 441 160 399 q 134 519 130 484 l 138 557 q 217 701 148 644 q 398 758 285 758 l 716 758 l 705 646 l 543 678 l 540 654 q 599 601 581 640 q 614 523 617 562 l 609 486 q 536 346 600 400 q 350 292 472 292 l 227 292 q 180 275 197 292 q 159 216 163 258 q 174 155 155 176 q 231 135 192 135 l 465 135 q 610 88 556 135 q 654 -64 664 42 m 361 386 q 458 414 423 386 q 499 504 492 442 l 503 543 q 480 633 509 605 q 390 660 452 660 q 293 633 328 660 q 251 543 258 605 l 247 504 q 270 414 241 442 q 361 386 299 386 m 225 -168 l 434 -168 q 511 -146 480 -168 q 548 -69 543 -124 q 530 6 554 -16 q 463 28 505 28 l 141 28 l 133 -61 q 150 -141 126 -115 q 225 -168 174 -168 m 242 900 l 198 970 l 410 1157 l 496 1157 l 673 970 l 614 900 l 442 1039 l 242 900 z "},"ğ":{"ha":788,"x_min":3,"x_max":716,"o":"m 654 -64 q 574 -216 643 -167 q 413 -265 505 -265 l 216 -265 q 60 -221 117 -265 q 13 -78 3 -177 q 51 17 19 -19 q 135 58 83 53 l 138 85 q 80 120 101 91 q 66 210 59 149 q 106 306 72 263 q 208 356 140 350 l 211 379 q 145 441 160 399 q 134 519 130 484 l 138 557 q 217 701 148 644 q 398 758 285 758 l 716 758 l 705 646 l 543 678 l 540 654 q 599 601 581 640 q 614 523 617 562 l 609 486 q 536 346 600 400 q 350 292 472 292 l 227 292 q 180 275 197 292 q 159 216 163 258 q 174 155 155 176 q 231 135 192 135 l 465 135 q 610 88 556 135 q 654 -64 664 42 m 361 386 q 458 414 423 386 q 499 504 492 442 l 503 543 q 480 633 509 605 q 390 660 452 660 q 293 633 328 660 q 251 543 258 605 l 247 504 q 270 414 241 442 q 361 386 299 386 m 225 -168 l 434 -168 q 511 -146 480 -168 q 548 -69 543 -124 q 530 6 554 -16 q 463 28 505 28 l 141 28 l 133 -61 q 150 -141 126 -115 q 225 -168 174 -168 m 433 875 q 258 938 318 875 q 211 1136 197 1001 l 324 1136 q 345 1008 316 1045 q 443 970 375 970 q 549 1008 511 970 q 597 1136 586 1045 l 711 1136 q 621 938 694 1001 q 433 875 548 875 z "},"ġ":{"ha":788,"x_min":3,"x_max":716,"o":"m 654 -64 q 574 -216 643 -167 q 413 -265 505 -265 l 216 -265 q 60 -221 117 -265 q 13 -78 3 -177 q 51 17 19 -19 q 135 58 83 53 l 138 85 q 80 120 101 91 q 66 210 59 149 q 106 306 72 263 q 208 356 140 350 l 211 379 q 145 441 160 399 q 134 519 130 484 l 138 557 q 217 701 148 644 q 398 758 285 758 l 716 758 l 705 646 l 543 678 l 540 654 q 599 601 581 640 q 614 523 617 562 l 609 486 q 536 346 600 400 q 350 292 472 292 l 227 292 q 180 275 197 292 q 159 216 163 258 q 174 155 155 176 q 231 135 192 135 l 465 135 q 610 88 556 135 q 654 -64 664 42 m 361 386 q 458 414 423 386 q 499 504 492 442 l 503 543 q 480 633 509 605 q 390 660 452 660 q 293 633 328 660 q 251 543 258 605 l 247 504 q 270 414 241 442 q 361 386 299 386 m 225 -168 l 434 -168 q 511 -146 480 -168 q 548 -69 543 -124 q 530 6 554 -16 q 463 28 505 28 l 141 28 l 133 -61 q 150 -141 126 -115 q 225 -168 174 -168 m 436 899 q 367 914 393 899 q 347 968 342 928 l 347 976 q 380 1033 352 1018 q 451 1048 408 1048 q 519 1033 494 1048 q 539 976 544 1018 l 539 968 q 506 914 534 928 q 436 899 477 899 z "},"ģ":{"ha":788,"x_min":3,"x_max":716,"o":"m 654 -64 q 574 -216 643 -167 q 413 -265 505 -265 l 216 -265 q 60 -221 117 -265 q 13 -78 3 -177 q 51 17 19 -19 q 135 58 83 53 l 138 85 q 80 120 101 91 q 66 210 59 149 q 106 306 72 263 q 208 356 140 350 l 211 379 q 145 441 160 399 q 134 519 130 484 l 138 557 q 217 701 148 644 q 398 758 285 758 l 716 758 l 705 646 l 543 678 l 540 654 q 599 601 581 640 q 614 523 617 562 l 609 486 q 536 346 600 400 q 350 292 472 292 l 227 292 q 180 275 197 292 q 159 216 163 258 q 174 155 155 176 q 231 135 192 135 l 465 135 q 610 88 556 135 q 654 -64 664 42 m 361 386 q 458 414 423 386 q 499 504 492 442 l 503 543 q 480 633 509 605 q 390 660 452 660 q 293 633 328 660 q 251 543 258 605 l 247 504 q 270 414 241 442 q 361 386 299 386 m 225 -168 l 434 -168 q 511 -146 480 -168 q 548 -69 543 -124 q 530 6 554 -16 q 463 28 505 28 l 141 28 l 133 -61 q 150 -141 126 -115 q 225 -168 174 -168 m 330 884 l 524 1136 l 625 1136 l 501 884 l 330 884 z "},"h":{"ha":788,"x_min":72,"x_max":677,"o":"m 72 0 l 178 1010 l 297 1010 l 259 650 l 290 650 q 371 737 317 705 q 490 770 424 770 q 629 704 581 770 q 665 527 677 638 l 610 0 l 491 0 l 544 505 q 527 619 552 581 q 443 658 501 658 q 343 628 393 658 q 247 539 294 598 l 191 0 l 72 0 z "},"ĥ":{"ha":788,"x_min":27,"x_max":677,"o":"m 72 0 l 178 1010 l 297 1010 l 259 650 l 290 650 q 371 737 317 705 q 490 770 424 770 q 629 704 581 770 q 665 527 677 638 l 610 0 l 491 0 l 544 505 q 527 619 552 581 q 443 658 501 658 q 343 628 393 658 q 247 539 294 598 l 191 0 l 72 0 m 71 1153 l 27 1222 l 239 1409 l 324 1409 l 501 1222 l 442 1153 l 270 1292 l 71 1153 z "},"i":{"ha":788,"x_min":73,"x_max":620,"o":"m 73 0 l 85 107 l 293 107 l 350 650 l 141 650 l 153 758 l 480 758 l 412 107 l 620 107 l 609 0 l 73 0 m 437 899 q 369 914 394 899 q 348 968 343 928 l 348 976 q 381 1033 354 1018 q 452 1048 409 1048 q 520 1033 495 1048 q 540 976 545 1018 l 540 968 q 507 914 535 928 q 437 899 479 899 z "},"ì":{"ha":788,"x_min":73,"x_max":620,"o":"m 73 0 l 85 107 l 293 107 l 350 650 l 141 650 l 153 758 l 480 758 l 412 107 l 620 107 l 609 0 l 73 0 m 436 884 l 253 1136 l 423 1136 l 537 884 l 436 884 z "},"í":{"ha":788,"x_min":73,"x_max":649,"o":"m 73 0 l 85 107 l 293 107 l 350 650 l 141 650 l 153 758 l 480 758 l 412 107 l 620 107 l 609 0 l 73 0 m 312 884 l 477 1136 l 649 1136 l 413 884 l 312 884 z "},"î":{"ha":788,"x_min":73,"x_max":681,"o":"m 73 0 l 85 107 l 293 107 l 350 650 l 141 650 l 153 758 l 480 758 l 412 107 l 620 107 l 609 0 l 73 0 m 250 900 l 206 970 l 418 1157 l 504 1157 l 681 970 l 621 900 l 449 1039 l 250 900 z "},"ï":{"ha":788,"x_min":73,"x_max":645,"o":"m 73 0 l 85 107 l 293 107 l 350 650 l 141 650 l 153 758 l 480 758 l 412 107 l 620 107 l 609 0 l 73 0 m 312 899 q 261 914 280 899 q 246 968 241 928 l 246 976 q 273 1033 251 1018 q 327 1048 295 1048 q 379 1033 360 1048 q 393 976 398 1018 l 393 968 q 366 914 388 928 q 312 899 343 899 m 559 899 q 508 914 527 899 q 494 968 489 928 l 494 976 q 520 1033 499 1018 q 574 1048 542 1048 q 626 1033 606 1048 q 640 976 645 1018 l 640 968 q 613 914 635 928 q 559 899 591 899 z "},"ĩ":{"ha":788,"x_min":73,"x_max":687,"o":"m 73 0 l 85 107 l 293 107 l 350 650 l 141 650 l 153 758 l 480 758 l 412 107 l 620 107 l 609 0 l 73 0 m 520 896 q 456 920 480 896 q 419 971 433 943 q 391 1021 404 999 q 360 1044 379 1044 q 320 1016 336 1044 q 299 923 304 987 l 298 909 l 210 909 l 211 928 q 265 1084 221 1021 q 378 1146 308 1146 q 445 1123 420 1146 q 482 1073 470 1100 q 508 1022 496 1045 q 537 999 519 999 q 576 1027 559 999 q 598 1120 592 1056 l 600 1134 l 687 1134 l 686 1115 q 632 958 676 1020 q 520 896 588 896 z "},"ī":{"ha":788,"x_min":73,"x_max":667,"o":"m 73 0 l 85 107 l 293 107 l 350 650 l 141 650 l 153 758 l 480 758 l 412 107 l 620 107 l 609 0 l 73 0 m 227 957 l 237 1063 l 667 1063 l 657 957 l 227 957 z "},"ĭ":{"ha":788,"x_min":73,"x_max":711,"o":"m 73 0 l 85 107 l 293 107 l 350 650 l 141 650 l 153 758 l 480 758 l 412 107 l 620 107 l 609 0 l 73 0 m 433 875 q 258 938 318 875 q 211 1136 197 1001 l 324 1136 q 345 1008 316 1045 q 443 970 375 970 q 549 1008 511 970 q 597 1136 586 1045 l 711 1136 q 621 938 694 1001 q 433 875 548 875 z "},"į":{"ha":788,"x_min":73,"x_max":620,"o":"m 437 899 q 369 914 394 899 q 348 968 343 928 l 348 976 q 381 1033 354 1018 q 452 1048 409 1048 q 520 1033 495 1048 q 540 976 545 1018 l 540 968 q 507 914 535 928 q 437 899 479 899 m 73 0 l 85 107 l 293 107 l 350 650 l 141 650 l 153 758 l 480 758 l 412 107 l 620 107 l 609 0 l 73 0 m 398 -270 q 286 -230 328 -270 q 251 -121 244 -191 q 304 -15 258 -63 q 404 56 351 33 l 428 29 q 374 -30 389 3 q 356 -87 359 -62 q 370 -141 352 -122 q 423 -160 388 -160 q 471 -157 443 -160 q 520 -148 499 -153 l 509 -258 q 453 -266 485 -263 q 398 -270 422 -270 z "},"j":{"ha":788,"x_min":47,"x_max":645,"o":"m 213 -263 q 132 -257 172 -263 q 47 -235 92 -251 l 81 -117 q 153 -140 119 -134 q 220 -145 187 -145 q 333 -110 288 -145 q 388 8 379 -76 l 455 650 l 163 650 l 174 758 l 583 758 l 503 -9 q 407 -199 490 -136 q 213 -263 323 -263 m 537 899 q 468 914 494 899 q 448 968 443 928 l 448 976 q 481 1033 453 1018 q 552 1048 509 1048 q 620 1033 595 1048 q 640 976 645 1018 l 640 968 q 607 914 635 928 q 537 899 578 899 z "},"ĵ":{"ha":788,"x_min":47,"x_max":749,"o":"m 213 -263 q 132 -257 172 -263 q 47 -235 92 -251 l 81 -117 q 153 -140 119 -134 q 220 -145 187 -145 q 333 -110 288 -145 q 388 8 379 -76 l 455 650 l 163 650 l 174 758 l 583 758 l 503 -9 q 407 -199 490 -136 q 213 -263 323 -263 m 318 900 l 274 970 l 486 1157 l 572 1157 l 749 970 l 689 900 l 518 1039 l 318 900 z "},"k":{"ha":788,"x_min":120,"x_max":706,"o":"m 275 348 l 239 0 l 120 0 l 226 1010 l 345 1010 l 285 448 l 337 448 l 567 758 l 706 758 l 426 404 l 624 0 l 491 0 l 327 348 l 275 348 z "},"ķ":{"ha":788,"x_min":120,"x_max":706,"o":"m 275 348 l 239 0 l 120 0 l 226 1010 l 345 1010 l 285 448 l 337 448 l 567 758 l 706 758 l 426 404 l 624 0 l 491 0 l 327 348 l 275 348 m 152 -379 l 275 -126 l 447 -126 l 253 -379 l 152 -379 z "},"l":{"ha":788,"x_min":74,"x_max":622,"o":"m 74 0 l 86 107 l 295 107 l 379 903 l 169 903 l 181 1010 l 509 1010 l 414 107 l 622 107 l 611 0 l 74 0 z "},"ĺ":{"ha":788,"x_min":74,"x_max":663,"o":"m 74 0 l 86 107 l 295 107 l 379 903 l 169 903 l 181 1010 l 509 1010 l 414 107 l 622 107 l 611 0 l 74 0 m 326 1136 l 491 1389 l 663 1389 l 427 1136 l 326 1136 z "},"ļ":{"ha":788,"x_min":74,"x_max":622,"o":"m 74 0 l 86 107 l 295 107 l 379 903 l 169 903 l 181 1010 l 509 1010 l 414 107 l 622 107 l 611 0 l 74 0 m 130 -379 l 254 -126 l 426 -126 l 231 -379 l 130 -379 z "},"ľ":{"ha":788,"x_min":74,"x_max":857,"o":"m 74 0 l 86 107 l 295 107 l 379 903 l 169 903 l 181 1010 l 509 1010 l 414 107 l 622 107 l 611 0 l 74 0 m 569 890 l 689 1263 l 857 1263 l 650 890 l 569 890 z "},"m":{"ha":788,"x_min":32,"x_max":721,"o":"m 196 552 l 138 0 l 32 0 l 111 758 l 217 758 l 207 665 l 230 665 q 289 744 255 716 q 361 771 322 771 q 426 744 402 771 q 456 665 451 716 l 480 665 q 540 744 505 716 q 619 771 576 771 q 696 723 672 771 q 712 588 721 676 l 650 0 l 544 0 l 605 573 q 600 649 610 624 q 567 674 590 674 q 515 643 544 674 q 452 552 485 611 l 394 0 l 288 0 l 348 573 q 344 649 354 624 q 312 674 335 674 q 259 644 288 674 q 196 552 230 614 z "},"n":{"ha":788,"x_min":72,"x_max":677,"o":"m 72 0 l 152 758 l 270 758 l 259 650 l 290 650 q 378 738 324 706 q 491 770 432 770 q 630 705 583 770 q 665 525 677 639 l 610 0 l 491 0 l 544 503 q 527 618 552 578 q 443 658 501 658 q 343 628 393 658 q 247 537 294 597 l 191 0 l 72 0 z "},"ñ":{"ha":788,"x_min":72,"x_max":708,"o":"m 72 0 l 152 758 l 270 758 l 259 650 l 290 650 q 378 738 324 706 q 491 770 432 770 q 630 705 583 770 q 665 525 677 639 l 610 0 l 491 0 l 544 503 q 527 618 552 578 q 443 658 501 658 q 343 628 393 658 q 247 537 294 597 l 191 0 l 72 0 m 542 896 q 478 920 501 896 q 441 971 455 943 q 413 1021 426 999 q 381 1044 400 1044 q 342 1016 357 1044 q 321 923 326 987 l 319 909 l 231 909 l 232 928 q 286 1084 242 1021 q 399 1146 330 1146 q 467 1123 442 1146 q 504 1073 491 1100 q 529 1022 518 1045 q 558 999 540 999 q 597 1027 581 999 q 620 1120 614 1056 l 621 1134 l 708 1134 l 707 1115 q 653 958 697 1020 q 542 896 610 896 z "},"ń":{"ha":788,"x_min":72,"x_max":677,"o":"m 72 0 l 152 758 l 270 758 l 259 650 l 290 650 q 378 738 324 706 q 491 770 432 770 q 630 705 583 770 q 665 525 677 639 l 610 0 l 491 0 l 544 503 q 527 618 552 578 q 443 658 501 658 q 343 628 393 658 q 247 537 294 597 l 191 0 l 72 0 m 333 884 l 499 1136 l 670 1136 l 434 884 l 333 884 z "},"ņ":{"ha":788,"x_min":72,"x_max":677,"o":"m 155 -379 l 279 -126 l 451 -126 l 256 -379 l 155 -379 m 72 0 l 152 758 l 270 758 l 259 650 l 290 650 q 378 738 324 706 q 491 770 432 770 q 630 705 583 770 q 665 525 677 639 l 610 0 l 491 0 l 544 503 q 527 618 552 578 q 443 658 501 658 q 343 628 393 658 q 247 537 294 597 l 191 0 l 72 0 z "},"ň":{"ha":788,"x_min":72,"x_max":713,"o":"m 72 0 l 152 758 l 270 758 l 259 650 l 290 650 q 378 738 324 706 q 491 770 432 770 q 630 705 583 770 q 665 525 677 639 l 610 0 l 491 0 l 544 503 q 527 618 552 578 q 443 658 501 658 q 343 628 393 658 q 247 537 294 597 l 191 0 l 72 0 m 414 889 l 239 1076 l 297 1145 l 470 1006 l 668 1145 l 713 1076 l 500 889 l 414 889 z "},"o":{"ha":788,"x_min":86,"x_max":676,"o":"m 340 -13 q 148 58 211 -13 q 98 258 86 129 l 124 495 q 216 698 138 626 q 423 770 294 770 q 613 699 551 770 q 662 496 676 628 l 636 258 q 546 58 624 129 q 340 -13 468 -13 m 351 95 q 468 133 427 95 q 518 255 509 172 l 543 496 q 519 622 552 582 q 410 663 486 663 q 293 622 335 663 q 242 496 251 582 l 217 255 q 242 133 208 172 q 351 95 275 95 z "},"ò":{"ha":788,"x_min":86,"x_max":676,"o":"m 340 -13 q 148 58 211 -13 q 98 258 86 129 l 124 495 q 216 698 138 626 q 423 770 294 770 q 613 699 551 770 q 662 496 676 628 l 636 258 q 546 58 624 129 q 340 -13 468 -13 m 351 95 q 468 133 427 95 q 518 255 509 172 l 543 496 q 519 622 552 582 q 410 663 486 663 q 293 622 335 663 q 242 496 251 582 l 217 255 q 242 133 208 172 q 351 95 275 95 m 433 884 l 250 1136 l 420 1136 l 534 884 l 433 884 z "},"ó":{"ha":788,"x_min":86,"x_max":676,"o":"m 340 -13 q 148 58 211 -13 q 98 258 86 129 l 124 495 q 216 698 138 626 q 423 770 294 770 q 613 699 551 770 q 662 496 676 628 l 636 258 q 546 58 624 129 q 340 -13 468 -13 m 351 95 q 468 133 427 95 q 518 255 509 172 l 543 496 q 519 622 552 582 q 410 663 486 663 q 293 622 335 663 q 242 496 251 582 l 217 255 q 242 133 208 172 q 351 95 275 95 m 312 884 l 477 1136 l 649 1136 l 413 884 l 312 884 z "},"ô":{"ha":788,"x_min":86,"x_max":681,"o":"m 340 -13 q 148 58 211 -13 q 98 258 86 129 l 124 495 q 216 698 138 626 q 423 770 294 770 q 613 699 551 770 q 662 496 676 628 l 636 258 q 546 58 624 129 q 340 -13 468 -13 m 351 95 q 468 133 427 95 q 518 255 509 172 l 543 496 q 519 622 552 582 q 410 663 486 663 q 293 622 335 663 q 242 496 251 582 l 217 255 q 242 133 208 172 q 351 95 275 95 m 250 900 l 206 970 l 418 1157 l 504 1157 l 681 970 l 621 900 l 449 1039 l 250 900 z "},"õ":{"ha":788,"x_min":86,"x_max":687,"o":"m 340 -13 q 148 58 211 -13 q 98 258 86 129 l 124 495 q 216 698 138 626 q 423 770 294 770 q 613 699 551 770 q 662 496 676 628 l 636 258 q 546 58 624 129 q 340 -13 468 -13 m 351 95 q 468 133 427 95 q 518 255 509 172 l 543 496 q 519 622 552 582 q 410 663 486 663 q 293 622 335 663 q 242 496 251 582 l 217 255 q 242 133 208 172 q 351 95 275 95 m 520 896 q 456 920 480 896 q 419 971 433 943 q 391 1021 404 999 q 360 1044 379 1044 q 320 1016 336 1044 q 299 923 304 987 l 298 909 l 210 909 l 211 928 q 265 1084 221 1021 q 378 1146 308 1146 q 445 1123 420 1146 q 482 1073 470 1100 q 508 1022 496 1045 q 537 999 519 999 q 576 1027 559 999 q 598 1120 592 1056 l 600 1134 l 687 1134 l 686 1115 q 632 958 676 1020 q 520 896 588 896 z "},"ö":{"ha":788,"x_min":86,"x_max":676,"o":"m 340 -13 q 148 58 211 -13 q 98 258 86 129 l 124 495 q 216 698 138 626 q 423 770 294 770 q 613 699 551 770 q 662 496 676 628 l 636 258 q 546 58 624 129 q 340 -13 468 -13 m 351 95 q 468 133 427 95 q 518 255 509 172 l 543 496 q 519 622 552 582 q 410 663 486 663 q 293 622 335 663 q 242 496 251 582 l 217 255 q 242 133 208 172 q 351 95 275 95 m 312 899 q 261 914 280 899 q 246 968 241 928 l 246 976 q 273 1033 251 1018 q 327 1048 295 1048 q 379 1033 360 1048 q 393 976 398 1018 l 393 968 q 366 914 388 928 q 312 899 343 899 m 559 899 q 508 914 527 899 q 494 968 489 928 l 494 976 q 520 1033 499 1018 q 574 1048 542 1048 q 626 1033 606 1048 q 640 976 645 1018 l 640 968 q 613 914 635 928 q 559 899 591 899 z "},"ō":{"ha":788,"x_min":86,"x_max":676,"o":"m 340 -13 q 148 58 211 -13 q 98 258 86 129 l 124 495 q 216 698 138 626 q 423 770 294 770 q 613 699 551 770 q 662 496 676 628 l 636 258 q 546 58 624 129 q 340 -13 468 -13 m 351 95 q 468 133 427 95 q 518 255 509 172 l 543 496 q 519 622 552 582 q 410 663 486 663 q 293 622 335 663 q 242 496 251 582 l 217 255 q 242 133 208 172 q 351 95 275 95 m 227 957 l 237 1063 l 667 1063 l 657 957 l 227 957 z "},"ŏ":{"ha":788,"x_min":86,"x_max":712,"o":"m 340 -13 q 148 58 211 -13 q 98 258 86 129 l 124 495 q 216 698 138 626 q 423 770 294 770 q 613 699 551 770 q 662 496 676 628 l 636 258 q 546 58 624 129 q 340 -13 468 -13 m 351 95 q 468 133 427 95 q 518 255 509 172 l 543 496 q 519 622 552 582 q 410 663 486 663 q 293 622 335 663 q 242 496 251 582 l 217 255 q 242 133 208 172 q 351 95 275 95 m 434 875 q 259 938 319 875 q 212 1136 198 1001 l 326 1136 q 347 1008 317 1045 q 444 970 376 970 q 550 1008 513 970 q 598 1136 587 1045 l 712 1136 q 622 938 696 1001 q 434 875 549 875 z "},"ő":{"ha":788,"x_min":86,"x_max":730,"o":"m 340 -13 q 148 58 211 -13 q 98 258 86 129 l 124 495 q 216 698 138 626 q 423 770 294 770 q 613 699 551 770 q 662 496 676 628 l 636 258 q 546 58 624 129 q 340 -13 468 -13 m 351 95 q 468 133 427 95 q 518 255 509 172 l 543 496 q 519 622 552 582 q 410 663 486 663 q 293 622 335 663 q 242 496 251 582 l 217 255 q 242 133 208 172 q 351 95 275 95 m 491 884 l 576 1136 l 730 1136 l 571 884 l 491 884 m 249 884 l 333 1136 l 487 1136 l 328 884 l 249 884 z "},"p":{"ha":788,"x_min":45,"x_max":676,"o":"m 343 91 q 467 133 424 91 q 519 263 510 176 l 544 503 q 527 620 552 582 q 441 658 503 658 q 340 628 388 658 q 246 534 293 597 l 206 141 q 268 104 235 116 q 343 91 302 91 m 337 -14 q 264 -4 302 -14 q 193 24 226 6 l 164 -253 l 45 -253 l 152 758 l 270 758 l 259 650 l 290 650 q 372 738 319 706 q 489 770 424 770 q 629 697 583 770 q 662 496 676 624 l 638 260 q 544 59 624 133 q 337 -14 463 -14 z "},"q":{"ha":788,"x_min":86,"x_max":683,"o":"m 465 -253 l 503 107 l 471 107 q 386 19 437 51 q 273 -13 335 -13 q 131 59 177 -13 q 100 261 86 131 l 124 497 q 221 699 138 626 q 429 771 304 771 q 568 753 501 771 q 683 701 634 734 l 583 -253 l 465 -253 m 321 100 q 420 131 372 100 q 515 223 468 162 l 557 625 q 494 656 529 645 q 418 667 460 667 q 298 624 345 667 q 242 495 251 582 l 220 271 q 234 142 210 184 q 321 100 259 100 z "},"r":{"ha":788,"x_min":120,"x_max":688,"o":"m 120 0 l 199 758 l 319 758 l 307 641 l 338 641 q 417 740 366 710 q 532 770 467 770 q 646 717 604 770 q 678 564 688 663 l 665 446 l 551 446 l 558 521 q 545 624 566 591 q 470 658 524 658 q 378 629 422 658 q 297 543 335 600 l 240 0 l 120 0 z "},"ŕ":{"ha":788,"x_min":120,"x_max":689,"o":"m 120 0 l 199 758 l 319 758 l 307 641 l 338 641 q 417 740 366 710 q 532 770 467 770 q 646 717 604 770 q 678 564 688 663 l 665 446 l 551 446 l 558 521 q 545 624 566 591 q 470 658 524 658 q 378 629 422 658 q 297 543 335 600 l 240 0 l 120 0 m 352 884 l 518 1136 l 689 1136 l 453 884 l 352 884 z "},"ŗ":{"ha":788,"x_min":13,"x_max":688,"o":"m 120 0 l 199 758 l 319 758 l 307 641 l 338 641 q 417 740 366 710 q 532 770 467 770 q 646 717 604 770 q 678 564 688 663 l 665 446 l 551 446 l 558 521 q 545 624 566 591 q 470 658 524 658 q 378 629 422 658 q 297 543 335 600 l 240 0 l 120 0 m 13 -379 l 136 -126 l 308 -126 l 114 -379 l 13 -379 z "},"ř":{"ha":788,"x_min":120,"x_max":732,"o":"m 120 0 l 199 758 l 319 758 l 307 641 l 338 641 q 417 740 366 710 q 532 770 467 770 q 646 717 604 770 q 678 564 688 663 l 665 446 l 551 446 l 558 521 q 545 624 566 591 q 470 658 524 658 q 378 629 422 658 q 297 543 335 600 l 240 0 l 120 0 m 433 889 l 258 1076 l 316 1145 l 489 1006 l 687 1145 l 732 1076 l 519 889 l 433 889 z "},"s":{"ha":788,"x_min":64,"x_max":667,"o":"m 351 -14 q 194 11 270 -14 q 64 87 119 37 l 121 182 q 233 117 169 141 q 364 93 297 93 q 473 117 429 93 q 524 198 518 140 q 492 280 529 256 q 354 326 456 304 q 177 404 229 354 q 135 549 125 455 q 221 713 146 655 q 403 770 295 770 q 546 743 476 770 q 667 668 616 716 l 611 573 q 511 638 567 611 q 393 664 455 664 q 296 640 333 664 q 254 559 259 615 q 284 477 247 501 q 424 429 321 452 q 600 351 549 403 q 641 208 652 299 q 549 43 630 100 q 351 -14 467 -14 z "},"":{"ha":788,"x_min":64,"x_max":667,"o":"m 351 -14 q 194 11 270 -14 q 64 87 119 37 l 121 182 q 233 117 169 141 q 364 93 297 93 q 473 117 429 93 q 524 198 518 140 q 492 280 529 256 q 354 326 456 304 q 177 404 229 354 q 135 549 125 455 q 221 713 146 655 q 403 770 295 770 q 546 743 476 770 q 667 668 616 716 l 611 573 q 511 638 567 611 q 393 664 455 664 q 296 640 333 664 q 254 559 259 615 q 284 477 247 501 q 424 429 321 452 q 600 351 549 403 q 641 208 652 299 q 549 43 630 100 q 351 -14 467 -14 z "},"ś":{"ha":788,"x_min":64,"x_max":667,"o":"m 351 -14 q 194 11 270 -14 q 64 87 119 37 l 121 182 q 233 117 169 141 q 364 93 297 93 q 473 117 429 93 q 524 198 518 140 q 492 280 529 256 q 354 326 456 304 q 177 404 229 354 q 135 549 125 455 q 221 713 146 655 q 403 770 295 770 q 546 743 476 770 q 667 668 616 716 l 611 573 q 511 638 567 611 q 393 664 455 664 q 296 640 333 664 q 254 559 259 615 q 284 477 247 501 q 424 429 321 452 q 600 351 549 403 q 641 208 652 299 q 549 43 630 100 q 351 -14 467 -14 m 312 884 l 477 1136 l 649 1136 l 413 884 l 312 884 z "},"ŝ":{"ha":788,"x_min":64,"x_max":678,"o":"m 351 -14 q 194 11 270 -14 q 64 87 119 37 l 121 182 q 233 117 169 141 q 364 93 297 93 q 473 117 429 93 q 524 198 518 140 q 492 280 529 256 q 354 326 456 304 q 177 404 229 354 q 135 549 125 455 q 221 713 146 655 q 403 770 295 770 q 546 743 476 770 q 667 668 616 716 l 611 573 q 511 638 567 611 q 393 664 455 664 q 296 640 333 664 q 254 559 259 615 q 284 477 247 501 q 424 429 321 452 q 600 351 549 403 q 641 208 652 299 q 549 43 630 100 q 351 -14 467 -14 m 247 900 l 203 970 l 415 1157 l 501 1157 l 678 970 l 619 900 l 447 1039 l 247 900 z "},"ş":{"ha":788,"x_min":64,"x_max":667,"o":"m 351 -14 q 194 11 270 -14 q 64 87 119 37 l 121 182 q 233 117 169 141 q 364 93 297 93 q 473 117 429 93 q 524 198 518 140 q 492 280 529 256 q 354 326 456 304 q 177 404 229 354 q 135 549 125 455 q 221 713 146 655 q 403 770 295 770 q 546 743 476 770 q 667 668 616 716 l 611 573 q 511 638 567 611 q 393 664 455 664 q 296 640 333 664 q 254 559 259 615 q 284 477 247 501 q 424 429 321 452 q 600 351 549 403 q 641 208 652 299 q 549 43 630 100 q 351 -14 467 -14 m 306 0 l 331 53 q 428 0 393 40 q 455 -115 463 -40 q 392 -234 447 -196 q 274 -271 337 -271 q 158 -242 202 -271 q 117 -141 115 -212 l 222 -129 q 235 -162 221 -153 q 280 -172 249 -172 q 329 -156 312 -172 q 351 -97 346 -140 q 345 -31 356 -52 q 306 0 335 -10 z "},"š":{"ha":788,"x_min":64,"x_max":689,"o":"m 351 -14 q 194 11 270 -14 q 64 87 119 37 l 121 182 q 233 117 169 141 q 364 93 297 93 q 473 117 429 93 q 524 198 518 140 q 492 280 529 256 q 354 326 456 304 q 177 404 229 354 q 135 549 125 455 q 221 713 146 655 q 403 770 295 770 q 546 743 476 770 q 667 668 616 716 l 611 573 q 511 638 567 611 q 393 664 455 664 q 296 640 333 664 q 254 559 259 615 q 284 477 247 501 q 424 429 321 452 q 600 351 549 403 q 641 208 652 299 q 549 43 630 100 q 351 -14 467 -14 m 390 889 l 215 1076 l 273 1145 l 446 1006 l 644 1145 l 689 1076 l 476 889 l 390 889 z "},"ș":{"ha":788,"x_min":64,"x_max":667,"o":"m 351 -14 q 194 11 270 -14 q 64 87 119 37 l 121 182 q 233 117 169 141 q 364 93 297 93 q 473 117 429 93 q 524 198 518 140 q 492 280 529 256 q 354 326 456 304 q 177 404 229 354 q 135 549 125 455 q 221 713 146 655 q 403 770 295 770 q 546 743 476 770 q 667 668 616 716 l 611 573 q 511 638 567 611 q 393 664 455 664 q 296 640 333 664 q 254 559 259 615 q 284 477 247 501 q 424 429 321 452 q 600 351 549 403 q 641 208 652 299 q 549 43 630 100 q 351 -14 467 -14 m 135 -379 l 259 -126 l 431 -126 l 236 -379 l 135 -379 z "},"t":{"ha":788,"x_min":117,"x_max":692,"o":"m 457 -11 q 292 52 347 -11 q 249 232 237 116 l 293 650 l 117 650 l 129 758 l 304 758 l 331 1010 l 449 1010 l 423 758 l 692 758 l 681 650 l 412 650 l 369 246 q 388 138 362 174 q 471 101 413 101 q 546 108 510 101 q 615 126 582 115 l 622 18 q 549 -3 593 6 q 457 -11 504 -11 z "},"ţ":{"ha":788,"x_min":117,"x_max":692,"o":"m 457 -11 q 292 52 347 -11 q 249 232 237 116 l 293 650 l 117 650 l 129 758 l 304 758 l 331 1010 l 449 1010 l 423 758 l 692 758 l 681 650 l 412 650 l 369 246 q 388 138 362 174 q 471 101 413 101 q 546 108 510 101 q 615 126 582 115 l 622 18 q 549 -3 593 6 q 457 -11 504 -11 m 375 0 l 400 53 q 497 0 462 40 q 524 -115 533 -40 q 461 -234 516 -196 q 343 -271 407 -271 q 228 -242 271 -271 q 187 -141 184 -212 l 292 -129 q 304 -162 290 -153 q 350 -172 318 -172 q 398 -156 381 -172 q 420 -97 415 -140 q 415 -31 426 -52 q 375 0 404 -10 z "},"ť":{"ha":788,"x_min":117,"x_max":794,"o":"m 457 -11 q 292 52 347 -11 q 249 232 237 116 l 293 650 l 117 650 l 129 758 l 304 758 l 331 1010 l 449 1010 l 423 758 l 692 758 l 681 650 l 412 650 l 369 246 q 388 138 362 174 q 471 101 413 101 q 546 108 510 101 q 615 126 582 115 l 622 18 q 549 -3 593 6 q 457 -11 504 -11 m 506 890 l 626 1263 l 794 1263 l 587 890 l 506 890 z "},"ț":{"ha":788,"x_min":117,"x_max":692,"o":"m 457 -11 q 292 52 347 -11 q 249 232 237 116 l 293 650 l 117 650 l 129 758 l 304 758 l 331 1010 l 449 1010 l 423 758 l 692 758 l 681 650 l 412 650 l 369 246 q 388 138 362 174 q 471 101 413 101 q 546 108 510 101 q 615 126 582 115 l 622 18 q 549 -3 593 6 q 457 -11 504 -11 m 159 -379 l 283 -126 l 455 -126 l 260 -379 l 159 -379 z "},"u":{"ha":788,"x_min":85,"x_max":689,"o":"m 271 -13 q 133 55 181 -13 q 96 232 85 122 l 152 758 l 270 758 l 217 253 q 235 138 210 177 q 318 100 260 100 q 418 130 369 100 q 514 218 467 160 l 571 758 l 689 758 l 610 0 l 491 0 l 503 107 l 471 107 q 390 20 444 53 q 271 -13 336 -13 z "},"ù":{"ha":788,"x_min":85,"x_max":689,"o":"m 271 -13 q 133 55 181 -13 q 96 232 85 122 l 152 758 l 270 758 l 217 253 q 235 138 210 177 q 318 100 260 100 q 418 130 369 100 q 514 218 467 160 l 571 758 l 689 758 l 610 0 l 491 0 l 503 107 l 471 107 q 390 20 444 53 q 271 -13 336 -13 m 407 884 l 223 1136 l 394 1136 l 508 884 l 407 884 z "},"ú":{"ha":788,"x_min":85,"x_max":692,"o":"m 271 -13 q 133 55 181 -13 q 96 232 85 122 l 152 758 l 270 758 l 217 253 q 235 138 210 177 q 318 100 260 100 q 418 130 369 100 q 514 218 467 160 l 571 758 l 689 758 l 610 0 l 491 0 l 503 107 l 471 107 q 390 20 444 53 q 271 -13 336 -13 m 355 884 l 520 1136 l 692 1136 l 456 884 l 355 884 z "},"û":{"ha":788,"x_min":85,"x_max":689,"o":"m 271 -13 q 133 55 181 -13 q 96 232 85 122 l 152 758 l 270 758 l 217 253 q 235 138 210 177 q 318 100 260 100 q 418 130 369 100 q 514 218 467 160 l 571 758 l 689 758 l 610 0 l 491 0 l 503 107 l 471 107 q 390 20 444 53 q 271 -13 336 -13 m 251 900 l 207 970 l 419 1157 l 505 1157 l 682 970 l 622 900 l 451 1039 l 251 900 z "},"ü":{"ha":788,"x_min":85,"x_max":689,"o":"m 271 -13 q 133 55 181 -13 q 96 232 85 122 l 152 758 l 270 758 l 217 253 q 235 138 210 177 q 318 100 260 100 q 418 130 369 100 q 514 218 467 160 l 571 758 l 689 758 l 610 0 l 491 0 l 503 107 l 471 107 q 390 20 444 53 q 271 -13 336 -13 m 313 899 q 262 914 282 899 q 247 968 242 928 l 247 976 q 275 1033 253 1018 q 328 1048 297 1048 q 380 1033 361 1048 q 394 976 399 1018 l 394 968 q 367 914 389 928 q 313 899 345 899 m 561 899 q 509 914 528 899 q 495 968 490 928 l 495 976 q 521 1033 500 1018 q 576 1048 543 1048 q 627 1033 607 1048 q 641 976 646 1018 l 641 968 q 614 914 636 928 q 561 899 592 899 z "},"ũ":{"ha":788,"x_min":85,"x_max":689,"o":"m 271 -13 q 133 55 181 -13 q 96 232 85 122 l 152 758 l 270 758 l 217 253 q 235 138 210 177 q 318 100 260 100 q 418 130 369 100 q 514 218 467 160 l 571 758 l 689 758 l 610 0 l 491 0 l 503 107 l 471 107 q 390 20 444 53 q 271 -13 336 -13 m 520 896 q 456 920 480 896 q 419 971 433 943 q 391 1021 404 999 q 360 1044 379 1044 q 320 1016 336 1044 q 299 923 304 987 l 298 909 l 210 909 l 211 928 q 265 1084 221 1021 q 378 1146 308 1146 q 445 1123 420 1146 q 482 1073 470 1100 q 508 1022 496 1045 q 537 999 519 999 q 576 1027 559 999 q 598 1120 592 1056 l 600 1134 l 687 1134 l 686 1115 q 632 958 676 1020 q 520 896 588 896 z "},"ū":{"ha":788,"x_min":85,"x_max":689,"o":"m 271 -13 q 133 55 181 -13 q 96 232 85 122 l 152 758 l 270 758 l 217 253 q 235 138 210 177 q 318 100 260 100 q 418 130 369 100 q 514 218 467 160 l 571 758 l 689 758 l 610 0 l 491 0 l 503 107 l 471 107 q 390 20 444 53 q 271 -13 336 -13 m 227 957 l 237 1063 l 667 1063 l 657 957 l 227 957 z "},"ŭ":{"ha":788,"x_min":85,"x_max":712,"o":"m 271 -13 q 133 55 181 -13 q 96 232 85 122 l 152 758 l 270 758 l 217 253 q 235 138 210 177 q 318 100 260 100 q 418 130 369 100 q 514 218 467 160 l 571 758 l 689 758 l 610 0 l 491 0 l 503 107 l 471 107 q 390 20 444 53 q 271 -13 336 -13 m 434 875 q 259 938 319 875 q 212 1136 198 1001 l 326 1136 q 347 1008 317 1045 q 444 970 376 970 q 550 1008 513 970 q 598 1136 587 1045 l 712 1136 q 622 938 696 1001 q 434 875 549 875 z "},"ů":{"ha":788,"x_min":85,"x_max":689,"o":"m 271 -13 q 133 55 181 -13 q 96 232 85 122 l 152 758 l 270 758 l 217 253 q 235 138 210 177 q 318 100 260 100 q 418 130 369 100 q 514 218 467 160 l 571 758 l 689 758 l 610 0 l 491 0 l 503 107 l 471 107 q 390 20 444 53 q 271 -13 336 -13 m 433 866 q 311 911 355 866 q 277 1048 268 956 l 282 1088 q 344 1228 290 1182 q 476 1274 398 1274 q 598 1228 556 1274 q 633 1088 641 1182 l 628 1048 q 565 911 619 956 q 433 866 511 866 m 442 953 q 508 975 484 953 q 537 1048 532 996 l 542 1088 q 528 1163 547 1139 q 467 1187 509 1187 q 401 1163 424 1187 q 372 1088 378 1139 l 367 1048 q 381 975 362 996 q 442 953 399 953 z "},"ű":{"ha":788,"x_min":85,"x_max":749,"o":"m 271 -13 q 133 55 181 -13 q 96 232 85 122 l 152 758 l 270 758 l 217 253 q 235 138 210 177 q 318 100 260 100 q 418 130 369 100 q 514 218 467 160 l 571 758 l 689 758 l 610 0 l 491 0 l 503 107 l 471 107 q 390 20 444 53 q 271 -13 336 -13 m 510 884 l 595 1136 l 749 1136 l 590 884 l 510 884 m 268 884 l 352 1136 l 506 1136 l 347 884 l 268 884 z "},"ų":{"ha":788,"x_min":85,"x_max":689,"o":"m 554 -270 q 443 -230 485 -270 q 408 -121 400 -191 q 461 -15 414 -63 q 561 56 508 33 l 585 29 q 530 -30 545 3 q 513 -87 515 -62 q 527 -141 509 -122 q 580 -160 544 -160 q 628 -157 600 -160 q 677 -148 655 -153 l 665 -258 q 610 -266 641 -263 q 554 -270 578 -270 m 271 -13 q 133 55 181 -13 q 96 232 85 122 l 152 758 l 270 758 l 217 253 q 235 138 210 177 q 318 100 260 100 q 418 130 369 100 q 514 218 467 160 l 571 758 l 689 758 l 610 0 l 491 0 l 503 107 l 471 107 q 390 20 444 53 q 271 -13 336 -13 z "},"v":{"ha":788,"x_min":126,"x_max":713,"o":"m 415 0 l 265 0 l 126 758 l 251 758 l 354 104 l 592 758 l 713 758 l 415 0 z "},"w":{"ha":788,"x_min":90,"x_max":753,"o":"m 433 0 l 393 496 l 254 0 l 125 0 l 90 758 l 199 758 l 207 111 l 343 633 l 467 633 l 503 120 l 641 758 l 753 758 l 557 0 l 433 0 z "},"":{"ha":788,"x_min":90,"x_max":753,"o":"m 433 0 l 393 496 l 254 0 l 125 0 l 90 758 l 199 758 l 207 111 l 343 633 l 467 633 l 503 120 l 641 758 l 753 758 l 557 0 l 433 0 z "},"ŵ":{"ha":788,"x_min":90,"x_max":753,"o":"m 433 0 l 393 496 l 254 0 l 125 0 l 90 758 l 199 758 l 207 111 l 343 633 l 467 633 l 503 120 l 641 758 l 753 758 l 557 0 l 433 0 m 251 900 l 207 970 l 419 1157 l 505 1157 l 682 970 l 622 900 l 451 1039 l 251 900 z "},"ẁ":{"ha":788,"x_min":90,"x_max":753,"o":"m 433 0 l 393 496 l 254 0 l 125 0 l 90 758 l 199 758 l 207 111 l 343 633 l 467 633 l 503 120 l 641 758 l 753 758 l 557 0 l 433 0 m 433 884 l 250 1136 l 420 1136 l 534 884 l 433 884 z "},"ẃ":{"ha":788,"x_min":90,"x_max":753,"o":"m 433 0 l 393 496 l 254 0 l 125 0 l 90 758 l 199 758 l 207 111 l 343 633 l 467 633 l 503 120 l 641 758 l 753 758 l 557 0 l 433 0 m 318 884 l 484 1136 l 655 1136 l 419 884 l 318 884 z "},"ẅ":{"ha":788,"x_min":90,"x_max":753,"o":"m 433 0 l 393 496 l 254 0 l 125 0 l 90 758 l 199 758 l 207 111 l 343 633 l 467 633 l 503 120 l 641 758 l 753 758 l 557 0 l 433 0 m 313 899 q 262 914 282 899 q 247 968 242 928 l 247 976 q 275 1033 253 1018 q 328 1048 297 1048 q 380 1033 361 1048 q 394 976 399 1018 l 394 968 q 367 914 389 928 q 313 899 345 899 m 561 899 q 509 914 528 899 q 495 968 490 928 l 495 976 q 521 1033 500 1018 q 576 1048 543 1048 q 627 1033 607 1048 q 641 976 646 1018 l 641 968 q 614 914 636 928 q 561 899 592 899 z "},"x":{"ha":788,"x_min":56,"x_max":703,"o":"m 492 0 l 362 280 l 183 0 l 56 0 l 317 381 l 144 758 l 273 758 l 396 491 l 576 758 l 703 758 l 443 388 l 622 0 l 492 0 z "},"y":{"ha":788,"x_min":24,"x_max":717,"o":"m 138 -259 q 81 -255 110 -259 q 24 -246 53 -251 l 51 -140 q 105 -150 81 -146 q 150 -154 130 -154 q 245 -121 207 -154 q 312 -18 283 -88 l 316 -5 l 261 -5 l 124 758 l 250 758 l 354 100 l 595 758 l 717 758 l 415 -27 q 295 -208 366 -158 q 138 -259 223 -259 z "},"":{"ha":788,"x_min":24,"x_max":717,"o":"m 138 -259 q 81 -255 110 -259 q 24 -246 53 -251 l 51 -140 q 105 -150 81 -146 q 150 -154 130 -154 q 245 -121 207 -154 q 312 -18 283 -88 l 316 -5 l 261 -5 l 124 758 l 250 758 l 354 100 l 595 758 l 717 758 l 415 -27 q 295 -208 366 -158 q 138 -259 223 -259 z "},"ý":{"ha":788,"x_min":24,"x_max":717,"o":"m 138 -259 q 81 -255 110 -259 q 24 -246 53 -251 l 51 -140 q 105 -150 81 -146 q 150 -154 130 -154 q 245 -121 207 -154 q 312 -18 283 -88 l 316 -5 l 261 -5 l 124 758 l 250 758 l 354 100 l 595 758 l 717 758 l 415 -27 q 295 -208 366 -158 q 138 -259 223 -259 m 312 884 l 477 1136 l 649 1136 l 413 884 l 312 884 z "},"ÿ":{"ha":788,"x_min":24,"x_max":717,"o":"m 138 -259 q 81 -255 110 -259 q 24 -246 53 -251 l 51 -140 q 105 -150 81 -146 q 150 -154 130 -154 q 245 -121 207 -154 q 312 -18 283 -88 l 316 -5 l 261 -5 l 124 758 l 250 758 l 354 100 l 595 758 l 717 758 l 415 -27 q 295 -208 366 -158 q 138 -259 223 -259 m 312 899 q 261 914 280 899 q 246 968 241 928 l 246 976 q 273 1033 251 1018 q 327 1048 295 1048 q 379 1033 360 1048 q 393 976 398 1018 l 393 968 q 366 914 388 928 q 312 899 343 899 m 559 899 q 508 914 527 899 q 494 968 489 928 l 494 976 q 520 1033 499 1018 q 574 1048 542 1048 q 626 1033 606 1048 q 640 976 645 1018 l 640 968 q 613 914 635 928 q 559 899 591 899 z "},"ŷ":{"ha":788,"x_min":24,"x_max":717,"o":"m 138 -259 q 81 -255 110 -259 q 24 -246 53 -251 l 51 -140 q 105 -150 81 -146 q 150 -154 130 -154 q 245 -121 207 -154 q 312 -18 283 -88 l 316 -5 l 261 -5 l 124 758 l 250 758 l 354 100 l 595 758 l 717 758 l 415 -27 q 295 -208 366 -158 q 138 -259 223 -259 m 250 900 l 206 970 l 418 1157 l 504 1157 l 681 970 l 621 900 l 449 1039 l 250 900 z "},"ỳ":{"ha":788,"x_min":24,"x_max":717,"o":"m 138 -259 q 81 -255 110 -259 q 24 -246 53 -251 l 51 -140 q 105 -150 81 -146 q 150 -154 130 -154 q 245 -121 207 -154 q 312 -18 283 -88 l 316 -5 l 261 -5 l 124 758 l 250 758 l 354 100 l 595 758 l 717 758 l 415 -27 q 295 -208 366 -158 q 138 -259 223 -259 m 433 884 l 250 1136 l 420 1136 l 534 884 l 433 884 z "},"z":{"ha":788,"x_min":92,"x_max":669,"o":"m 590 0 l 92 0 l 104 107 l 524 650 l 160 650 l 172 758 l 669 758 l 658 650 l 245 107 l 601 107 l 590 0 z "},"ź":{"ha":788,"x_min":92,"x_max":669,"o":"m 590 0 l 92 0 l 104 107 l 524 650 l 160 650 l 172 758 l 669 758 l 658 650 l 245 107 l 601 107 l 590 0 m 318 884 l 484 1136 l 655 1136 l 419 884 l 318 884 z "},"ż":{"ha":788,"x_min":92,"x_max":669,"o":"m 590 0 l 92 0 l 104 107 l 524 650 l 160 650 l 172 758 l 669 758 l 658 650 l 245 107 l 601 107 l 590 0 m 442 899 q 374 914 399 899 q 354 968 348 928 l 354 976 q 386 1033 359 1018 q 457 1048 414 1048 q 525 1033 500 1048 q 545 976 551 1018 l 545 968 q 512 914 540 928 q 442 899 484 899 z "},"ž":{"ha":788,"x_min":92,"x_max":689,"o":"m 590 0 l 92 0 l 104 107 l 524 650 l 160 650 l 172 758 l 669 758 l 658 650 l 245 107 l 601 107 l 590 0 m 390 889 l 215 1076 l 273 1145 l 446 1006 l 644 1145 l 689 1076 l 476 889 l 390 889 z "},"ª":{"ha":788,"x_min":135,"x_max":668,"o":"m 331 500 q 407 520 370 500 q 475 587 443 539 l 482 662 l 341 662 q 275 645 302 662 q 245 583 249 628 q 259 521 240 542 q 331 500 279 500 m 298 410 q 179 453 222 410 q 144 577 135 496 q 204 698 152 653 q 324 742 256 742 l 491 742 l 500 823 q 482 903 505 871 q 407 934 460 934 q 324 915 354 934 q 271 828 295 896 l 184 855 q 263 979 208 934 q 414 1023 317 1023 q 558 977 505 1023 q 602 837 611 931 l 574 581 q 590 516 569 530 q 668 510 610 503 l 659 415 q 547 432 583 410 q 513 523 510 453 l 494 523 q 412 443 465 475 q 298 410 360 410 z "},"º":{"ha":788,"x_min":164,"x_max":667,"o":"m 384 410 q 220 468 275 410 q 176 635 164 525 l 192 792 q 271 964 203 905 q 448 1023 340 1023 q 612 964 557 1023 q 655 792 667 905 l 639 635 q 560 468 628 525 q 384 410 492 410 m 394 501 q 495 532 460 501 q 538 633 530 563 l 554 793 q 533 897 562 864 q 438 931 504 931 q 337 897 372 931 q 294 793 302 864 l 278 633 q 299 532 270 563 q 394 501 328 501 z "},"ß":{"ha":788,"x_min":-3,"x_max":722,"o":"m 453 -8 q 331 22 389 -8 q 236 106 273 52 l 303 201 q 378 132 333 162 q 472 102 422 102 q 557 128 524 102 q 596 208 591 153 q 575 290 602 264 q 476 336 548 316 q 335 406 388 362 q 293 549 282 449 q 369 702 303 646 q 534 765 434 758 q 495 876 533 840 q 393 913 457 913 q 275 866 324 913 q 216 721 226 818 l 114 -253 l -3 -253 l 101 736 q 201 946 116 871 q 405 1020 285 1020 q 596 942 530 1020 q 648 734 662 864 l 643 681 q 475 652 535 679 q 409 561 415 624 q 436 485 403 506 q 552 439 470 463 q 677 369 633 415 q 711 217 722 322 q 627 51 699 109 q 453 -8 554 -8 z "},"æ":{"ha":788,"x_min":13,"x_max":747,"o":"m 699 181 q 628 35 677 82 q 492 -13 580 -13 q 394 15 433 -13 q 340 101 355 43 l 322 101 q 255 19 294 51 q 158 -13 216 -13 q 53 44 93 -13 q 24 205 13 100 q 90 359 34 303 q 216 415 146 415 l 340 415 l 351 529 q 340 636 359 595 q 274 677 321 677 q 211 653 232 677 q 164 553 191 630 l 78 583 q 153 725 105 679 q 285 770 202 770 q 366 749 332 770 q 417 687 400 729 q 484 750 446 730 q 568 770 521 770 q 701 708 655 770 q 734 518 747 646 l 717 356 l 427 356 l 413 226 q 424 111 404 146 q 491 76 443 76 q 561 99 539 76 q 600 188 583 122 l 699 181 m 444 524 l 434 434 l 624 434 l 633 513 q 622 641 641 600 q 557 682 604 682 q 481 643 510 682 q 444 524 452 604 m 314 176 l 331 338 l 237 338 q 165 311 194 338 q 129 211 136 283 q 135 112 121 148 q 191 77 149 77 q 256 104 226 77 q 314 176 285 130 z "},"ǽ":{"ha":788,"x_min":13,"x_max":747,"o":"m 699 181 q 628 35 677 82 q 492 -13 580 -13 q 394 15 433 -13 q 340 101 355 43 l 322 101 q 255 19 294 51 q 158 -13 216 -13 q 53 44 93 -13 q 24 205 13 100 q 90 359 34 303 q 216 415 146 415 l 340 415 l 351 529 q 340 636 359 595 q 274 677 321 677 q 211 653 232 677 q 164 553 191 630 l 78 583 q 153 725 105 679 q 285 770 202 770 q 366 749 332 770 q 417 687 400 729 q 484 750 446 730 q 568 770 521 770 q 701 708 655 770 q 734 518 747 646 l 717 356 l 427 356 l 413 226 q 424 111 404 146 q 491 76 443 76 q 561 99 539 76 q 600 188 583 122 l 699 181 m 444 524 l 434 434 l 624 434 l 633 513 q 622 641 641 600 q 557 682 604 682 q 481 643 510 682 q 444 524 452 604 m 314 176 l 331 338 l 237 338 q 165 311 194 338 q 129 211 136 283 q 135 112 121 148 q 191 77 149 77 q 256 104 226 77 q 314 176 285 130 m 371 884 l 537 1136 l 708 1136 l 472 884 l 371 884 z "},"ð":{"ha":788,"x_min":85,"x_max":758,"o":"m 340 -13 q 152 57 218 -13 q 98 268 85 126 l 111 379 q 197 563 122 495 q 378 631 271 631 q 484 604 444 631 q 535 538 523 576 l 559 538 q 551 681 562 617 q 514 792 540 744 l 302 683 l 312 782 l 461 857 q 384 914 429 889 q 282 958 338 938 l 330 1037 q 461 980 404 1013 q 559 908 519 947 l 758 1009 l 747 910 l 611 842 q 662 684 650 774 q 662 477 673 593 l 640 275 q 542 56 624 125 q 340 -13 461 -13 m 352 95 q 473 138 434 95 q 520 266 511 181 l 530 364 q 509 483 539 443 q 398 523 480 523 q 277 483 316 523 q 229 364 237 443 l 218 266 q 240 138 210 181 q 352 95 270 95 z "},"ø":{"ha":788,"x_min":62,"x_max":699,"o":"m 213 255 q 213 198 211 223 q 226 154 215 173 l 479 652 q 448 659 465 657 q 410 662 431 662 q 289 622 331 662 q 239 496 247 582 l 213 255 m 351 96 q 472 134 431 96 q 521 255 513 172 l 547 496 q 548 554 551 528 q 537 600 545 581 l 284 105 q 314 98 297 100 q 351 96 331 96 m 340 -13 q 288 -9 313 -13 q 240 1 263 -6 l 170 -126 l 62 -126 l 157 48 q 105 133 121 81 q 97 258 90 186 l 122 495 q 220 702 138 634 q 423 770 303 770 q 476 767 451 770 q 524 756 501 764 l 591 884 l 699 884 l 606 708 q 655 621 640 676 q 663 495 670 567 l 638 258 q 542 54 624 120 q 340 -13 460 -13 z "},"ǿ":{"ha":788,"x_min":62,"x_max":699,"o":"m 213 255 q 213 198 211 223 q 226 154 215 173 l 479 652 q 448 659 465 657 q 410 662 431 662 q 289 622 331 662 q 239 496 247 582 l 213 255 m 351 96 q 472 134 431 96 q 521 255 513 172 l 547 496 q 548 554 551 528 q 537 600 545 581 l 284 105 q 314 98 297 100 q 351 96 331 96 m 340 -13 q 288 -9 313 -13 q 240 1 263 -6 l 170 -126 l 62 -126 l 157 48 q 105 133 121 81 q 97 258 90 186 l 122 495 q 220 702 138 634 q 423 770 303 770 q 476 767 451 770 q 524 756 501 764 l 591 884 l 699 884 l 606 708 q 655 621 640 676 q 663 495 670 567 l 638 258 q 542 54 624 120 q 340 -13 460 -13 m 318 884 l 484 1136 l 655 1136 l 419 884 l 318 884 z "},"þ":{"ha":788,"x_min":45,"x_max":676,"o":"m 343 91 q 467 132 426 91 q 519 263 509 173 l 544 503 q 528 621 553 583 q 441 658 503 658 q 340 628 386 658 q 246 534 293 598 l 206 141 q 270 103 237 115 q 343 91 303 91 m 337 -14 q 263 -4 301 -14 q 193 24 225 6 l 164 -253 l 45 -253 l 178 1010 l 297 1010 l 259 650 l 290 650 q 372 739 319 707 q 489 770 424 770 q 629 698 583 770 q 662 496 676 626 l 638 260 q 544 58 624 130 q 337 -14 465 -14 z "},"đ":{"ha":788,"x_min":86,"x_max":809,"o":"m 321 100 q 421 131 372 100 q 515 223 470 162 l 549 557 q 485 593 520 581 q 410 606 451 606 q 290 563 333 606 q 239 434 247 520 l 222 271 q 237 143 212 186 q 321 100 261 100 m 471 107 q 389 19 441 51 q 273 -13 337 -13 q 132 59 178 -13 q 100 261 86 131 l 117 437 q 211 639 131 567 q 418 711 290 711 q 492 701 455 711 q 562 673 529 691 l 576 799 l 370 799 l 380 898 l 586 898 l 597 1010 l 716 1010 l 705 898 l 809 898 l 799 799 l 694 799 l 610 0 l 491 0 l 503 107 l 471 107 z "},"ħ":{"ha":788,"x_min":52,"x_max":672,"o":"m 240 471 l 191 0 l 72 0 l 157 799 l 52 799 l 62 898 l 167 898 l 178 1010 l 297 1010 l 285 898 l 491 898 l 481 799 l 275 799 l 251 581 l 283 581 q 367 675 311 640 q 491 710 423 710 q 626 650 580 710 q 662 489 672 591 l 610 0 l 491 0 l 539 462 q 521 564 547 530 q 437 597 496 597 q 338 566 388 597 q 240 471 289 534 z "},"ı":{"ha":788,"x_min":73,"x_max":620,"o":"m 73 0 l 85 107 l 293 107 l 350 650 l 141 650 l 153 758 l 480 758 l 412 107 l 620 107 l 609 0 l 73 0 z "},"ĳ":{"ha":788,"x_min":92,"x_max":750,"o":"m 244 899 q 177 914 201 899 q 158 968 153 928 l 158 976 q 189 1033 163 1018 q 259 1048 216 1048 q 326 1033 302 1048 q 345 976 350 1018 l 345 968 q 313 914 340 928 q 244 899 285 899 m 644 899 q 577 914 601 899 q 558 968 553 928 l 558 976 q 590 1033 563 1018 q 659 1048 616 1048 q 725 1033 701 1048 q 745 976 750 1018 l 745 968 q 712 914 740 928 q 644 899 684 899 m 208 0 l 92 0 l 172 758 l 288 758 l 208 0 m 345 -263 q 275 -256 309 -263 q 201 -235 240 -250 l 235 -117 q 295 -139 268 -133 q 352 -145 323 -145 q 449 -110 410 -145 q 496 8 487 -76 l 563 650 l 427 650 l 438 758 l 691 758 l 610 -9 q 521 -199 597 -136 q 345 -263 446 -263 z "},"ĸ":{"ha":788,"x_min":120,"x_max":706,"o":"m 275 348 l 239 0 l 120 0 l 199 758 l 318 758 l 285 448 l 337 448 l 567 758 l 706 758 l 426 404 l 624 0 l 491 0 l 327 348 l 275 348 z "},"ŀ":{"ha":788,"x_min":74,"x_max":886,"o":"m 74 0 l 86 107 l 295 107 l 379 903 l 169 903 l 181 1010 l 509 1010 l 414 107 l 622 107 l 611 0 l 74 0 m 778 389 q 710 403 735 389 q 689 458 684 418 l 689 466 q 722 523 694 508 q 793 538 750 538 q 861 523 836 538 q 881 466 886 508 l 881 458 q 848 403 876 418 q 778 389 819 389 z "},"ł":{"ha":788,"x_min":74,"x_max":622,"o":"m 74 0 l 86 107 l 295 107 l 331 446 l 167 395 l 177 491 l 341 542 l 379 903 l 169 903 l 181 1010 l 509 1010 l 463 580 l 619 629 l 609 533 l 453 484 l 414 107 l 622 107 l 611 0 l 74 0 z "},"ŉ":{"ha":788,"x_min":48,"x_max":677,"o":"m 72 0 l 152 758 l 270 758 l 259 650 l 290 650 q 378 738 324 706 q 491 770 432 770 q 630 705 583 770 q 665 525 677 639 l 610 0 l 491 0 l 544 503 q 527 618 552 578 q 443 658 501 658 q 343 628 393 658 q 247 537 294 597 l 191 0 l 72 0 m 48 884 l 213 1136 l 385 1136 l 149 884 l 48 884 z "},"ŋ":{"ha":788,"x_min":72,"x_max":678,"o":"m 364 -263 q 299 -255 332 -263 q 231 -235 265 -247 l 264 -117 q 319 -138 293 -130 q 370 -145 346 -145 q 450 -114 418 -145 q 490 -9 482 -83 l 544 510 q 528 621 553 583 q 443 658 503 658 q 344 628 393 658 q 247 537 295 598 l 191 0 l 72 0 l 152 758 l 270 758 l 259 650 l 290 650 q 379 738 324 706 q 495 770 433 770 q 632 707 586 770 q 665 534 678 644 l 607 -25 q 525 -204 595 -145 q 364 -263 456 -263 z "},"œ":{"ha":788,"x_min":18,"x_max":745,"o":"m 697 167 q 628 32 676 76 q 492 -13 580 -13 q 400 10 438 -13 q 345 80 362 33 q 275 10 316 33 q 188 -13 235 -13 q 62 55 106 -13 q 33 263 18 122 l 57 490 q 131 701 72 633 q 271 770 189 770 q 353 747 318 770 q 407 677 388 723 q 474 747 433 723 q 564 770 515 770 q 698 711 652 770 q 732 529 745 653 l 715 356 l 427 356 l 412 216 q 422 108 404 140 q 490 76 441 76 q 561 96 538 76 q 598 174 585 116 l 697 167 m 446 537 l 434 434 l 619 434 l 629 525 q 617 644 636 606 q 552 682 598 682 q 480 646 506 682 q 446 537 453 610 m 210 80 q 283 122 256 80 q 321 260 311 164 l 345 490 q 336 632 355 586 q 271 678 318 678 q 199 632 226 678 q 162 491 172 586 l 138 260 q 146 122 128 164 q 210 80 164 80 z "},"ŧ":{"ha":788,"x_min":117,"x_max":692,"o":"m 457 -11 q 292 52 347 -11 q 249 232 237 116 l 263 357 l 122 357 l 134 467 l 274 467 l 293 650 l 117 650 l 129 758 l 304 758 l 331 1010 l 449 1010 l 423 758 l 692 758 l 681 650 l 412 650 l 393 467 l 626 467 l 615 357 l 381 357 l 369 246 q 388 138 362 174 q 471 101 413 101 q 546 108 510 101 q 615 126 582 115 l 622 18 q 549 -3 593 6 q 457 -11 504 -11 z "},"ſ":{"ha":788,"x_min":223,"x_max":725,"o":"m 255 -253 l 350 650 l 223 650 l 235 758 l 361 758 l 366 809 q 440 962 376 905 q 591 1019 504 1019 q 662 1009 625 1019 q 725 986 699 999 l 693 885 q 645 903 670 895 q 592 910 619 910 q 520 887 548 910 q 486 813 491 864 l 374 -253 l 255 -253 z "},"ȷ":{"ha":788,"x_min":47,"x_max":583,"o":"m 213 -263 q 132 -257 172 -263 q 47 -235 92 -251 l 81 -117 q 153 -140 119 -134 q 220 -145 187 -145 q 333 -110 288 -145 q 388 8 379 -76 l 455 650 l 163 650 l 174 758 l 583 758 l 503 -9 q 407 -199 490 -136 q 213 -263 323 -263 z "},"":{"ha":788,"x_min":47,"x_max":583,"o":"m 213 -263 q 132 -257 172 -263 q 47 -235 92 -251 l 81 -117 q 153 -140 119 -134 q 220 -145 187 -145 q 333 -110 288 -145 q 388 8 379 -76 l 455 650 l 163 650 l 174 758 l 583 758 l 503 -9 q 407 -199 490 -136 q 213 -263 323 -263 z "},"α":{"ha":788,"x_min":77,"x_max":691,"o":"m 301 100 q 392 129 348 100 q 482 223 436 159 l 514 534 q 445 627 482 597 q 360 657 408 657 q 275 614 306 657 q 234 486 244 572 l 212 271 q 224 143 202 186 q 301 100 246 100 m 499 120 l 467 120 q 379 21 434 54 q 256 -13 324 -13 q 122 58 168 -13 q 91 261 77 129 l 116 499 q 189 699 129 628 q 338 770 250 770 q 437 739 396 770 q 495 649 477 707 l 527 649 l 538 758 l 657 758 l 597 196 q 613 112 591 131 q 691 106 635 93 l 679 -5 q 545 13 591 -18 q 499 120 499 43 z "},"ά":{"ha":788,"x_min":77,"x_max":691,"o":"m 301 100 q 392 129 348 100 q 482 223 436 159 l 514 534 q 445 627 482 597 q 360 657 408 657 q 275 614 306 657 q 234 486 244 572 l 212 271 q 224 143 202 186 q 301 100 246 100 m 499 120 l 467 120 q 379 21 434 54 q 256 -13 324 -13 q 122 58 168 -13 q 91 261 77 129 l 116 499 q 189 699 129 628 q 338 770 250 770 q 437 739 396 770 q 495 649 477 707 l 527 649 l 538 758 l 657 758 l 597 196 q 613 112 591 131 q 691 106 635 93 l 679 -5 q 545 13 591 -18 q 499 120 499 43 m 409 884 l 511 1136 l 673 1136 l 500 884 l 409 884 z "},"β":{"ha":788,"x_min":45,"x_max":669,"o":"m 341 90 q 465 135 422 90 q 518 277 508 181 l 524 332 q 497 448 532 412 q 380 484 462 484 l 332 484 l 343 592 l 385 592 q 492 626 455 592 q 537 731 529 659 l 539 754 q 519 878 548 838 q 420 918 490 918 q 315 876 352 918 q 269 746 278 835 l 206 139 q 266 102 234 114 q 341 90 299 90 m 337 -13 q 261 -3 298 -13 q 193 24 225 8 l 164 -253 l 45 -253 l 150 740 q 241 951 164 879 q 432 1023 317 1023 q 608 958 547 1023 q 657 774 669 893 l 654 740 q 613 625 646 672 q 514 566 580 578 l 510 529 q 617 468 581 520 q 646 345 653 417 l 639 278 q 539 61 624 134 q 337 -13 455 -13 z "},"γ":{"ha":788,"x_min":124,"x_max":717,"o":"m 385 -253 l 244 -253 l 284 25 l 124 758 l 250 758 l 364 181 l 593 758 l 717 758 l 403 25 l 385 -253 z "},"δ":{"ha":788,"x_min":83,"x_max":665,"o":"m 340 -13 q 151 56 218 -13 q 98 265 83 124 l 112 399 q 170 535 121 480 q 292 620 220 590 q 203 696 227 654 q 187 804 179 739 q 263 960 198 910 q 443 1010 327 1010 l 641 1010 l 630 903 l 432 903 q 336 884 369 903 q 299 812 304 866 q 324 739 294 765 q 462 674 355 713 q 624 571 582 628 q 654 414 665 515 l 639 265 q 542 56 624 124 q 340 -13 461 -13 m 351 95 q 469 134 427 95 q 520 265 511 174 l 535 414 q 503 519 543 481 q 361 588 463 557 q 275 518 311 564 q 231 399 239 472 l 217 265 q 242 134 208 174 q 351 95 275 95 z "},"ε":{"ha":788,"x_min":64,"x_max":672,"o":"m 345 -13 q 130 43 196 -13 q 77 212 64 98 l 78 223 q 131 337 85 289 q 260 391 177 385 l 263 419 q 160 459 196 424 q 131 554 125 494 l 134 571 q 216 721 144 672 q 427 770 288 770 q 613 717 554 770 q 668 545 672 663 l 553 535 q 522 638 553 611 q 415 664 491 664 q 295 641 332 664 q 251 564 258 619 l 250 547 q 276 480 245 500 q 386 461 307 461 l 446 461 l 436 362 l 376 362 q 245 333 285 362 q 198 235 205 304 l 196 222 q 225 122 189 152 q 356 92 261 92 q 482 122 442 92 q 540 236 523 153 l 653 227 q 560 42 630 97 q 345 -13 490 -13 z "},"έ":{"ha":788,"x_min":64,"x_max":672,"o":"m 345 -13 q 130 43 196 -13 q 77 212 64 98 l 78 223 q 131 337 85 289 q 260 391 177 385 l 263 419 q 160 459 196 424 q 131 554 125 494 l 134 571 q 216 721 144 672 q 427 770 288 770 q 613 717 554 770 q 668 545 672 663 l 553 535 q 522 638 553 611 q 415 664 491 664 q 295 641 332 664 q 251 564 258 619 l 250 547 q 276 480 245 500 q 386 461 307 461 l 446 461 l 436 362 l 376 362 q 245 333 285 362 q 198 235 205 304 l 196 222 q 225 122 189 152 q 356 92 261 92 q 482 122 442 92 q 540 236 523 153 l 653 227 q 560 42 630 97 q 345 -13 490 -13 m 356 884 l 458 1136 l 620 1136 l 447 884 l 356 884 z "},"ζ":{"ha":788,"x_min":85,"x_max":735,"o":"m 376 -253 l 254 -253 l 265 -144 l 400 -144 q 464 -128 439 -144 q 494 -61 489 -111 q 478 5 499 -11 q 418 21 457 21 l 331 21 q 144 100 203 21 q 97 299 85 178 q 143 455 106 383 q 227 582 181 527 l 414 799 l 409 814 q 227 859 290 801 q 152 1023 163 917 l 250 1040 q 323 924 256 952 q 497 926 390 895 l 707 1037 l 735 904 l 566 843 l 321 537 q 253 433 283 490 q 217 311 223 376 q 241 179 208 229 q 342 130 273 130 l 432 130 q 568 85 521 130 q 604 -62 614 40 q 532 -203 593 -154 q 376 -253 471 -253 z "},"η":{"ha":788,"x_min":72,"x_max":678,"o":"m 465 -253 l 544 510 q 528 621 553 583 q 443 658 503 658 q 344 628 393 658 q 247 537 295 598 l 191 0 l 72 0 l 152 758 l 270 758 l 259 650 l 290 650 q 379 738 324 706 q 495 770 433 770 q 632 707 586 770 q 665 534 678 644 l 583 -253 l 465 -253 z "},"ή":{"ha":788,"x_min":72,"x_max":678,"o":"m 465 -253 l 544 510 q 528 621 553 583 q 443 658 503 658 q 344 628 393 658 q 247 537 295 598 l 191 0 l 72 0 l 152 758 l 270 758 l 259 650 l 290 650 q 379 738 324 706 q 495 770 433 770 q 632 707 586 770 q 665 534 678 644 l 583 -253 l 465 -253 m 364 884 l 466 1136 l 628 1136 l 455 884 l 364 884 z "},"θ":{"ha":788,"x_min":86,"x_max":702,"o":"m 340 -13 q 150 60 213 -13 q 101 274 86 133 l 149 731 q 243 949 164 875 q 449 1023 322 1023 q 639 949 576 1023 q 687 731 702 875 l 639 274 q 545 60 624 133 q 340 -13 467 -13 m 266 732 l 249 567 l 552 567 l 569 732 q 547 871 580 827 q 437 915 514 915 q 319 871 361 915 q 266 732 277 827 m 351 95 q 470 137 428 95 q 521 273 511 179 l 540 456 l 237 456 l 218 273 q 242 137 208 179 q 351 95 275 95 z "},"ι":{"ha":788,"x_min":122,"x_max":631,"o":"m 492 -6 q 342 56 393 -6 q 303 227 292 117 l 347 650 l 122 650 l 134 758 l 477 758 l 420 221 q 437 131 414 162 q 511 101 460 101 q 566 107 535 101 q 619 125 597 114 l 631 21 q 566 1 602 9 q 492 -6 529 -6 z "},"ΐ":{"ha":788,"x_min":122,"x_max":691,"o":"m 492 -6 q 342 56 393 -6 q 303 227 292 117 l 347 650 l 122 650 l 134 758 l 477 758 l 420 221 q 437 131 414 162 q 511 101 460 101 q 566 107 535 101 q 619 125 597 114 l 631 21 q 566 1 602 9 q 492 -6 529 -6 m 354 884 l 429 1136 l 561 1136 l 424 884 l 354 884 m 234 885 q 189 900 206 885 q 177 955 173 914 l 178 962 q 202 1019 183 1004 q 249 1034 221 1034 q 292 1019 277 1034 q 303 962 308 1004 l 302 955 q 279 900 298 914 q 234 885 260 885 m 615 885 q 571 900 587 885 q 559 955 556 914 l 561 962 q 584 1019 566 1004 q 630 1034 602 1034 q 674 1019 658 1034 q 686 962 691 1004 l 684 955 q 662 900 681 914 q 615 885 643 885 z "},"ί":{"ha":788,"x_min":122,"x_max":631,"o":"m 492 -6 q 342 56 393 -6 q 303 227 292 117 l 347 650 l 122 650 l 134 758 l 477 758 l 420 221 q 437 131 414 162 q 511 101 460 101 q 566 107 535 101 q 619 125 597 114 l 631 21 q 566 1 602 9 q 492 -6 529 -6 m 350 884 l 452 1136 l 614 1136 l 441 884 l 350 884 z "},"ϊ":{"ha":788,"x_min":122,"x_max":640,"o":"m 492 -6 q 342 56 393 -6 q 303 227 292 117 l 347 650 l 122 650 l 134 758 l 477 758 l 420 221 q 437 131 414 162 q 511 101 460 101 q 566 107 535 101 q 619 125 597 114 l 631 21 q 566 1 602 9 q 492 -6 529 -6 m 307 899 q 256 914 275 899 q 241 968 236 928 l 241 976 q 268 1033 246 1018 q 322 1048 290 1048 q 374 1033 355 1048 q 388 976 393 1018 l 388 968 q 360 914 383 928 q 307 899 338 899 m 554 899 q 503 914 521 899 q 489 968 484 928 l 489 976 q 515 1033 494 1018 q 569 1048 537 1048 q 621 1033 601 1048 q 635 976 640 1018 l 635 968 q 608 914 630 928 q 554 899 586 899 z "},"κ":{"ha":788,"x_min":120,"x_max":706,"o":"m 275 348 l 239 0 l 120 0 l 199 758 l 318 758 l 285 448 l 337 448 l 567 758 l 706 758 l 426 404 l 624 0 l 491 0 l 327 348 l 275 348 z "},"λ":{"ha":788,"x_min":44,"x_max":638,"o":"m 511 0 l 408 660 l 168 0 l 44 0 l 340 769 l 390 769 l 386 794 q 350 884 378 855 q 269 913 323 913 q 222 910 247 913 q 164 898 196 907 l 157 1003 q 216 1013 187 1009 q 271 1016 245 1016 q 413 974 359 1016 q 485 837 467 932 l 638 0 l 511 0 z "},"μ":{"ha":788,"x_min":37,"x_max":681,"o":"m 194 25 l 177 -253 l 37 -253 l 76 25 l 153 758 l 271 758 l 217 244 q 240 133 210 167 q 318 98 270 98 q 400 125 364 98 q 472 198 437 152 l 530 758 l 649 758 l 590 196 q 604 112 583 130 q 681 106 625 93 l 669 -5 q 552 15 590 -18 q 515 129 514 48 l 494 129 q 409 25 456 62 q 302 -13 362 -13 q 241 2 269 -13 q 197 47 213 16 l 194 25 z "},"ν":{"ha":788,"x_min":124,"x_max":717,"o":"m 402 0 l 279 0 l 124 758 l 246 758 l 366 91 q 515 428 456 259 q 600 758 573 597 l 717 758 q 590 354 674 544 q 402 0 506 163 z "},"ξ":{"ha":788,"x_min":88,"x_max":706,"o":"m 621 -62 q 550 -203 611 -154 q 394 -253 489 -253 l 277 -253 l 288 -144 l 418 -144 q 482 -128 457 -144 q 511 -61 506 -111 q 496 5 516 -11 q 436 21 475 21 l 328 21 q 150 85 212 21 q 101 259 88 149 l 104 294 q 165 431 112 371 q 313 499 218 490 l 316 528 q 227 566 255 528 q 206 663 199 605 q 236 747 211 711 q 313 806 261 784 l 316 835 q 171 891 222 841 q 109 1023 120 941 l 207 1040 q 285 951 216 979 q 455 937 355 923 l 679 1037 l 706 904 l 471 833 l 423 802 q 352 735 375 768 q 324 664 330 703 q 340 588 319 610 q 394 566 360 566 l 593 566 l 582 457 l 383 457 q 269 415 307 457 q 225 313 231 374 l 221 278 q 244 171 215 212 q 348 130 274 130 l 449 130 q 585 85 539 130 q 621 -62 631 40 z "},"ο":{"ha":788,"x_min":86,"x_max":676,"o":"m 340 -13 q 148 58 211 -13 q 98 258 86 129 l 124 495 q 216 698 138 626 q 423 770 294 770 q 613 699 551 770 q 662 496 676 628 l 636 258 q 546 58 624 129 q 340 -13 468 -13 m 351 95 q 468 133 427 95 q 518 255 509 172 l 543 496 q 519 622 552 582 q 410 663 486 663 q 293 622 335 663 q 242 496 251 582 l 217 255 q 242 133 208 172 q 351 95 275 95 z "},"ό":{"ha":788,"x_min":86,"x_max":676,"o":"m 340 -13 q 148 58 211 -13 q 98 258 86 129 l 124 495 q 216 698 138 626 q 423 770 294 770 q 613 699 551 770 q 662 496 676 628 l 636 258 q 546 58 624 129 q 340 -13 468 -13 m 351 95 q 468 133 427 95 q 518 255 509 172 l 543 496 q 519 622 552 582 q 410 663 486 663 q 293 622 335 663 q 242 496 251 582 l 217 255 q 242 133 208 172 q 351 95 275 95 m 354 884 l 456 1136 l 617 1136 l 444 884 l 354 884 z "},"π":{"ha":788,"x_min":78,"x_max":718,"o":"m 718 758 l 707 650 l 586 650 l 538 196 q 556 113 532 131 q 653 106 580 95 l 641 -5 q 460 18 514 -18 q 417 144 407 53 l 470 650 l 295 650 l 227 0 l 112 0 l 181 650 l 78 650 l 90 758 l 718 758 z "},"ρ":{"ha":788,"x_min":45,"x_max":676,"o":"m 381 100 q 477 142 443 100 q 520 271 510 184 l 543 495 q 519 622 552 581 q 410 663 486 663 q 294 622 336 663 q 242 495 251 581 l 215 223 q 287 130 246 160 q 381 100 328 100 m 45 -253 l 124 495 q 217 701 138 630 q 422 771 297 771 q 612 701 548 771 q 662 495 676 630 l 638 261 q 560 58 624 129 q 402 -13 496 -13 q 295 18 340 -13 q 234 107 251 49 l 202 107 l 164 -253 l 45 -253 z "},"ς":{"ha":788,"x_min":90,"x_max":659,"o":"m 259 -253 l 270 -145 l 404 -145 q 466 -129 442 -145 q 495 -62 490 -112 q 480 5 500 -11 q 422 21 460 21 l 331 21 q 143 94 197 21 q 104 304 90 167 l 124 492 q 210 699 138 628 q 426 770 283 770 q 605 704 552 770 q 654 499 659 638 l 540 492 q 517 626 545 588 q 412 663 489 663 q 292 626 332 663 q 244 503 253 588 l 221 289 q 243 167 212 205 q 350 129 274 129 l 441 129 q 573 83 528 129 q 607 -63 617 38 q 535 -204 597 -155 q 375 -253 473 -253 l 259 -253 z "},"σ":{"ha":788,"x_min":85,"x_max":789,"o":"m 331 95 q 431 132 395 95 q 476 255 467 169 l 497 455 q 480 602 508 556 q 389 649 453 649 q 287 609 324 649 q 241 482 250 568 l 217 255 q 237 132 208 169 q 331 95 266 95 m 319 -13 q 147 54 210 -13 q 98 258 85 120 l 122 481 q 213 686 136 614 q 400 758 290 758 l 789 758 l 777 638 l 552 662 q 605 581 588 631 q 615 460 622 530 l 593 258 q 504 54 580 120 q 319 -13 429 -13 z "},"τ":{"ha":788,"x_min":139,"x_max":701,"o":"m 527 -5 q 340 18 394 -16 q 297 144 287 52 l 350 653 l 139 653 l 150 758 l 701 758 l 689 653 l 468 653 l 419 179 q 439 112 414 129 q 538 106 463 95 l 527 -5 z "},"υ":{"ha":788,"x_min":85,"x_max":689,"o":"m 340 -13 q 147 56 210 -13 q 98 254 85 125 l 152 758 l 270 758 l 217 251 q 241 129 208 165 q 351 92 274 92 q 468 129 428 92 q 518 251 509 165 l 571 758 l 689 758 l 636 254 q 546 56 622 125 q 340 -13 470 -13 z "},"ΰ":{"ha":788,"x_min":85,"x_max":701,"o":"m 340 -13 q 147 56 210 -13 q 98 254 85 125 l 152 758 l 270 758 l 217 251 q 241 129 208 165 q 351 92 274 92 q 468 129 428 92 q 518 251 509 165 l 571 758 l 689 758 l 636 254 q 546 56 622 125 q 340 -13 470 -13 m 364 884 l 439 1136 l 571 1136 l 434 884 l 364 884 m 244 885 q 199 900 216 885 q 187 955 183 914 l 188 962 q 212 1019 193 1004 q 259 1034 231 1034 q 302 1019 287 1034 q 313 962 318 1004 l 312 955 q 289 900 308 914 q 244 885 270 885 m 625 885 q 581 900 597 885 q 569 955 566 914 l 571 962 q 594 1019 576 1004 q 640 1034 612 1034 q 684 1019 668 1034 q 696 962 701 1004 l 694 955 q 672 900 691 914 q 625 885 653 885 z "},"ϋ":{"ha":788,"x_min":85,"x_max":689,"o":"m 340 -13 q 147 56 210 -13 q 98 254 85 125 l 152 758 l 270 758 l 217 251 q 241 129 208 165 q 351 92 274 92 q 468 129 428 92 q 518 251 509 165 l 571 758 l 689 758 l 636 254 q 546 56 622 125 q 340 -13 470 -13 m 312 899 q 261 914 280 899 q 246 968 241 928 l 246 976 q 273 1033 251 1018 q 327 1048 295 1048 q 379 1033 360 1048 q 393 976 398 1018 l 393 968 q 366 914 388 928 q 312 899 343 899 m 559 899 q 508 914 527 899 q 494 968 489 928 l 494 976 q 520 1033 499 1018 q 574 1048 542 1048 q 626 1033 606 1048 q 640 976 645 1018 l 640 968 q 613 914 635 928 q 559 899 591 899 z "},"ύ":{"ha":788,"x_min":85,"x_max":689,"o":"m 340 -13 q 147 56 210 -13 q 98 254 85 125 l 152 758 l 270 758 l 217 251 q 241 129 208 165 q 351 92 274 92 q 468 129 428 92 q 518 251 509 165 l 571 758 l 689 758 l 636 254 q 546 56 622 125 q 340 -13 470 -13 m 352 884 l 455 1136 l 616 1136 l 443 884 l 352 884 z "},"φ":{"ha":788,"x_min":49,"x_max":712,"o":"m 367 -253 l 261 -253 l 287 -9 q 109 89 168 5 q 64 316 49 173 l 77 438 q 117 629 88 543 q 187 780 145 715 l 283 740 q 222 607 250 683 q 183 438 193 530 l 170 316 q 192 155 160 213 q 299 83 223 97 l 370 758 l 471 758 q 649 671 586 758 q 693 404 712 585 l 684 322 q 590 90 669 174 q 393 -9 510 5 l 367 -253 m 461 665 l 400 83 q 525 157 480 97 q 581 322 569 216 l 590 404 q 571 602 604 539 q 461 665 538 665 z "},"χ":{"ha":788,"x_min":30,"x_max":705,"o":"m 456 -253 l 343 122 l 145 -253 l 30 -253 l 306 246 l 153 758 l 270 758 l 386 375 l 590 758 l 705 758 l 423 253 l 576 -253 l 456 -253 z "},"ψ":{"ha":788,"x_min":48,"x_max":730,"o":"m 367 -253 l 261 -253 l 287 -9 q 104 78 159 4 q 61 280 48 153 l 111 758 l 218 758 l 168 277 q 189 149 159 191 q 299 98 220 107 l 369 758 l 472 758 l 403 98 q 524 148 485 107 q 572 277 563 189 l 622 758 l 730 758 l 679 280 q 595 78 667 153 q 393 -9 523 4 l 367 -253 z "},"ω":{"ha":788,"x_min":47,"x_max":705,"o":"m 189 -13 q 82 63 117 -13 q 62 283 47 139 l 74 407 q 117 625 86 521 q 177 779 148 729 l 273 739 q 222 602 253 696 q 182 407 192 509 l 169 283 q 173 140 159 188 q 225 92 187 92 q 285 128 263 92 q 314 246 307 164 l 351 583 l 455 583 l 418 246 q 425 128 410 164 q 477 92 439 92 q 539 140 515 92 q 573 283 563 188 l 586 407 q 586 602 596 509 q 563 739 576 696 l 669 779 q 696 625 688 729 q 693 407 705 521 l 681 283 q 614 63 665 139 q 490 -13 562 -13 q 405 26 438 -13 q 364 148 371 64 l 348 148 q 283 26 323 64 q 189 -13 242 -13 z "},"ώ":{"ha":788,"x_min":47,"x_max":705,"o":"m 189 -13 q 82 63 117 -13 q 62 283 47 139 l 74 407 q 117 625 86 521 q 177 779 148 729 l 273 739 q 222 602 253 696 q 182 407 192 509 l 169 283 q 173 140 159 188 q 225 92 187 92 q 285 128 263 92 q 314 246 307 164 l 351 583 l 455 583 l 418 246 q 425 128 410 164 q 477 92 439 92 q 539 140 515 92 q 573 283 563 188 l 586 407 q 586 602 596 509 q 563 739 576 696 l 669 779 q 696 625 688 729 q 693 407 705 521 l 681 283 q 614 63 665 139 q 490 -13 562 -13 q 405 26 438 -13 q 364 148 371 64 l 348 148 q 283 26 323 64 q 189 -13 242 -13 m 364 884 l 466 1136 l 628 1136 l 455 884 l 364 884 z "},"а":{"ha":788,"x_min":52,"x_max":691,"o":"m 275 92 q 379 116 333 92 q 461 194 426 140 l 475 324 l 303 324 q 218 299 250 324 q 181 211 187 274 q 196 123 174 154 q 275 92 217 92 m 245 -13 q 104 42 155 -13 q 63 202 52 97 q 137 359 73 302 q 290 415 201 415 l 485 415 l 497 535 q 473 628 503 593 q 379 663 444 663 q 275 635 311 663 q 213 525 240 607 l 114 556 q 214 717 145 663 q 389 770 283 770 q 562 716 497 770 q 615 552 626 662 l 577 189 q 599 109 571 128 q 691 106 628 91 l 679 -5 q 550 9 598 -18 q 503 117 501 35 l 481 117 q 382 24 446 61 q 245 -13 318 -13 z "},"б":{"ha":788,"x_min":85,"x_max":678,"o":"m 340 -13 q 152 56 218 -13 q 101 273 85 124 l 141 664 q 233 876 157 801 q 437 979 309 951 l 673 1028 l 678 928 l 446 879 q 305 802 352 859 q 245 630 258 746 l 241 592 l 266 592 q 336 655 288 628 q 452 682 385 682 q 614 613 559 682 q 657 426 669 544 l 640 268 q 543 56 625 125 q 340 -13 461 -13 m 351 95 q 472 138 433 95 q 519 266 510 181 l 534 414 q 513 533 543 494 q 402 573 484 573 q 281 533 319 573 q 234 414 242 494 l 218 266 q 239 138 210 181 q 351 95 269 95 z "},"в":{"ha":788,"x_min":72,"x_max":681,"o":"m 72 0 l 152 758 l 415 758 q 617 710 554 758 q 670 564 681 663 l 669 548 q 620 453 663 487 q 508 413 577 418 l 505 385 q 624 333 588 379 q 653 223 659 288 l 652 212 q 563 52 640 105 q 336 0 485 0 l 72 0 m 236 446 l 391 446 q 511 465 477 446 q 551 535 544 484 l 552 553 q 527 631 558 610 q 407 652 495 652 l 258 652 l 236 446 m 201 105 l 350 105 q 489 130 449 105 q 535 222 529 155 l 538 235 q 511 323 544 299 q 381 347 477 347 l 226 347 l 201 105 z "},"г":{"ha":788,"x_min":124,"x_max":696,"o":"m 124 0 l 203 758 l 696 758 l 684 653 l 311 653 l 242 0 l 124 0 z "},"ѓ":{"ha":788,"x_min":124,"x_max":720,"o":"m 124 0 l 203 758 l 696 758 l 684 653 l 311 653 l 242 0 l 124 0 m 383 884 l 548 1136 l 720 1136 l 484 884 l 383 884 z "},"д":{"ha":788,"x_min":-9,"x_max":682,"o":"m 229 138 l 226 105 l 463 105 l 520 653 l 328 653 l 290 313 q 268 214 283 258 q 229 138 254 170 m 128 0 l 107 -189 l -9 -189 l 23 105 l 95 105 q 148 185 128 133 q 179 321 169 237 l 229 758 l 646 758 l 578 105 l 682 105 l 650 -189 l 534 -189 l 554 0 l 128 0 z "},"е":{"ha":788,"x_min":85,"x_max":676,"o":"m 631 165 q 526 30 590 72 q 341 -13 462 -13 q 150 56 215 -13 q 100 259 85 124 l 124 495 q 221 702 139 634 q 423 770 303 770 q 610 700 544 770 q 660 486 676 630 l 648 356 l 229 356 l 218 259 q 242 129 208 168 q 351 90 275 90 q 461 116 423 90 q 524 198 499 141 l 631 165 m 242 492 l 237 447 l 538 447 l 542 481 q 520 623 552 578 q 412 668 487 668 q 294 624 336 668 q 242 492 251 581 z "},"ѐ":{"ha":788,"x_min":85,"x_max":676,"o":"m 631 165 q 526 30 590 72 q 341 -13 462 -13 q 150 56 215 -13 q 100 259 85 124 l 124 495 q 221 702 139 634 q 423 770 303 770 q 610 700 544 770 q 660 486 676 630 l 648 356 l 229 356 l 218 259 q 242 129 208 168 q 351 90 275 90 q 461 116 423 90 q 524 198 499 141 l 631 165 m 242 492 l 237 447 l 538 447 l 542 481 q 520 623 552 578 q 412 668 487 668 q 294 624 336 668 q 242 492 251 581 m 434 884 l 251 1136 l 422 1136 l 535 884 l 434 884 z "},"ё":{"ha":788,"x_min":85,"x_max":676,"o":"m 631 165 q 526 30 590 72 q 341 -13 462 -13 q 150 56 215 -13 q 100 259 85 124 l 124 495 q 221 702 139 634 q 423 770 303 770 q 610 700 544 770 q 660 486 676 630 l 648 356 l 229 356 l 218 259 q 242 129 208 168 q 351 90 275 90 q 461 116 423 90 q 524 198 499 141 l 631 165 m 242 492 l 237 447 l 538 447 l 542 481 q 520 623 552 578 q 412 668 487 668 q 294 624 336 668 q 242 492 251 581 m 313 899 q 262 914 282 899 q 247 968 242 928 l 247 976 q 275 1033 253 1018 q 328 1048 297 1048 q 380 1033 361 1048 q 394 976 399 1018 l 394 968 q 367 914 389 928 q 313 899 345 899 m 561 899 q 509 914 528 899 q 495 968 490 928 l 495 976 q 521 1033 500 1018 q 576 1048 543 1048 q 627 1033 607 1048 q 641 976 646 1018 l 641 968 q 614 914 636 928 q 561 899 592 899 z "},"ж":{"ha":788,"x_min":-1,"x_max":766,"o":"m 293 365 l 112 0 l -1 0 l 222 414 l 74 758 l 189 758 l 306 460 l 338 460 l 370 758 l 471 758 l 439 460 l 471 460 l 650 758 l 766 758 l 544 414 l 684 0 l 568 0 l 463 365 l 429 365 l 391 0 l 290 0 l 328 365 l 293 365 z "},"з":{"ha":788,"x_min":73,"x_max":681,"o":"m 336 -13 q 131 42 189 -13 q 78 227 73 96 l 193 236 q 227 121 192 149 q 347 92 261 92 q 484 121 443 92 q 533 222 525 149 l 535 235 q 508 335 543 307 q 383 362 473 362 l 323 362 l 333 461 l 393 461 q 508 479 472 461 q 549 547 543 497 l 551 564 q 524 643 557 621 q 407 664 491 664 q 295 638 331 664 q 245 535 260 612 l 130 545 q 219 718 150 665 q 418 770 288 770 q 617 723 553 770 q 670 571 681 676 l 668 554 q 619 459 662 494 q 509 419 577 424 l 506 391 q 623 337 587 385 q 653 223 659 289 l 652 212 q 564 43 639 98 q 336 -13 490 -13 z "},"и":{"ha":788,"x_min":72,"x_max":689,"o":"m 500 0 l 564 609 l 221 0 l 72 0 l 152 758 l 261 758 l 196 136 l 548 758 l 689 758 l 610 0 l 500 0 z "},"й":{"ha":788,"x_min":72,"x_max":689,"o":"m 500 0 l 564 609 l 221 0 l 72 0 l 152 758 l 261 758 l 196 136 l 548 758 l 689 758 l 610 0 l 500 0 m 433 875 q 277 931 338 875 q 230 1124 216 986 l 345 1136 q 357 1008 336 1045 q 443 970 379 970 q 537 1008 508 970 q 577 1136 566 1045 l 689 1124 q 600 931 673 986 q 433 875 528 875 z "},"ѝ":{"ha":788,"x_min":72,"x_max":689,"o":"m 500 0 l 564 609 l 221 0 l 72 0 l 152 758 l 261 758 l 196 136 l 548 758 l 689 758 l 610 0 l 500 0 m 436 884 l 253 1136 l 423 1136 l 537 884 l 436 884 z "},"к":{"ha":788,"x_min":120,"x_max":706,"o":"m 275 348 l 239 0 l 120 0 l 199 758 l 318 758 l 285 448 l 337 448 l 567 758 l 706 758 l 426 404 l 624 0 l 491 0 l 327 348 l 275 348 z "},"ќ":{"ha":788,"x_min":120,"x_max":716,"o":"m 275 348 l 239 0 l 120 0 l 199 758 l 318 758 l 285 448 l 337 448 l 567 758 l 706 758 l 426 404 l 624 0 l 491 0 l 327 348 l 275 348 m 379 884 l 544 1136 l 716 1136 l 480 884 l 379 884 z "},"л":{"ha":788,"x_min":-3,"x_max":691,"o":"m 492 0 l 561 650 l 340 650 l 299 298 q 225 64 282 140 q 77 -11 168 -11 q 34 -7 54 -11 q -3 3 14 -3 l 27 106 q 53 97 42 101 q 74 93 64 93 q 148 144 122 93 q 187 314 174 194 l 237 758 l 691 758 l 611 0 l 492 0 z "},"м":{"ha":788,"x_min":62,"x_max":699,"o":"m 304 189 l 232 659 l 167 0 l 62 0 l 141 758 l 308 758 l 376 308 l 538 758 l 699 758 l 620 0 l 515 0 l 585 653 l 418 189 l 304 189 z "},"н":{"ha":788,"x_min":72,"x_max":689,"o":"m 72 0 l 152 758 l 270 758 l 242 491 l 543 491 l 571 758 l 689 758 l 610 0 l 491 0 l 532 385 l 231 385 l 191 0 l 72 0 z "},"о":{"ha":788,"x_min":86,"x_max":676,"o":"m 340 -13 q 148 58 211 -13 q 98 258 86 129 l 124 495 q 216 698 138 626 q 423 770 294 770 q 613 699 551 770 q 662 496 676 628 l 636 258 q 546 58 624 129 q 340 -13 468 -13 m 351 95 q 468 133 427 95 q 518 255 509 172 l 543 496 q 519 622 552 582 q 410 663 486 663 q 293 622 335 663 q 242 496 251 582 l 217 255 q 242 133 208 172 q 351 95 275 95 z "},"п":{"ha":788,"x_min":72,"x_max":689,"o":"m 72 0 l 152 758 l 689 758 l 610 0 l 491 0 l 559 653 l 259 653 l 191 0 l 72 0 z "},"р":{"ha":788,"x_min":45,"x_max":676,"o":"m 343 91 q 467 133 424 91 q 519 263 510 176 l 544 503 q 527 620 552 582 q 441 658 503 658 q 340 628 388 658 q 246 534 293 597 l 206 141 q 268 104 235 116 q 343 91 302 91 m 337 -14 q 264 -4 302 -14 q 193 24 226 6 l 164 -253 l 45 -253 l 152 758 l 270 758 l 259 650 l 290 650 q 372 738 319 706 q 489 770 424 770 q 629 697 583 770 q 662 496 676 624 l 638 260 q 544 59 624 133 q 337 -14 463 -14 z "},"с":{"ha":788,"x_min":86,"x_max":679,"o":"m 354 -13 q 149 57 212 -13 q 98 255 86 128 l 124 495 q 217 699 138 629 q 434 770 295 770 q 620 707 561 770 q 674 513 679 644 l 558 506 q 530 629 563 596 q 422 663 497 663 q 297 624 342 663 q 242 497 253 586 l 217 255 q 246 133 208 172 q 364 95 283 95 q 478 122 439 95 q 529 226 516 150 l 643 220 q 552 44 622 100 q 354 -13 481 -13 z "},"т":{"ha":788,"x_min":111,"x_max":718,"o":"m 282 0 l 350 653 l 111 653 l 122 758 l 718 758 l 707 653 l 468 653 l 400 0 l 282 0 z "},"у":{"ha":788,"x_min":24,"x_max":717,"o":"m 138 -259 q 81 -255 110 -259 q 24 -246 53 -251 l 51 -140 q 105 -150 81 -146 q 150 -154 130 -154 q 245 -121 207 -154 q 312 -18 283 -88 l 316 -5 l 261 -5 l 124 758 l 250 758 l 354 100 l 595 758 l 717 758 l 415 -27 q 295 -208 366 -158 q 138 -259 223 -259 z "},"ў":{"ha":788,"x_min":24,"x_max":717,"o":"m 138 -259 q 81 -255 110 -259 q 24 -246 53 -251 l 51 -140 q 105 -150 81 -146 q 150 -154 130 -154 q 245 -121 207 -154 q 312 -18 283 -88 l 316 -5 l 261 -5 l 124 758 l 250 758 l 354 100 l 595 758 l 717 758 l 415 -27 q 295 -208 366 -158 q 138 -259 223 -259 m 433 875 q 277 931 338 875 q 230 1124 216 986 l 345 1136 q 357 1008 336 1045 q 443 970 379 970 q 537 1008 508 970 q 577 1136 566 1045 l 689 1124 q 600 931 673 986 q 433 875 528 875 z "},"ф":{"ha":788,"x_min":48,"x_max":713,"o":"m 428 0 l 394 0 l 367 -253 l 261 -253 l 288 0 l 254 0 q 98 81 149 0 q 64 307 48 162 l 78 449 q 162 677 95 596 q 333 758 229 758 l 367 758 l 394 1010 l 500 1010 l 473 758 l 508 758 q 663 677 612 758 q 697 449 713 596 l 683 307 q 600 81 667 162 q 428 0 533 0 m 279 104 l 306 104 l 364 655 l 337 655 q 234 602 273 655 q 184 444 196 549 l 170 309 q 187 155 159 207 q 279 104 215 104 m 484 655 l 457 655 l 399 104 l 426 104 q 528 155 490 104 q 577 309 566 207 l 591 444 q 575 602 602 549 q 484 655 548 655 z "},"х":{"ha":788,"x_min":56,"x_max":703,"o":"m 492 0 l 362 280 l 183 0 l 56 0 l 317 381 l 144 758 l 273 758 l 396 491 l 576 758 l 703 758 l 443 388 l 622 0 l 492 0 z "},"ц":{"ha":788,"x_min":72,"x_max":676,"o":"m 530 -189 l 551 0 l 72 0 l 152 758 l 270 758 l 202 105 l 455 105 l 523 758 l 641 758 l 573 105 l 676 105 l 644 -189 l 530 -189 z "},"ч":{"ha":788,"x_min":91,"x_max":641,"o":"m 641 758 l 562 0 l 443 0 l 471 270 q 405 255 444 261 q 330 249 366 249 q 148 313 205 249 q 105 504 91 378 l 131 758 l 250 758 l 223 506 q 249 388 215 423 q 356 352 283 354 q 424 359 389 352 q 482 378 458 366 l 523 758 l 641 758 z "},"ш":{"ha":788,"x_min":32,"x_max":730,"o":"m 32 0 l 111 758 l 217 758 l 148 96 l 298 96 l 367 758 l 473 758 l 404 96 l 554 96 l 624 758 l 730 758 l 650 0 l 32 0 z "},"щ":{"ha":788,"x_min":32,"x_max":730,"o":"m 686 -189 l 580 -189 l 600 0 l 32 0 l 111 758 l 217 758 l 148 96 l 298 96 l 367 758 l 473 758 l 404 96 l 554 96 l 624 758 l 730 758 l 662 107 l 717 107 l 686 -189 z "},"ъ":{"ha":788,"x_min":40,"x_max":683,"o":"m 417 0 l 130 0 l 198 653 l 40 653 l 52 758 l 328 758 l 302 500 l 470 500 q 629 441 576 500 q 672 279 683 383 l 667 227 q 589 61 655 121 q 417 0 523 0 m 260 107 l 405 107 q 508 135 473 107 q 548 225 542 163 l 553 279 q 532 367 559 340 q 436 395 504 395 l 290 395 l 260 107 z "},"ы":{"ha":788,"x_min":51,"x_max":711,"o":"m 51 0 l 130 758 l 236 758 l 208 497 l 293 497 q 430 438 384 497 q 465 273 476 379 l 460 229 q 391 61 448 121 q 242 0 333 0 l 51 0 m 525 0 l 605 758 l 711 758 l 631 0 l 525 0 m 168 102 l 234 102 q 319 132 290 102 q 355 226 347 162 l 360 275 q 343 368 366 338 q 264 398 321 398 l 198 398 l 168 102 z "},"ь":{"ha":788,"x_min":71,"x_max":679,"o":"m 71 0 l 150 758 l 269 758 l 242 500 l 463 500 q 625 441 571 500 q 668 279 679 383 l 663 227 q 585 60 652 120 q 412 0 518 0 l 71 0 m 201 107 l 399 107 q 503 135 468 107 q 544 226 538 163 l 549 280 q 527 369 556 342 q 429 395 499 395 l 231 395 l 201 107 z "},"э":{"ha":788,"x_min":80,"x_max":676,"o":"m 324 -13 q 137 46 194 -13 q 85 230 80 105 l 199 236 q 226 126 194 158 q 337 95 258 95 q 465 133 422 95 q 518 256 509 172 l 527 342 l 297 342 l 308 441 l 538 441 l 544 499 q 517 624 553 586 q 398 663 481 663 q 278 627 317 663 q 227 501 240 591 l 114 508 q 208 705 136 640 q 408 770 280 770 q 613 699 551 770 q 662 494 676 629 l 638 265 q 547 59 624 130 q 324 -13 470 -13 z "},"ю":{"ha":788,"x_min":32,"x_max":716,"o":"m 443 -13 q 295 54 340 -13 q 264 242 251 121 l 278 370 l 184 370 l 145 0 l 32 0 l 111 758 l 225 758 l 196 479 l 289 479 l 292 510 q 364 703 306 635 q 527 770 423 770 q 674 699 633 770 q 703 510 716 629 l 676 242 q 606 56 663 125 q 443 -13 549 -13 m 455 96 q 536 129 509 96 q 571 242 563 163 l 598 510 q 588 628 607 593 q 514 662 568 662 q 431 628 458 662 q 395 510 404 593 l 367 242 q 379 129 360 163 q 455 96 399 96 z "},"я":{"ha":788,"x_min":63,"x_max":689,"o":"m 332 375 l 530 375 l 559 649 l 361 649 q 282 621 309 649 q 249 532 255 593 l 246 504 q 259 406 239 437 q 332 375 280 375 m 519 269 l 424 269 l 203 0 l 63 0 l 285 270 q 157 336 197 279 q 128 499 116 394 l 130 525 q 201 699 141 640 q 366 758 261 758 l 689 758 l 610 0 l 491 0 l 519 269 z "},"ђ":{"ha":788,"x_min":52,"x_max":672,"o":"m 362 -263 q 297 -255 331 -263 q 230 -235 264 -247 l 264 -117 q 318 -138 292 -130 q 369 -145 345 -145 q 450 -110 417 -145 q 492 8 484 -76 l 540 470 q 519 567 548 537 q 437 597 490 597 q 336 566 386 597 q 241 479 287 535 l 191 0 l 72 0 l 157 799 l 52 799 l 62 898 l 167 898 l 178 1010 l 297 1010 l 285 898 l 491 898 l 481 799 l 275 799 l 253 590 l 284 590 q 370 679 317 648 q 491 710 423 710 q 626 652 580 710 q 662 496 672 593 l 609 -9 q 525 -199 596 -136 q 362 -263 455 -263 z "},"є":{"ha":788,"x_min":86,"x_max":679,"o":"m 645 230 q 554 46 625 105 q 355 -13 482 -13 q 149 59 212 -13 q 100 265 86 130 l 124 494 q 217 699 138 629 q 436 770 295 770 q 621 705 562 770 q 674 508 679 640 l 558 501 q 532 625 563 588 q 423 662 501 662 q 297 623 342 662 q 244 499 253 585 l 237 441 l 471 441 l 460 342 l 226 342 l 217 256 q 246 134 208 173 q 365 96 283 96 q 480 128 443 96 q 530 236 518 160 l 645 230 z "},"ѕ":{"ha":788,"x_min":64,"x_max":667,"o":"m 351 -14 q 194 11 270 -14 q 64 87 119 37 l 121 182 q 233 117 169 141 q 364 93 297 93 q 473 117 429 93 q 524 198 518 140 q 492 280 529 256 q 354 326 456 304 q 177 404 229 354 q 135 549 125 455 q 221 713 146 655 q 403 770 295 770 q 546 743 476 770 q 667 668 616 716 l 611 573 q 511 638 567 611 q 393 664 455 664 q 296 640 333 664 q 254 559 259 615 q 284 477 247 501 q 424 429 321 452 q 600 351 549 403 q 641 208 652 299 q 549 43 630 100 q 351 -14 467 -14 z "},"і":{"ha":788,"x_min":73,"x_max":620,"o":"m 73 0 l 85 107 l 293 107 l 350 650 l 141 650 l 153 758 l 480 758 l 412 107 l 620 107 l 609 0 l 73 0 m 437 899 q 369 914 394 899 q 348 968 343 928 l 348 976 q 381 1033 354 1018 q 452 1048 409 1048 q 520 1033 495 1048 q 540 976 545 1018 l 540 968 q 507 914 535 928 q 437 899 479 899 z "},"ї":{"ha":788,"x_min":73,"x_max":645,"o":"m 73 0 l 85 107 l 293 107 l 350 650 l 141 650 l 153 758 l 480 758 l 412 107 l 620 107 l 609 0 l 73 0 m 312 899 q 261 914 280 899 q 246 968 241 928 l 246 976 q 273 1033 251 1018 q 327 1048 295 1048 q 379 1033 360 1048 q 393 976 398 1018 l 393 968 q 366 914 388 928 q 312 899 343 899 m 559 899 q 508 914 527 899 q 494 968 489 928 l 494 976 q 520 1033 499 1018 q 574 1048 542 1048 q 626 1033 606 1048 q 640 976 645 1018 l 640 968 q 613 914 635 928 q 559 899 591 899 z "},"ј":{"ha":788,"x_min":47,"x_max":645,"o":"m 213 -263 q 132 -257 172 -263 q 47 -235 92 -251 l 81 -117 q 153 -140 119 -134 q 220 -145 187 -145 q 333 -110 288 -145 q 388 8 379 -76 l 455 650 l 163 650 l 174 758 l 583 758 l 503 -9 q 407 -199 490 -136 q 213 -263 323 -263 m 537 899 q 468 914 494 899 q 448 968 443 928 l 448 976 q 481 1033 453 1018 q 552 1048 509 1048 q 620 1033 595 1048 q 640 976 645 1018 l 640 968 q 607 914 635 928 q 537 899 578 899 z "},"љ":{"ha":788,"x_min":-39,"x_max":699,"o":"m 264 648 l 205 183 q 146 39 193 88 q 35 -10 100 -10 q -1 -6 18 -10 q -39 5 -19 -3 l -5 121 q 20 112 8 116 q 42 107 32 107 q 81 128 66 107 q 102 194 96 148 l 173 758 l 484 758 l 457 500 l 542 500 q 660 443 621 500 q 688 282 699 385 l 681 206 q 620 54 670 109 q 490 0 569 0 l 299 0 l 367 648 l 264 648 m 415 105 l 477 105 q 547 133 523 106 q 577 220 571 160 l 585 283 q 572 371 591 343 q 508 398 553 398 l 446 398 l 415 105 z "},"њ":{"ha":788,"x_min":33,"x_max":691,"o":"m 407 105 l 468 105 q 537 130 513 105 q 566 206 561 155 l 573 282 q 561 367 580 340 q 499 395 543 395 l 437 395 l 407 105 m 178 388 l 138 0 l 33 0 l 112 758 l 217 758 l 189 490 l 342 490 l 370 758 l 475 758 l 447 497 l 533 497 q 652 439 612 497 q 679 278 691 381 l 672 208 q 611 55 662 110 q 481 0 561 0 l 290 0 l 331 388 l 178 388 z "},"ћ":{"ha":788,"x_min":52,"x_max":672,"o":"m 240 471 l 191 0 l 72 0 l 157 799 l 52 799 l 62 898 l 167 898 l 178 1010 l 297 1010 l 285 898 l 491 898 l 481 799 l 275 799 l 251 581 l 283 581 q 367 675 311 640 q 491 710 423 710 q 626 650 580 710 q 662 489 672 591 l 610 0 l 491 0 l 539 462 q 521 564 547 530 q 437 597 496 597 q 338 566 388 597 q 240 471 289 534 z "},"џ":{"ha":788,"x_min":72,"x_max":689,"o":"m 264 -189 l 284 0 l 72 0 l 152 758 l 270 758 l 202 105 l 503 105 l 571 758 l 689 758 l 610 0 l 398 0 l 378 -189 l 264 -189 z "},"ґ":{"ha":788,"x_min":124,"x_max":716,"o":"m 124 0 l 203 758 l 583 758 l 604 947 l 716 947 l 684 653 l 311 653 l 242 0 l 124 0 z "},"ⁿ":{"ha":788,"x_min":164,"x_max":652,"o":"m 164 383 l 230 1013 l 328 1013 l 319 926 l 347 926 q 379 973 360 953 q 418 1003 398 992 q 461 1018 439 1014 q 504 1023 482 1023 q 567 1009 538 1023 q 615 971 596 996 q 643 911 635 947 q 646 831 652 875 l 600 383 l 500 383 l 544 808 q 544 862 548 838 q 529 900 540 885 q 501 922 518 914 q 465 929 485 929 q 422 923 443 929 q 383 904 402 917 q 345 876 364 893 q 311 836 327 859 l 263 383 l 164 383 z "},"̀":{"ha":0,"x_min":-144,"x_max":140,"o":"m 39 884 l -144 1136 l 27 1136 l 140 884 l 39 884 z "},"́":{"ha":0,"x_min":-82,"x_max":255,"o":"m -82 884 l 83 1136 l 255 1136 l 19 884 l -82 884 z "},"̂":{"ha":0,"x_min":-188,"x_max":287,"o":"m -144 900 l -188 970 l 24 1157 l 110 1157 l 287 970 l 227 900 l 56 1039 l -144 900 z "},"̃":{"ha":0,"x_min":-184,"x_max":293,"o":"m 126 896 q 62 920 86 896 q 25 971 39 943 q -3 1021 10 999 q -34 1044 -15 1044 q -74 1016 -58 1044 q -95 923 -90 987 l -96 909 l -184 909 l -183 928 q -129 1084 -173 1021 q -16 1146 -86 1146 q 51 1123 27 1146 q 88 1073 76 1100 q 114 1022 102 1045 q 143 999 125 999 q 182 1027 165 999 q 205 1120 198 1056 l 206 1134 l 293 1134 l 292 1115 q 238 958 282 1020 q 126 896 194 896 z "},"̄":{"ha":0,"x_min":-167,"x_max":273,"o":"m -167 957 l -157 1063 l 273 1063 l 263 957 l -167 957 z "},"̆":{"ha":0,"x_min":-197,"x_max":317,"o":"m 39 875 q -136 938 -76 875 q -183 1136 -197 1001 l -69 1136 q -49 1008 -78 1045 q 49 970 -19 970 q 155 1008 117 970 q 203 1136 192 1045 l 317 1136 q 227 938 301 1001 q 39 875 154 875 z "},"̇":{"ha":0,"x_min":-52,"x_max":150,"o":"m 42 899 q -27 914 -1 899 q -47 968 -52 928 l -47 976 q -14 1033 -42 1018 q 57 1048 14 1048 q 125 1033 100 1048 q 145 976 150 1018 l 145 968 q 112 914 140 928 q 42 899 83 899 z "},"̈":{"ha":0,"x_min":-153,"x_max":251,"o":"m -82 899 q -133 914 -114 899 q -148 968 -153 928 l -148 976 q -121 1033 -143 1018 q -67 1048 -98 1048 q -15 1033 -34 1048 q -1 976 4 1018 l -1 968 q -28 914 -6 928 q -82 899 -51 899 m 165 899 q 114 914 133 899 q 100 968 95 928 l 100 976 q 126 1033 105 1018 q 181 1048 148 1048 q 232 1033 212 1048 q 246 976 251 1018 l 246 968 q 219 914 241 928 q 165 899 197 899 z "},"̊":{"ha":0,"x_min":-128,"x_max":246,"o":"m 38 866 q -84 911 -40 866 q -119 1048 -128 956 l -114 1088 q -51 1228 -105 1182 q 81 1274 3 1274 q 203 1228 160 1274 q 237 1088 246 1182 l 232 1048 q 170 911 223 956 q 38 866 116 866 m 47 953 q 112 975 88 953 q 141 1048 136 996 l 146 1088 q 133 1163 152 1139 q 72 1187 114 1187 q 6 1163 29 1187 q -23 1088 -18 1139 l -28 1048 q -15 975 -33 996 q 47 953 4 953 z "},"̋":{"ha":0,"x_min":-128,"x_max":354,"o":"m 115 884 l 199 1136 l 354 1136 l 194 884 l 115 884 m -128 884 l -43 1136 l 111 1136 l -48 884 l -128 884 z "},"̌":{"ha":0,"x_min":-177,"x_max":298,"o":"m -1 889 l -177 1076 l -119 1145 l 54 1006 l 253 1145 l 298 1076 l 85 889 l -1 889 z "},"̒":{"ha":0,"x_min":-104,"x_max":192,"o":"m -104 884 l 91 1136 l 192 1136 l 68 884 l -104 884 z "},"̦":{"ha":0,"x_min":-239,"x_max":57,"o":"m -239 -379 l -115 -126 l 57 -126 l -138 -379 l -239 -379 z "},"̧":{"ha":0,"x_min":-275,"x_max":73,"o":"m -85 0 l -59 53 q 38 0 3 40 q 64 -115 73 -40 q 2 -234 57 -196 q -116 -271 -53 -271 q -232 -242 -188 -271 q -273 -141 -275 -212 l -168 -129 q -155 -162 -169 -153 q -110 -172 -141 -172 q -61 -156 -78 -172 q -39 -97 -44 -140 q -45 -31 -34 -52 q -85 0 -56 -10 z "},"̨":{"ha":0,"x_min":-182,"x_max":95,"o":"m -28 -270 q -140 -230 -97 -270 q -174 -121 -182 -191 q -121 -15 -168 -63 q -21 56 -74 33 l 3 29 q -52 -30 -37 3 q -69 -87 -67 -62 q -56 -141 -73 -122 q -3 -160 -38 -160 q 45 -157 18 -160 q 95 -148 73 -153 l 83 -258 q 28 -266 59 -263 q -28 -270 -4 -270 z "},"¼":{"ha":788,"x_min":5,"x_max":755,"o":"m 215 518 l 225 607 l 367 607 l 396 886 l 380 886 q 357 841 372 861 q 322 806 342 821 q 281 783 303 790 q 235 775 259 775 l 237 866 q 292 878 265 867 q 345 908 319 888 q 385 955 367 927 q 413 1018 403 984 l 515 1018 l 472 607 l 602 607 l 592 518 l 215 518 m 5 317 l 18 438 l 351 413 l 343 342 l 5 317 m 424 342 l 432 413 l 755 438 l 742 317 l 424 342 m 574 -144 l 476 -144 l 463 -265 l 360 -265 l 372 -144 l 105 -144 l 114 -59 l 388 273 l 520 273 l 485 -59 l 583 -59 l 574 -144 m 202 -59 l 381 -59 l 407 186 l 202 -59 z "},"½":{"ha":788,"x_min":5,"x_max":755,"o":"m 215 518 l 225 607 l 367 607 l 396 886 l 380 886 q 357 841 372 861 q 322 806 342 821 q 281 783 303 790 q 235 775 259 775 l 237 866 q 289 877 263 867 q 340 904 316 886 q 383 951 364 923 q 413 1018 403 980 l 515 1018 l 472 607 l 602 607 l 592 518 l 215 518 m 5 317 l 18 438 l 351 413 l 343 342 l 5 317 m 424 342 l 432 413 l 755 438 l 742 317 l 424 342 m 98 -265 l 110 -160 q 122 -105 112 -130 q 148 -59 131 -80 q 190 -25 165 -39 q 249 -3 215 -10 l 380 29 q 415 39 402 34 q 437 52 428 44 q 451 69 446 59 q 457 92 456 78 l 460 117 q 456 145 461 133 q 442 165 452 157 q 410 177 429 173 q 360 182 390 182 q 309 177 328 182 q 277 160 289 172 q 258 133 265 150 q 245 87 251 115 l 143 96 q 165 172 150 140 q 206 225 179 205 q 271 257 231 246 q 369 268 312 268 q 463 258 424 268 q 525 229 503 247 q 557 184 549 211 q 562 122 566 157 l 557 77 q 544 25 554 48 q 515 -13 533 3 q 475 -39 499 -29 q 423 -57 452 -49 l 292 -88 q 259 -97 271 -92 q 236 -111 246 -101 q 220 -136 226 -120 q 211 -178 213 -153 l 538 -178 l 529 -265 l 98 -265 z "},"¾":{"ha":788,"x_min":5,"x_max":755,"o":"m 393 510 q 295 520 335 510 q 232 549 255 529 q 198 597 207 568 q 189 667 188 626 l 293 674 q 297 638 293 652 q 313 615 302 624 q 346 602 324 606 q 403 597 367 597 q 458 601 436 597 q 495 611 481 605 q 515 628 509 619 q 521 652 520 638 l 524 672 q 521 696 525 686 q 505 712 518 706 q 472 723 494 720 q 417 726 449 726 l 354 726 l 364 816 l 427 816 q 473 818 455 816 q 505 827 492 821 q 523 844 516 833 q 533 872 530 855 l 535 900 q 530 918 537 910 q 510 929 524 926 q 478 936 497 934 q 433 938 458 938 q 388 934 407 938 q 359 923 370 931 q 338 903 346 915 q 328 872 331 890 l 225 880 q 248 946 232 919 q 290 991 264 973 q 354 1017 317 1009 q 442 1025 391 1025 q 527 1020 490 1025 q 590 1000 563 1014 q 629 963 616 986 q 638 905 641 939 l 636 884 q 625 845 634 862 q 602 814 616 827 q 568 794 587 802 q 528 784 549 787 l 525 761 q 569 751 549 759 q 602 732 588 744 q 622 704 616 720 q 628 669 629 688 l 625 650 q 605 588 621 615 q 559 544 590 562 q 489 518 532 527 q 393 510 447 510 m 5 317 l 18 438 l 351 413 l 343 342 l 5 317 m 424 342 l 432 413 l 755 438 l 742 317 l 424 342 m 574 -144 l 476 -144 l 463 -265 l 360 -265 l 372 -144 l 105 -144 l 114 -59 l 388 273 l 520 273 l 485 -59 l 583 -59 l 574 -144 m 202 -59 l 381 -59 l 407 186 l 202 -59 z "},"⅛":{"ha":788,"x_min":5,"x_max":755,"o":"m 215 518 l 225 607 l 367 607 l 396 886 l 380 886 q 357 841 372 861 q 322 806 342 821 q 281 783 303 790 q 235 775 259 775 l 237 866 q 289 877 263 867 q 340 904 316 886 q 383 951 364 923 q 413 1018 403 980 l 515 1018 l 472 607 l 602 607 l 592 518 l 215 518 m 5 317 l 18 438 l 351 413 l 343 342 l 5 317 m 424 342 l 432 413 l 755 438 l 742 317 l 424 342 m 318 -271 q 217 -261 258 -271 q 154 -232 177 -251 q 122 -187 130 -213 q 119 -125 115 -160 l 120 -107 q 131 -64 122 -83 q 155 -30 140 -44 q 193 -7 172 -15 q 239 4 213 1 l 241 27 q 205 36 221 29 q 178 54 189 43 q 159 81 164 66 q 157 116 154 97 l 159 141 q 179 199 163 174 q 222 239 194 223 q 288 261 250 254 q 375 269 326 269 q 461 262 424 269 q 521 240 497 255 q 556 200 545 225 q 563 141 567 176 l 561 116 q 549 81 558 97 q 528 54 540 66 q 497 36 515 43 q 458 27 479 29 l 456 4 q 500 -8 481 1 q 530 -32 519 -16 q 548 -65 543 -45 q 551 -107 553 -85 l 549 -125 q 532 -189 545 -162 q 492 -234 518 -216 q 422 -262 465 -253 q 318 -271 379 -271 m 354 58 q 397 61 379 58 q 429 71 415 64 q 449 87 442 77 q 457 111 456 97 l 460 130 q 456 154 461 144 q 439 170 452 164 q 410 179 428 177 q 366 182 391 182 q 323 179 341 182 q 290 170 304 177 q 271 154 278 164 q 263 130 264 144 l 260 111 q 263 87 259 97 q 280 71 268 77 q 310 61 292 64 q 354 58 328 58 m 328 -184 q 386 -179 364 -184 q 420 -165 408 -174 q 439 -144 434 -157 q 447 -112 444 -131 l 447 -102 q 447 -70 449 -83 q 433 -48 444 -57 q 402 -34 423 -39 q 345 -29 380 -29 q 287 -34 309 -29 q 251 -48 264 -39 q 232 -70 237 -57 q 225 -102 227 -83 l 225 -112 q 225 -144 222 -131 q 239 -165 227 -157 q 271 -179 249 -174 q 328 -184 293 -184 z "},"⅜":{"ha":788,"x_min":5,"x_max":755,"o":"m 393 510 q 295 520 335 510 q 232 548 255 529 q 198 597 207 568 q 189 667 188 626 l 293 674 q 297 638 293 652 q 313 615 302 624 q 346 602 324 606 q 403 597 367 597 q 458 601 436 597 q 495 611 481 605 q 515 628 509 619 q 521 652 520 638 l 524 672 q 521 696 525 686 q 504 712 518 706 q 471 723 492 720 q 417 726 449 726 l 354 726 l 364 816 l 427 816 q 473 818 455 816 q 505 827 492 821 q 523 844 516 833 q 533 872 530 855 l 535 900 q 530 918 537 910 q 510 929 524 926 q 478 936 497 934 q 433 938 458 938 q 389 934 408 938 q 359 923 370 931 q 339 903 346 915 q 328 872 332 891 l 225 880 q 248 946 232 919 q 290 991 264 973 q 354 1017 317 1009 q 442 1025 391 1025 q 527 1020 490 1025 q 590 1000 563 1014 q 629 963 616 986 q 638 905 641 939 l 636 884 q 625 845 634 862 q 602 814 616 827 q 568 794 587 802 q 528 784 549 787 l 525 761 q 569 751 549 759 q 602 732 588 744 q 622 704 616 720 q 628 669 629 688 l 625 650 q 605 588 621 615 q 559 544 590 562 q 489 518 532 527 q 393 510 447 510 m 5 317 l 18 438 l 351 413 l 343 342 l 5 317 m 424 342 l 432 413 l 755 438 l 742 317 l 424 342 m 318 -271 q 217 -261 258 -271 q 154 -232 177 -251 q 122 -187 130 -213 q 119 -125 115 -160 l 120 -107 q 131 -64 122 -83 q 155 -30 140 -44 q 193 -7 172 -15 q 239 4 213 1 l 241 27 q 205 36 221 29 q 178 54 189 43 q 159 81 164 66 q 157 116 154 97 l 159 141 q 179 199 163 174 q 222 239 194 223 q 288 261 250 254 q 375 269 326 269 q 461 262 424 269 q 521 240 497 255 q 556 200 545 225 q 563 141 567 176 l 561 116 q 549 81 558 97 q 528 54 540 66 q 497 36 515 43 q 458 27 479 29 l 456 4 q 500 -8 481 1 q 530 -32 519 -16 q 548 -65 543 -45 q 551 -107 553 -85 l 549 -125 q 532 -189 545 -162 q 492 -234 518 -216 q 422 -262 465 -253 q 318 -271 379 -271 m 354 58 q 397 61 379 58 q 429 71 415 64 q 449 87 442 77 q 457 111 456 97 l 460 130 q 456 154 461 144 q 439 170 452 164 q 410 179 428 177 q 366 182 391 182 q 323 179 341 182 q 290 170 304 177 q 271 154 278 164 q 263 130 264 144 l 260 111 q 263 87 259 97 q 280 71 268 77 q 310 61 292 64 q 354 58 328 58 m 328 -184 q 386 -179 364 -184 q 420 -165 408 -174 q 439 -144 434 -157 q 447 -112 444 -131 l 447 -102 q 447 -70 449 -83 q 433 -48 444 -57 q 402 -34 423 -39 q 345 -29 380 -29 q 287 -34 309 -29 q 251 -48 264 -39 q 232 -70 237 -57 q 225 -102 227 -83 l 225 -112 q 225 -144 222 -131 q 239 -165 227 -157 q 271 -179 249 -174 q 328 -184 293 -184 z "},"⅝":{"ha":788,"x_min":5,"x_max":755,"o":"m 395 511 q 295 518 335 511 q 231 543 255 525 q 197 588 207 559 q 189 663 187 617 l 293 670 q 297 632 293 646 q 316 610 302 617 q 348 600 327 602 q 405 597 370 597 q 458 601 437 597 q 494 612 480 605 q 514 630 508 619 q 523 658 520 641 l 525 691 q 524 717 528 706 q 508 735 520 729 q 474 746 496 742 q 419 749 452 749 l 217 749 l 246 1018 l 641 1018 l 633 932 l 341 932 l 331 842 l 456 842 q 537 833 503 842 q 592 807 571 824 q 625 763 616 790 q 630 701 634 736 l 626 658 q 607 598 622 625 q 562 552 591 571 q 491 522 533 533 q 395 511 449 511 m 5 317 l 18 438 l 351 413 l 343 342 l 5 317 m 424 342 l 432 413 l 755 438 l 742 317 l 424 342 m 318 -271 q 217 -261 258 -271 q 154 -232 177 -251 q 122 -187 130 -213 q 119 -125 115 -160 l 120 -107 q 131 -64 122 -83 q 155 -30 140 -44 q 193 -7 172 -15 q 239 4 213 1 l 241 27 q 205 36 221 29 q 178 54 189 43 q 159 81 164 66 q 157 116 154 97 l 159 141 q 179 199 163 174 q 222 239 194 223 q 288 261 250 254 q 375 269 326 269 q 461 262 424 269 q 521 240 497 255 q 556 200 545 225 q 563 141 567 176 l 561 116 q 549 81 558 97 q 528 54 540 66 q 497 36 515 43 q 458 27 479 29 l 456 4 q 500 -8 481 1 q 530 -32 519 -16 q 548 -65 543 -45 q 551 -107 553 -85 l 549 -125 q 532 -189 545 -162 q 492 -234 518 -216 q 422 -262 465 -253 q 318 -271 379 -271 m 354 58 q 397 61 379 58 q 429 71 415 64 q 449 87 442 77 q 457 111 456 97 l 460 130 q 456 154 461 144 q 439 170 452 164 q 410 179 428 177 q 366 182 391 182 q 323 179 341 182 q 290 170 304 177 q 271 154 278 164 q 263 130 264 144 l 260 111 q 263 87 259 97 q 280 71 268 77 q 310 61 292 64 q 354 58 328 58 m 328 -184 q 386 -179 364 -184 q 420 -165 408 -174 q 439 -144 434 -157 q 447 -112 444 -131 l 447 -102 q 447 -70 449 -83 q 433 -48 444 -57 q 402 -34 423 -39 q 345 -29 380 -29 q 287 -34 309 -29 q 251 -48 264 -39 q 232 -70 237 -57 q 225 -102 227 -83 l 225 -112 q 225 -144 222 -131 q 239 -165 227 -157 q 271 -179 249 -174 q 328 -184 293 -184 z "},"⅞":{"ha":788,"x_min":5,"x_max":755,"o":"m 314 518 q 360 641 337 586 q 413 744 384 696 q 475 836 441 792 q 554 926 510 880 l 227 926 l 237 1018 l 668 1018 l 658 926 q 578 827 614 876 q 514 729 543 778 q 462 626 484 678 q 424 518 441 573 l 314 518 m 5 317 l 18 438 l 351 413 l 343 342 l 5 317 m 424 342 l 432 413 l 755 438 l 742 317 l 424 342 m 318 -271 q 217 -261 258 -271 q 154 -232 177 -251 q 122 -187 130 -213 q 119 -125 115 -160 l 120 -107 q 131 -64 122 -83 q 155 -30 140 -44 q 193 -7 172 -15 q 239 4 213 1 l 241 27 q 205 36 221 29 q 178 54 189 43 q 159 81 164 66 q 157 116 154 97 l 159 141 q 179 199 163 174 q 222 239 194 223 q 288 261 250 254 q 375 269 326 269 q 461 262 424 269 q 521 240 497 255 q 556 200 545 225 q 563 141 567 176 l 561 116 q 549 81 558 97 q 528 54 540 66 q 497 36 515 43 q 458 27 479 29 l 456 4 q 500 -8 481 1 q 530 -32 519 -16 q 548 -65 543 -45 q 551 -107 553 -85 l 549 -125 q 532 -189 545 -162 q 492 -234 518 -216 q 422 -262 465 -253 q 318 -271 379 -271 m 354 58 q 397 61 379 58 q 429 71 415 64 q 449 87 442 77 q 457 111 456 97 l 460 130 q 456 154 461 144 q 439 170 452 164 q 410 179 428 177 q 366 182 391 182 q 323 179 341 182 q 290 170 304 177 q 271 154 278 164 q 263 130 264 144 l 260 111 q 263 87 259 97 q 280 71 268 77 q 310 61 292 64 q 354 58 328 58 m 328 -184 q 386 -179 364 -184 q 420 -165 408 -174 q 439 -144 434 -157 q 447 -112 444 -131 l 447 -102 q 447 -70 449 -83 q 433 -48 444 -57 q 402 -34 423 -39 q 345 -29 380 -29 q 287 -34 309 -29 q 251 -48 264 -39 q 232 -70 237 -57 q 225 -102 227 -83 l 225 -112 q 225 -144 222 -131 q 239 -165 227 -157 q 271 -179 249 -174 q 328 -184 293 -184 z "},"_":{"ha":788,"x_min":18,"x_max":624,"o":"m 18 -253 l 30 -135 l 624 -135 l 611 -253 l 18 -253 z "},"-":{"ha":788,"x_min":85,"x_max":691,"o":"m 85 383 l 97 500 l 691 500 l 678 383 l 85 383 z "},"­":{"ha":788,"x_min":85,"x_max":691,"o":"m 85 383 l 97 500 l 691 500 l 678 383 l 85 383 z "},"‐":{"ha":788,"x_min":85,"x_max":691,"o":"m 85 383 l 97 500 l 691 500 l 678 383 l 85 383 z "},"‑":{"ha":788,"x_min":85,"x_max":691,"o":"m 85 383 l 97 500 l 691 500 l 678 383 l 85 383 z "},"–":{"ha":788,"x_min":110,"x_max":665,"o":"m 110 383 l 122 500 l 665 500 l 653 383 l 110 383 z "},"—":{"ha":788,"x_min":13,"x_max":763,"o":"m 13 383 l 25 500 l 763 500 l 750 383 l 13 383 z "},"―":{"ha":788,"x_min":13,"x_max":763,"o":"m 13 383 l 25 500 l 763 500 l 750 383 l 13 383 z "},"(":{"ha":788,"x_min":189,"x_max":664,"o":"m 528 -265 q 271 -51 354 -217 q 217 379 189 115 q 361 809 244 643 q 663 1023 479 975 l 664 931 q 442 742 525 886 q 336 379 359 597 q 365 15 312 159 q 548 -176 418 -130 l 528 -265 z "},")":{"ha":788,"x_min":96,"x_max":573,"o":"m 98 -265 l 96 -176 q 320 15 236 -130 q 428 379 404 160 q 397 742 451 597 q 212 931 343 886 l 234 1023 q 491 809 408 975 q 547 379 573 643 q 401 -51 519 115 q 98 -265 283 -217 z "},"[":{"ha":788,"x_min":150,"x_max":664,"o":"m 150 -253 l 283 1010 l 664 1010 l 653 903 l 390 903 l 278 -163 l 540 -163 l 532 -253 l 150 -253 z "},"]":{"ha":788,"x_min":97,"x_max":612,"o":"m 97 -253 l 106 -163 l 370 -163 l 482 903 l 218 903 l 230 1010 l 612 1010 l 480 -253 l 97 -253 z "},"{":{"ha":788,"x_min":57,"x_max":665,"o":"m 530 -265 q 202 -218 298 -270 q 117 -56 106 -165 q 151 51 125 8 q 206 126 177 95 q 259 186 235 158 q 285 246 283 215 q 242 330 292 304 q 57 359 192 355 l 64 429 q 255 457 199 433 q 317 539 311 481 q 301 594 321 571 q 259 646 282 617 q 220 713 237 674 q 210 817 203 753 q 328 975 221 923 q 665 1023 434 1028 l 654 915 q 408 893 482 919 q 327 804 333 866 q 339 744 323 773 q 383 683 355 716 q 425 617 409 649 q 436 542 441 585 q 371 436 428 472 q 206 395 314 400 l 205 389 q 361 336 312 376 q 402 222 410 295 q 375 153 398 183 q 317 88 352 122 q 263 27 284 57 q 237 -43 242 -3 q 299 -136 231 -109 q 542 -160 367 -164 l 530 -265 z "},"}":{"ha":788,"x_min":96,"x_max":710,"o":"m 552 -56 q 434 -218 540 -165 q 96 -265 328 -270 l 107 -160 q 354 -136 279 -164 q 436 -43 429 -109 q 426 27 441 -3 q 383 88 410 57 q 338 153 355 122 q 326 222 322 183 q 392 336 335 295 q 559 389 449 376 l 561 395 q 402 436 452 400 q 360 542 352 472 q 387 617 365 585 q 443 683 409 649 q 500 744 479 716 q 525 804 521 773 q 463 893 532 866 q 220 915 394 919 l 231 1023 q 560 975 465 1028 q 644 817 655 923 q 612 713 638 753 q 559 646 587 674 q 506 594 529 617 q 479 539 482 571 q 523 457 472 481 q 710 429 573 433 l 702 359 q 509 330 566 355 q 447 246 453 304 q 463 186 444 215 q 504 126 481 158 q 542 51 525 95 q 552 -56 559 8 z "},"#":{"ha":788,"x_min":45,"x_max":744,"o":"m 446 365 l 487 645 l 343 645 l 302 365 l 446 365 m 391 0 l 429 256 l 285 256 l 247 0 l 145 0 l 182 256 l 45 256 l 57 365 l 198 365 l 240 645 l 87 645 l 98 754 l 256 754 l 293 1010 l 396 1010 l 359 754 l 503 754 l 540 1010 l 643 1010 l 606 754 l 744 754 l 732 645 l 590 645 l 548 365 l 702 365 l 691 256 l 533 256 l 495 0 l 391 0 z "},"%":{"ha":788,"x_min":14,"x_max":775,"o":"m 251 582 q 127 630 172 582 q 93 778 82 678 l 100 846 q 165 989 110 942 q 299 1035 220 1035 q 423 989 379 1035 q 457 846 467 942 l 451 778 q 385 630 439 678 q 251 582 331 582 m 261 677 q 317 700 295 677 q 345 775 338 723 l 352 848 q 340 919 357 896 q 289 942 323 942 q 234 919 255 942 q 207 848 212 896 l 199 775 q 210 700 193 723 q 261 677 227 677 m 14 294 l 736 788 l 775 713 l 53 220 l 14 294 m 489 -28 q 364 18 409 -28 q 330 159 319 64 l 338 235 q 402 379 348 332 q 535 426 456 426 q 660 379 616 426 q 694 235 705 332 l 686 159 q 622 18 676 64 q 489 -28 568 -28 m 497 66 q 554 87 532 66 q 581 157 576 109 l 590 237 q 578 308 595 285 q 527 331 561 331 q 470 308 492 331 q 443 237 448 285 l 434 157 q 446 87 429 109 q 497 66 463 66 z "},"‰":{"ha":788,"x_min":5,"x_max":764,"o":"m 242 582 q 124 629 167 582 q 92 774 82 676 l 101 850 q 163 990 111 944 q 290 1035 215 1035 q 408 990 366 1035 q 441 850 451 944 l 432 774 q 370 629 422 676 q 242 582 318 582 m 198 771 q 208 699 193 721 q 253 677 222 677 q 302 699 283 677 q 327 771 322 721 l 336 852 q 326 920 341 899 q 280 942 311 942 q 231 920 250 942 q 207 852 212 899 l 198 771 m 764 722 l 45 261 l 5 336 l 723 795 l 764 722 m 567 -28 q 510 -11 534 -28 q 475 37 486 5 q 428 -11 455 5 q 370 -28 402 -28 q 282 17 312 -28 q 261 154 251 62 l 271 256 q 322 395 282 350 q 419 441 362 441 q 475 424 452 441 q 510 374 499 407 q 557 424 529 407 q 617 441 585 441 q 705 395 676 441 q 723 256 734 350 l 713 154 q 664 17 703 62 q 567 -28 625 -28 m 355 139 q 359 78 350 96 q 388 59 367 59 q 420 78 408 59 q 438 139 433 96 l 452 273 q 448 335 456 314 q 419 355 439 355 q 386 335 399 355 q 369 273 372 314 l 355 139 m 533 139 q 537 78 528 96 q 567 59 547 59 q 600 78 587 59 q 617 139 612 96 l 631 273 q 627 335 635 314 q 598 355 619 355 q 564 335 578 355 q 547 273 551 314 l 533 139 z "},"'":{"ha":788,"x_min":338,"x_max":537,"o":"m 338 511 l 357 1010 l 537 1010 l 452 511 l 338 511 z "},"\"":{"ha":788,"x_min":173,"x_max":701,"o":"m 503 511 l 523 1010 l 701 1010 l 617 511 l 503 511 m 173 511 l 193 1010 l 372 1010 l 288 511 l 173 511 z "},"ʻ":{"ha":788,"x_min":232,"x_max":620,"o":"m 232 511 l 525 1010 l 620 1010 l 453 511 l 232 511 z "},"‘":{"ha":788,"x_min":232,"x_max":620,"o":"m 232 511 l 525 1010 l 620 1010 l 453 511 l 232 511 z "},"’":{"ha":788,"x_min":222,"x_max":610,"o":"m 222 511 l 389 1010 l 610 1010 l 317 511 l 222 511 z "},"“":{"ha":788,"x_min":69,"x_max":774,"o":"m 396 511 l 689 1010 l 774 1010 l 609 511 l 396 511 m 69 511 l 361 1010 l 447 1010 l 282 511 l 69 511 z "},"”":{"ha":788,"x_min":68,"x_max":773,"o":"m 395 511 l 562 1010 l 773 1010 l 481 511 l 395 511 m 68 511 l 234 1010 l 444 1010 l 152 511 l 68 511 z "},"‛":{"ha":788,"x_min":266,"x_max":549,"o":"m 455 511 l 266 1010 l 487 1010 l 549 511 l 455 511 z "},"‚":{"ha":788,"x_min":164,"x_max":530,"o":"m 164 -259 l 311 239 l 530 239 l 259 -259 l 164 -259 z "},"„":{"ha":788,"x_min":29,"x_max":734,"o":"m 356 -260 l 523 239 l 734 239 l 442 -260 l 356 -260 m 29 -260 l 194 239 l 405 239 l 112 -260 l 29 -260 z "},"‹":{"ha":788,"x_min":217,"x_max":585,"o":"m 520 138 l 217 385 l 230 499 l 585 746 l 573 638 l 293 442 l 532 246 l 520 138 z "},"›":{"ha":788,"x_min":191,"x_max":559,"o":"m 191 138 l 202 246 l 482 442 l 244 638 l 255 746 l 559 499 l 547 385 l 191 138 z "},"«":{"ha":788,"x_min":81,"x_max":721,"o":"m 657 136 l 404 384 l 415 497 l 721 745 l 710 636 l 470 441 l 668 245 l 657 136 m 333 136 l 81 384 l 92 497 l 398 745 l 386 636 l 146 441 l 345 245 l 333 136 z "},"»":{"ha":788,"x_min":54,"x_max":694,"o":"m 54 136 l 66 245 l 307 441 l 107 636 l 119 745 l 371 497 l 360 384 l 54 136 m 378 136 l 389 245 l 630 441 l 431 636 l 442 745 l 694 497 l 683 384 l 378 136 z "},"*":{"ha":788,"x_min":90,"x_max":731,"o":"m 624 405 l 436 588 l 437 303 l 306 303 l 369 587 l 143 405 l 90 523 l 347 658 l 117 793 l 196 910 l 384 727 l 380 1010 l 511 1010 l 449 726 l 677 910 l 731 793 l 472 658 l 703 523 l 624 405 z "},"†":{"ha":788,"x_min":90,"x_max":679,"o":"m 256 -253 l 351 650 l 251 650 l 181 388 l 90 388 l 162 758 l 361 758 l 381 1010 l 513 1010 l 479 758 l 679 758 l 673 388 l 582 388 l 567 650 l 466 650 l 371 -253 l 256 -253 z "},"‡":{"ha":788,"x_min":80,"x_max":682,"o":"m 249 -253 l 282 0 l 81 0 l 80 287 l 170 287 l 193 107 l 294 107 l 351 650 l 250 650 l 189 471 l 98 471 l 160 758 l 361 758 l 381 1010 l 513 1010 l 480 758 l 681 758 l 682 471 l 591 471 l 568 650 l 467 650 l 410 107 l 511 107 l 572 287 l 663 287 l 601 0 l 400 0 l 380 -253 l 249 -253 z "},".":{"ha":788,"x_min":222,"x_max":484,"o":"m 341 -13 q 254 15 285 -13 q 229 101 222 42 l 232 134 q 276 222 239 194 q 369 250 313 250 q 453 222 423 250 q 477 134 484 194 l 473 101 q 431 15 467 42 q 341 -13 394 -13 z "},",":{"ha":788,"x_min":152,"x_max":518,"o":"m 152 -259 l 298 239 l 518 239 l 246 -259 l 152 -259 z "},":":{"ha":788,"x_min":225,"x_max":537,"o":"m 395 499 q 310 523 341 499 q 284 602 279 548 l 290 655 q 331 737 295 711 q 422 763 367 763 q 506 737 476 763 q 532 655 537 711 l 525 602 q 484 523 520 548 q 395 499 447 499 m 341 -14 q 256 11 287 -14 q 231 91 225 37 l 236 144 q 278 224 242 198 q 369 250 314 250 q 453 224 423 250 q 477 144 484 198 l 472 91 q 429 11 466 37 q 341 -14 393 -14 z "},";":{"ha":788,"x_min":154,"x_max":537,"o":"m 395 499 q 310 523 341 499 q 284 602 279 548 l 290 655 q 331 737 295 711 q 422 763 367 763 q 506 737 476 763 q 532 655 537 711 l 525 602 q 484 523 520 548 q 395 499 447 499 m 154 -263 l 298 242 l 516 242 l 246 -263 l 154 -263 z "},"…":{"ha":788,"x_min":16,"x_max":691,"o":"m 592 -11 q 539 15 558 -11 q 527 95 520 40 l 532 143 q 562 225 538 198 q 620 251 586 251 q 672 225 654 251 q 684 143 691 198 l 679 95 q 649 15 673 40 q 592 -11 625 -11 m 340 -11 q 287 15 306 -11 q 275 95 269 40 l 280 143 q 310 225 287 198 q 367 251 333 251 q 420 225 403 251 q 432 143 438 198 l 427 95 q 396 15 420 40 q 340 -11 372 -11 m 88 -11 q 35 15 54 -11 q 23 95 16 40 l 28 143 q 58 225 34 198 q 116 251 82 251 q 169 225 150 251 q 181 143 187 198 l 176 95 q 145 15 169 40 q 88 -11 121 -11 z "},"!":{"ha":788,"x_min":244,"x_max":533,"o":"m 338 379 l 372 1010 l 533 1010 l 436 379 l 338 379 m 347 -13 q 268 13 292 -13 q 250 93 244 39 l 254 129 q 289 211 259 184 q 374 237 318 237 q 452 211 429 237 q 470 129 475 184 l 466 93 q 431 13 460 39 q 347 -13 402 -13 z "},"¡":{"ha":788,"x_min":263,"x_max":552,"o":"m 448 1023 q 528 997 504 1023 q 545 917 552 971 l 542 881 q 507 799 537 826 q 422 773 477 773 q 343 799 366 773 q 326 881 321 826 l 330 917 q 365 997 336 971 q 448 1023 394 1023 m 458 631 l 423 0 l 263 0 l 361 631 l 458 631 z "},"‼":{"ha":788,"x_min":91,"x_max":678,"o":"m 489 379 l 523 1010 l 678 1010 l 581 379 l 489 379 m 183 379 l 217 1010 l 372 1010 l 275 379 l 183 379 m 495 -13 q 448 -6 467 -13 q 417 13 429 0 q 401 46 405 27 q 400 93 396 66 l 404 129 q 415 177 407 157 q 438 211 424 198 q 473 231 453 225 q 521 237 494 237 q 568 231 549 237 q 598 211 587 225 q 614 177 610 198 q 615 129 617 157 l 611 93 q 599 46 607 66 q 577 13 591 27 q 542 -6 562 0 q 495 -13 521 -13 m 189 -13 q 143 -6 162 -13 q 111 13 124 0 q 95 46 100 27 q 95 93 91 66 l 98 129 q 110 177 101 157 q 133 211 119 198 q 168 231 148 225 q 216 237 188 237 q 262 231 242 237 q 293 211 282 225 q 308 177 304 198 q 309 129 312 157 l 306 93 q 294 46 302 66 q 271 13 285 27 q 236 -6 256 0 q 189 -13 216 -13 z "},"?":{"ha":788,"x_min":100,"x_max":753,"o":"m 299 402 l 288 497 q 542 577 476 533 q 615 697 607 621 l 619 736 q 592 870 629 824 q 444 915 554 915 q 282 870 323 915 q 217 693 240 824 l 100 706 q 203 953 126 883 q 455 1023 280 1023 q 684 950 616 1023 q 740 751 753 878 l 734 692 q 621 503 720 566 q 299 402 521 441 m 298 -13 q 220 13 244 -13 q 202 93 196 39 l 206 129 q 241 211 211 184 q 324 237 270 237 q 404 211 380 237 q 423 129 428 184 l 419 93 q 383 13 413 39 q 298 -13 352 -13 z "},"¿":{"ha":788,"x_min":35,"x_max":688,"o":"m 490 1023 q 568 997 544 1023 q 586 917 592 971 l 582 881 q 547 799 577 826 q 463 773 518 773 q 384 799 408 773 q 365 881 360 826 l 369 917 q 405 997 375 971 q 490 1023 436 1023 m 490 609 l 500 513 q 247 433 313 477 q 173 313 181 389 l 169 274 q 196 140 159 184 q 343 95 232 95 q 506 140 465 95 q 571 317 548 186 l 688 304 q 585 57 663 128 q 333 -13 508 -13 q 104 60 172 -13 q 49 259 35 133 l 54 318 q 167 507 68 444 q 490 609 266 569 z "},"/":{"ha":788,"x_min":47,"x_max":715,"o":"m 47 -253 l 601 1010 l 715 1010 l 160 -253 l 47 -253 z "}}}
